<?xml version="1.0" standalone="no"?>
<!DOCTYPE svg PUBLIC "-//W3C//DTD SVG 20010904//EN"
 "http://www.w3.org/TR/2001/REC-SVG-20010904/DTD/svg10.dtd">
<svg version="1.0" xmlns="http://www.w3.org/2000/svg"
 width="1170.000000pt" height="1170.000000pt" viewBox="0 0 1170.000000 1170.000000"
 preserveAspectRatio="xMidYMid meet">
<metadata>
Created by potrace 1.11, written by Peter Selinger 2001-2013
</metadata>
<g transform="translate(0.000000,1170.000000) scale(0.100000,-0.100000)"
fill="#000000" stroke="none">
<path d="M3765 11524 c-154 -63 -287 -117 -295 -120 -8 -3 -40 -15 -70 -26
-30 -12 -73 -29 -95 -38 -22 -10 -71 -30 -110 -45 -38 -16 -83 -34 -100 -41
-16 -7 -79 -32 -138 -55 -61 -24 -112 -50 -118 -60 -14 -28 -23 -180 -23 -414
1 -232 15 -755 28 -1000 3 -55 8 -157 12 -226 l6 -126 -278 -277 -277 -276
-366 7 c-637 12 -1288 6 -1366 -11 -11 -3 -32 -7 -47 -10 -22 -5 -31 -19 -58
-83 -32 -81 -38 -94 -63 -153 -8 -19 -59 -143 -112 -275 -53 -132 -103 -253
-110 -270 -15 -34 -118 -285 -145 -355 -10 -25 -22 -57 -28 -72 -10 -24 -7
-33 34 -88 56 -77 344 -372 599 -615 74 -71 309 -292 351 -331 29 -28 208
-193 262 -243 l26 -24 4 -396 3 -395 -103 -99 c-169 -161 -628 -620 -792 -792
-135 -141 -178 -188 -270 -295 -12 -14 -32 -41 -44 -62 l-23 -36 136 -317 c74
-175 135 -319 135 -321 0 -2 11 -27 24 -56 13 -29 63 -145 110 -258 130 -307
119 -286 163 -295 59 -11 80 -13 208 -20 115 -6 975 -7 1195 0 58 1 160 4 228
5 l122 3 285 -283 284 -284 1 -405 c2 -755 18 -1177 51 -1338 5 -28 15 -53 22
-56 39 -16 477 -201 502 -212 17 -8 91 -39 165 -70 74 -31 149 -62 165 -70
100 -44 371 -156 389 -161 37 -9 133 71 384 319 113 111 449 457 561 577 18
19 84 89 146 155 62 66 126 135 143 153 l31 33 398 -5 397 -6 352 -353 c586
-588 897 -878 959 -893 12 -3 126 38 280 100 1083 434 962 383 970 404 28 74
23 820 -10 1402 -2 47 -7 148 -10 225 l-6 140 277 275 276 274 156 -4 c268 -7
1413 -5 1497 2 102 9 142 17 154 32 6 7 44 97 86 201 99 245 323 794 334 820
5 11 25 59 44 106 43 109 46 101 -108 268 -174 187 -598 598 -979 947 -66 60
-129 119 -140 132 -19 21 -20 38 -23 413 l-4 390 439 437 c460 458 572 574
688 713 111 133 109 129 81 197 -131 321 -505 1175 -517 1182 -47 25 -270 35
-790 34 -245 0 -567 -3 -717 -6 l-272 -6 -284 281 -285 282 -6 620 c-3 341 -8
656 -11 700 -2 44 -6 121 -9 170 -6 121 -16 211 -30 264 -11 43 -13 45 -91 78
-44 19 -93 40 -110 47 -16 8 -70 30 -120 51 -49 20 -103 43 -120 50 -16 7
-133 56 -260 110 -126 53 -243 102 -260 110 -113 51 -276 115 -291 115 -37 0
-188 -133 -454 -401 -129 -130 -435 -447 -535 -554 -20 -22 -83 -89 -139 -149
-55 -60 -106 -114 -113 -121 -8 -9 -112 -11 -406 -7 l-395 4 -394 392 c-463
461 -742 727 -810 774 -13 9 -25 19 -28 22 -19 24 -81 60 -101 59 -13 0 -150
-52 -304 -115z m2140 -3788 c85 -5 198 -21 280 -40 11 -2 42 -9 70 -16 161
-37 420 -152 575 -255 400 -268 678 -655 795 -1110 143 -555 21 -1147 -332
-1610 -77 -101 -211 -238 -318 -324 -287 -231 -619 -369 -1000 -417 -135 -17
-395 -9 -530 17 -33 6 -73 13 -90 16 -16 3 -68 16 -115 29 -506 145 -928 485
-1172 944 -76 142 -157 365 -173 473 -4 23 -9 45 -11 49 -13 21 -32 231 -32
358 1 346 76 620 262 955 14 26 89 139 96 145 3 3 19 23 35 45 45 60 63 81
145 165 338 347 792 553 1265 577 66 3 122 7 123 9 2 1 9 1 15 -1 7 -2 57 -6
112 -9z"/>
</g>
</svg>
