<?xml version="1.0" encoding="utf-8"?>
<svg version="1.1" id="Layer_1" xmlns="http://www.w3.org/2000/svg"
  xmlns:xlink="http://www.w3.org/1999/xlink" x="0px" y="0px"
  viewBox="0 0 152 152" style="enable-background:new 0 0 152 152;"
  xml:space="preserve">
<g>
  <path d="M152,152c-50.7,0-101.3,0-152,0C0,101.3,0,50.7,0,0c50.7,0,101.3,0,152,
    0C152,50.7,152,101.3,152,152z M36.3,109.2
    c3,5.7,5.8,11.3,9,17.5c7.1-3,13.7-5.8,20.6-8.7c-2.2-6.8-4.1-12.8-6-18.7c4.3
    -2.8,8.1-5.4,12.1-8c5,4.3,9.7,8.3,14.1,12.1
    c5.7-5.6,10.8-10.6,16.1-15.8C98,82.6,94,77.8,90,73.2c3-4.4,5.6-8.2,8.2-11.9
    c6.3,2,12.1,3.8,18.6,5.9c2.9-7,5.7-13.6,8.5-20.6
    c-6.3-3.3-11.8-6.2-17.4-9.1c1-5,1.9-9.5,2.9-14.1c6.6-0.6,12.8-1.2,19.2-1.8
    c0-4.4,0-8.1,0-12c-17.5,0-34.7,0-51.9,0
    C77.5,43.6,52.7,77.3,9.6,79.4c0,17.2,0,34.4,0,52.3c3.8-0.2,7.2-0.4,10.9-0.6
    c0.6-6.6,1.2-12.8,1.7-19.2
    C27.1,111,31.6,110.1,36.3,109.2z M9.6,50.6c20.4,3.3,44.3-21.2,40.2-41c-13.3,
    0-26.6,0-40.2,0C9.6,23.6,9.6,37.1,9.6,50.6z"/>
</g>
</svg>
