<?xml version="1.0" standalone="no"?>
<!DOCTYPE svg PUBLIC "-//W3C//DTD SVG 1.1//EN" "http://www.w3.org/Graphics/SVG/1.1/DTD/svg11.dtd" >
<svg xmlns="http://www.w3.org/2000/svg" xmlns:xlink="http://www.w3.org/1999/xlink" version="1.1">
<metadata></metadata>
<defs>
<font id="roboto_slabregular" horiz-adv-x="1500" >
<font-face units-per-em="2048" ascent="1638" descent="-410" />
<missing-glyph horiz-adv-x="509" />
<glyph unicode="fi" horiz-adv-x="1239" d="M45 936v146h169v117q0 182 107 282t296 100q66 0 132 -16t152 -45l-33 -160q-53 21 -113 36t-123 15q-118 0 -169.5 -52t-51.5 -160v-117h617v-928l163 -28v-126h-523v126l163 28v782h-420v-782l163 -28v-126h-523v126l163 28v782h-169z" />
<glyph unicode="&#xfb02;" horiz-adv-x="1350" d="M51 0v126l163 28v782h-144v146h144v78q0 201 117.5 311t325.5 110q86 0 170 -16t195 -46h89v-1365l163 -28v-126h-523v126l163 28v1226q-58 14 -119 22.5t-123 8.5q-138 0 -199.5 -62t-61.5 -189v-78h251v-146h-251v-782l163 -28v-126h-523z" />
<glyph horiz-adv-x="0" />
<glyph unicode="&#x9;" horiz-adv-x="0" />
<glyph unicode=" "  horiz-adv-x="509" />
<glyph unicode="&#x09;" horiz-adv-x="509" />
<glyph unicode="&#xa0;" horiz-adv-x="509" />
<glyph unicode="!" horiz-adv-x="483" d="M143 0v204h197v-204h-197zM143 478v978h197v-978h-197z" />
<glyph unicode="&#x22;" horiz-adv-x="765" d="M166 1040v520h158v-270l-61 -250h-97zM474 1040v520h158v-270l-61 -250h-97z" />
<glyph unicode="#" horiz-adv-x="1246" d="M63 410v140h263l68 348h-255v142h283l82 416h151l-82 -416h255l82 416h151l-82 -416h200v-142h-227l-68 -348h220v-140h-248l-80 -410h-151l80 410h-256l-80 -410h-151l80 410h-235zM477 550h256l68 348h-256z" />
<glyph unicode="$" horiz-adv-x="1110" d="M82 424l2 5h190q0 -154 77.5 -219.5t190.5 -65.5q129 0 201 61.5t72 170.5q0 90 -63.5 153.5t-210.5 113.5q-202 61 -305 163t-103 272q0 165 95 269t261 125v221h158v-222q167 -24 259.5 -143.5t92.5 -320.5h-196q0 136 -62.5 220t-174.5 84q-118 0 -177 -61.5 t-59 -168.5q0 -97 61 -157t219 -114q204 -66 303 -164.5t99 -267.5q0 -172 -103 -274t-283 -121v-191h-156v191q-172 18 -282 125.5t-106 315.5z" />
<glyph unicode="%" horiz-adv-x="1460" d="M77 1099v77q0 127 82 214t218 87q138 0 220 -86.5t82 -214.5v-77q0 -127 -82 -213t-218 -86q-137 0 -219.5 86t-82.5 213zM223 1099q0 -74 40.5 -125.5t115.5 -51.5q73 0 113.5 51t40.5 126v77q0 74 -41 126.5t-115 52.5t-114 -52.5t-40 -126.5v-77zM333 177l711 1138 l109 -67l-711 -1138zM782 279v78q0 126 82 213t218 87q137 0 219.5 -86.5t82.5 -213.5v-78q0 -128 -82 -214t-218 -86q-138 0 -220 86t-82 214zM928 279q0 -75 40.5 -126.5t115.5 -51.5q74 0 114 51.5t40 126.5v78q0 74 -41 126t-115 52t-114 -52t-40 -126v-78z" />
<glyph unicode="&#x26;" horiz-adv-x="1289" d="M74 392q0 122 70.5 213.5t210.5 183.5q-78 99 -116 176.5t-38 159.5q0 169 97.5 260.5t268.5 91.5q158 0 257 -91t99 -219q0 -98 -52.5 -169.5t-155.5 -146.5l-109 -80l340 -409q41 65 64 144t23 167h176q0 -131 -39 -243t-113 -201l185 -224l-2 -5h-229l-85 102 q-80 -60 -177 -91.5t-201 -31.5q-217 0 -345.5 115t-128.5 298zM271 392q0 -113 71 -186t206 -73q72 0 142 24.5t132 70.5l-361 435l-40 -29q-91 -68 -120.5 -130t-29.5 -112zM398 1127q0 -53 27 -110.5t81 -125.5l138 95q57 38 77.5 82.5t20.5 98.5q0 61 -48.5 108 t-126.5 47q-81 0 -125 -56.5t-44 -138.5z" />
<glyph unicode="'" horiz-adv-x="460" d="M166 1055v505h158v-223l-61 -282h-97z" />
<glyph unicode="(" horiz-adv-x="662" d="M114 582v9q0 394 159 673t334 372l6 -1l37 -116q-137 -107 -238 -343t-101 -583v-13q0 -348 100.5 -583.5t238.5 -351.5l-37 -108h-6q-175 93 -334 371.5t-159 673.5z" />
<glyph unicode=")" horiz-adv-x="654" d="M11 -355q135 105 237 345.5t102 589.5v13q0 343 -105 584t-234 351l37 108h6q174 -93 333.5 -372t159.5 -673v-9q0 -395 -159.5 -673.5t-333.5 -371.5h-6z" />
<glyph unicode="*" horiz-adv-x="958" d="M66 1071l49 154l296 -111l-10 342h161l-10 -348l293 110l48 -156l-302 -89l193 -270l-131 -96l-181 287l-176 -279l-132 93l198 274z" />
<glyph unicode="+" horiz-adv-x="1145" d="M73 605v178h401v423h197v-423h400v-178h-400v-459h-197v459h-401z" />
<glyph unicode="," horiz-adv-x="404" d="M23 -237q47 72 71 147t24 159v152h197v-149q0 -98 -49 -205t-132 -178z" />
<glyph unicode="-" horiz-adv-x="797" d="M154 538v154h489v-154h-489z" />
<glyph unicode="." horiz-adv-x="493" d="M145 0v202h197v-202h-197z" />
<glyph unicode="/" horiz-adv-x="824" d="M0 -125l608 1581h166l-607 -1581h-167z" />
<glyph unicode="0" horiz-adv-x="1168" d="M121 555v345q0 278 124 427.5t338 149.5q215 0 340 -149.5t125 -427.5v-345q0 -279 -124 -427.5t-339 -148.5q-214 0 -339 149t-125 427zM318 515q0 -189 69 -285.5t198 -96.5q131 0 198.5 96t67.5 286v427q0 189 -68.5 284.5t-199.5 95.5q-129 0 -197 -95.5t-68 -284.5 v-427z" />
<glyph unicode="1" horiz-adv-x="844" d="M117 1241v123l426 92v-1302l224 -28v-126h-646v126l225 28v1091z" />
<glyph unicode="2" horiz-adv-x="1131" d="M76 1033q-5 188 124.5 316t359.5 128q197 0 313.5 -114.5t116.5 -291.5q0 -119 -70.5 -238t-198.5 -257l-383 -417l2 -5h517l16 167h167v-321h-943v135l477 530q128 143 173.5 227t45.5 172q0 109 -64 183.5t-169 74.5q-151 0 -222 -77t-71 -218h-189z" />
<glyph unicode="3" horiz-adv-x="1106" d="M75 378l3 6h188q0 -115 70.5 -183t193.5 -68q125 0 196 68t71 201q0 135 -63 199t-199 64h-172v154h172q131 0 185.5 65.5t54.5 182.5q0 125 -62 190t-183 65q-115 0 -184.5 -67.5t-69.5 -179.5h-189l-2 6q-5 165 119.5 280.5t325.5 115.5q202 0 322 -107.5t120 -306.5 q0 -90 -54.5 -179.5t-163.5 -136.5q131 -43 185.5 -135t54.5 -206q0 -199 -130.5 -313t-333.5 -114q-200 0 -330 107.5t-125 291.5z" />
<glyph unicode="4" horiz-adv-x="1187" d="M63 336v111l642 1009h208v-966h201v-154h-201v-182l163 -28v-126h-522v126l163 28v182h-654zM273 490h444v685l-6 2l-20 -53z" />
<glyph unicode="5" horiz-adv-x="1081" d="M97 377l2 6h178q0 -118 68.5 -184t176.5 -66q125 0 194 88t69 241q0 141 -69.5 230.5t-192.5 89.5q-116 0 -168.5 -35t-76.5 -107l-164 17l84 799h769v-288h-148l-19 113h-435l-47 -409q45 34 101.5 56.5t130.5 24.5q201 2 316.5 -131t115.5 -358q0 -219 -117.5 -352 t-342.5 -133q-185 0 -307.5 101t-117.5 297z" />
<glyph unicode="6" horiz-adv-x="1144" d="M121 573v196q0 346 152 527t391 181q74 0 147.5 -17t121.5 -43l-38 -147q-47 23 -103 37.5t-128 14.5q-153 0 -243.5 -115.5t-96.5 -348.5l4 -4q56 52 137 82.5t175 30.5q195 0 311 -135t116 -342q0 -226 -123.5 -368.5t-329.5 -142.5q-213 0 -353 155t-140 439zM317 554 q0 -203 84.5 -312t212.5 -109q121 0 188.5 102.5t67.5 254.5q0 144 -72.5 237t-200.5 93q-101 0 -172 -40.5t-108 -108.5v-117z" />
<glyph unicode="7" horiz-adv-x="1128" d="M76 1134v322h984v-155q-264 -314 -356.5 -556.5t-133.5 -587.5l-16 -157h-197l16 157q42 344 163 615t331 529h-608l-15 -167h-168z" />
<glyph unicode="8" horiz-adv-x="1131" d="M92 394q0 123 74 217t200 138q-109 42 -171 127.5t-62 199.5q0 192 118.5 296.5t312.5 104.5q192 0 313.5 -104.5t121.5 -296.5q0 -114 -64 -199.5t-173 -127.5q126 -44 201.5 -138t75.5 -217q0 -202 -131.5 -308.5t-341.5 -106.5q-214 0 -344 106.5t-130 308.5zM289 398 q0 -124 75.5 -194.5t201.5 -70.5q123 0 200 71t77 194q0 120 -79 197t-200 77q-122 0 -198.5 -76.5t-76.5 -197.5zM330 1072q0 -111 65 -178t171 -67q104 0 170 67t66 178q0 108 -67.5 179t-170.5 71q-105 0 -169.5 -68.5t-64.5 -181.5z" />
<glyph unicode="9" horiz-adv-x="1154" d="M84 958q0 228 131.5 373.5t319.5 145.5q228 0 359.5 -142.5t131.5 -421.5v-263q0 -341 -140.5 -506t-374.5 -165q-76 0 -155.5 14.5t-142.5 44.5l30 149q61 -29 124.5 -41.5t143.5 -12.5q142 0 224.5 108.5t85.5 349.5l-4 5q-40 -67 -112 -103t-162 -36 q-213 0 -336 131.5t-123 369.5zM281 958q0 -157 70 -251.5t192 -94.5q109 0 181.5 47t104.5 120v154q0 193 -73.5 291t-214.5 98q-109 0 -184.5 -102t-75.5 -262z" />
<glyph unicode=":" horiz-adv-x="419" d="M145 0v202h197v-202h-197zM145 0zM145 880v202h197v-202h-197z" />
<glyph unicode=";" horiz-adv-x="424" d="M53 0zM53 -237q47 72 71 147t24 159v152h197v-149q0 -98 -49 -205t-132 -178zM146 880v202h197v-202h-197z" />
<glyph unicode="&#x3c;" horiz-adv-x="1017" d="M76 486v149l816 378v-201l-559 -233l-85 -18v-6l85 -19l559 -228v-201z" />
<glyph unicode="=" horiz-adv-x="1127" d="M147 407v164h834v-164h-834zM147 823v164h834v-164h-834z" />
<glyph unicode="&#x3e;" horiz-adv-x="1060" d="M125 87v196l598 238l84 17v6l-84 20l-598 234v195l855 -378v-149z" />
<glyph unicode="?" horiz-adv-x="953" d="M66 1122q-3 161 113 258t296 97q197 0 306 -100.5t109 -280.5q0 -129 -70.5 -236t-186.5 -219q-53 -54 -64.5 -97t-11.5 -134h-197q1 146 24.5 201.5t125.5 147.5q99 117 141 180t42 152q0 106 -56.5 163t-161.5 57q-91 0 -154.5 -49.5t-63.5 -145.5h-188zM358 0v208h205 v-208h-205z" />
<glyph unicode="@" horiz-adv-x="1821" d="M86 478q19 423 249 688t602 265q379 0 581.5 -250t185.5 -679q-9 -214 -120 -368.5t-332 -154.5q-73 0 -126.5 41.5t-76.5 116.5q-50 -80 -122 -119t-167 -39q-125 0 -194 120.5t-51 316.5q23 259 137.5 415.5t278.5 156.5q105 0 168.5 -26t140.5 -80l-4 -4h6l-51 -585 q-9 -110 21.5 -151.5t81.5 -41.5q123 0 196.5 113.5t81.5 288.5q17 382 -143.5 595.5t-495.5 213.5q-309 0 -496 -231t-202 -602q-18 -376 150 -594.5t482 -218.5q88 0 178 21.5t152 56.5l39 -107q-68 -42 -171.5 -65.5t-201.5 -23.5q-380 0 -588 249.5t-189 681.5zM691 416 q-11 -141 22 -215.5t107 -74.5q63 0 116.5 25t97.5 88q-1 12 -0.5 25t2.5 29l47 538q-26 12 -54.5 19t-59.5 7q-125 0 -191 -109t-87 -332z" />
<glyph unicode="A" d="M55 0v126l108 15l509 1315h169l500 -1315l107 -15v-126h-418v126l110 19l-96 268h-583l-99 -268l110 -19v-126h-417zM522 578h462l-226 625h-6z" />
<glyph unicode="B" horiz-adv-x="1345" d="M71 0v126l163 28v1147l-163 28v127h163h475q228 0 356.5 -98.5t128.5 -295.5q0 -97 -61.5 -173.5t-162.5 -113.5q131 -28 207 -129t76 -235q0 -200 -130 -305.5t-352 -105.5h-700zM431 154h340q135 0 209.5 66.5t74.5 188.5q0 128 -62.5 201t-191.5 73h-370v-529z M431 837h329q106 3 171.5 63t65.5 166q0 118 -74 176.5t-214 58.5h-278v-464z" />
<glyph unicode="C" horiz-adv-x="1321" d="M71 717v21q0 320 179 529.5t469 209.5q166 0 292 -64.5t189 -144.5v-259h-139l-37 206q-48 47 -118 77t-167 30q-227 0 -349 -164.5t-122 -417.5v-23q0 -253 119.5 -418.5t331.5 -165.5q99 0 180 31t125 76l37 206h139v-259q-63 -81 -189 -144.5t-292 -63.5 q-284 0 -466 210t-182 528z" />
<glyph unicode="D" horiz-adv-x="1419" d="M71 0v126l163 28v1147l-163 28v127h163h447q285 0 458.5 -175.5t173.5 -453.5v-199q0 -279 -173.5 -453.5t-458.5 -174.5h-610zM431 154h250q202 0 318.5 133t116.5 341v201q0 206 -116.5 339t-318.5 133h-250v-1147z" />
<glyph unicode="E" horiz-adv-x="1306" d="M71 0v126l163 28v1147l-163 28v127h1118v-350h-169l-16 195h-573v-471h557v-155h-557v-521h585l16 195h168v-349h-1129z" />
<glyph unicode="F" horiz-adv-x="1273" d="M71 0v126l163 28v1147l-163 28v127h1125v-350h-168l-16 195h-581v-502h563v-155h-563v-490l163 -28v-126h-523z" />
<glyph unicode="G" horiz-adv-x="1387" d="M55 716v24q0 329 182.5 533t485.5 204q162 0 284.5 -50.5t206.5 -133.5v-264h-138l-48 201q-49 40 -118.5 66t-166.5 26q-236 0 -363.5 -161.5t-127.5 -418.5v-26q0 -261 123.5 -422t340.5 -161q119 0 195 25t122 55v319l-239 10v145h436v-522q-64 -67 -189 -126.5 t-325 -59.5q-292 0 -476.5 205t-184.5 532z" />
<glyph unicode="H" horiz-adv-x="1573" d="M71 0v126l163 28v1147l-163 28v127h523v-127l-163 -28v-503h706v503l-163 28v127h163h197h163v-127l-163 -28v-1147l163 -28v-126h-523v126l163 28v489h-706v-489l163 -28v-126h-523z" />
<glyph unicode="I" horiz-adv-x="662" d="M70 0v126l163 28v1147l-163 28v127h523v-127l-163 -28v-1147l163 -28v-126h-523z" />
<glyph unicode="J" horiz-adv-x="1183" d="M64 395l2 6h189q0 -135 68.5 -201.5t193.5 -66.5q109 0 178 73.5t69 196.5v898l-163 28v127h360h163v-127l-163 -28v-898q0 -195 -123.5 -309.5t-320.5 -114.5q-210 0 -334 107q-119 102 -119 293v16z" />
<glyph unicode="K" horiz-adv-x="1452" d="M71 0v126l163 28v1147l-163 28v127h523v-127l-163 -28v-489h151l407 503l-109 14v127h462v-127l-137 -25l-445 -552l486 -601l137 -25v-126h-478v126l111 14l-415 517h-170v-503l163 -28v-126h-523z" />
<glyph unicode="L" horiz-adv-x="1199" d="M71 0v126l163 28v1147l-163 28v127h163h197h163v-127l-163 -28v-1147h506l15 167h168v-321h-1049z" />
<glyph unicode="M" horiz-adv-x="1905" d="M71 0v126l163 28v1147l-163 28v127h163h252l464 -1183h6l463 1183h416v-127l-163 -28v-1147l163 -28v-126h-523v126l163 28v422l19 590l-5 1l-471 -1167h-131l-471 1166l-5 -1l20 -589v-422l163 -28v-126h-523z" />
<glyph unicode="N" horiz-adv-x="1560" d="M71 0v126l163 28v1147l-163 28v127h163h197l700 -1123l6 2v966l-163 28v127h360h163v-127l-163 -28v-1301h-197l-700 1124l-6 -2v-968l163 -28v-126h-523z" />
<glyph unicode="O" horiz-adv-x="1445" d="M79 717v21q0 317 176 528t458 211q290 0 472.5 -211t182.5 -528v-21q0 -318 -182.5 -528t-472.5 -210q-282 0 -458 210t-176 528zM276 717q0 -256 115.5 -416.5t321.5 -160.5q218 0 338 160t120 417v23q0 254 -121.5 414.5t-336.5 160.5q-206 0 -321.5 -161t-115.5 -414 v-23z" />
<glyph unicode="P" horiz-adv-x="1301" d="M71 0v126l163 28v1147l-163 28v127h163h506q233 0 362.5 -120t129.5 -316q0 -198 -129.5 -317t-362.5 -119h-309v-430l163 -28v-126h-523zM431 738h309q148 0 221.5 79.5t73.5 200.5t-73.5 202t-221.5 81h-309v-563z" />
<glyph unicode="Q" horiz-adv-x="1446" d="M79 717v21q0 317 176 528t458 211q290 0 472.5 -211t182.5 -528v-21q0 -194 -72 -354t-201 -258l295 -208l-135 -120l-331 236q-50 -16 -103 -25t-108 -9q-282 0 -458 210t-176 528zM276 717q0 -256 115.5 -416.5t321.5 -160.5q218 0 338 160t120 417v23 q0 254 -121.5 414.5t-336.5 160.5q-206 0 -321.5 -161t-115.5 -414v-23z" />
<glyph unicode="R" horiz-adv-x="1386" d="M71 0v126l163 28v1147l-163 28v126h163h476q238 0 365 -105.5t127 -299.5q0 -106 -59 -188t-169 -129q119 -39 171.5 -127t52.5 -217v-117q0 -67 17 -99t56 -38l48 -6v-129h-106q-115 0 -163.5 80t-48.5 194v113q0 119 -69 191t-185 72h-316v-496l163 -28v-126h-523z M431 805h259q165 0 240 63t75 184q0 115 -72 182t-223 67h-279v-496z" />
<glyph unicode="S" horiz-adv-x="1247" d="M121 178v271h148l38 -209q57 -47 136 -77t189 -30q149 0 235.5 63t86.5 171q0 100 -75 167.5t-265 113.5q-231 55 -361 162t-130 269q0 171 145 284.5t377 113.5q153 0 278.5 -52.5t201.5 -127.5v-271h-149l-37 208q-45 38 -120 63t-174 25q-157 0 -241 -66.5t-84 -173.5 q0 -95 85.5 -158.5t276.5 -111.5q230 -57 349.5 -168t119.5 -275q0 -176 -143.5 -283t-375.5 -107q-168 0 -298.5 55t-212.5 144z" />
<glyph unicode="T" horiz-adv-x="1284" d="M37 1134v322h1210v-322h-168l-15 167h-323v-1147l163 -28v-126h-523v126l163 28v1147h-324l-14 -167h-169z" />
<glyph unicode="U" horiz-adv-x="1541" d="M60 1329v127h163h360v-127l-163 -28v-832q0 -165 94 -250.5t248 -85.5q162 0 261 85t99 251v832l-163 28v127h360h163v-127l-163 -28v-832q0 -237 -154.5 -363.5t-402.5 -126.5q-241 0 -390 126.5t-149 363.5v832z" />
<glyph unicode="V" horiz-adv-x="1470" d="M47 1329v127h460v-127l-133 -21l326 -946l33 -115h6l33 115l325 947l-131 20v127h459v-127l-117 -16l-488 -1313h-169l-488 1313z" />
<glyph unicode="W" horiz-adv-x="1910" d="M27 1329v127h462v-127l-148 -23l187 -802l27 -182l6 -1l39 183l268 952h174l269 -952l40 -187h6l29 187l183 802l-149 23v127h463v-127l-117 -15l-317 -1314h-176l-288 1010l-26 131h-6l-25 -131l-292 -1010h-175l-317 1314z" />
<glyph unicode="X" horiz-adv-x="1404" d="M43 0v126l131 22l414 586l-404 573l-131 22v127h472v-127l-117 -13l291 -437l294 437l-117 13v127h475v-127l-131 -22l-404 -573l413 -586l132 -22v-126h-471v126l115 13l-302 448l-303 -448l117 -13v-126h-474z" />
<glyph unicode="Y" horiz-adv-x="1416" d="M55 1329v127h500v-127l-157 -19l305 -594l305 594l-156 19v127h500v-127l-123 -19l-432 -798v-358l163 -28v-126h-522v126l163 28v373l-424 783z" />
<glyph unicode="Z" horiz-adv-x="1220" d="M92 0v146l777 1155h-584l-14 -167h-169v322h993v-141l-782 -1161h631l16 167h168v-321h-1036z" />
<glyph unicode="[" horiz-adv-x="573" d="M157 -312v1976h384v-155h-187v-1666h187v-155h-384z" />
<glyph unicode="\" horiz-adv-x="841" d="M36 1456h186l608 -1581h-186z" />
<glyph unicode="]" horiz-adv-x="552" d="M23 -157h188v1666h-188v155h385v-1976h-385v155z" />
<glyph unicode="^" horiz-adv-x="864" d="M71 729l299 727h134l298 -727h-182l-166 419l-16 70h-6l-16 -70l-163 -419h-182z" />
<glyph unicode="_" horiz-adv-x="1168" d="M119 0h922v-154h-922v154z" />
<glyph unicode="`" horiz-adv-x="582" d="M84 1471l3 6h230l175 -266h-159z" />
<glyph unicode="a" horiz-adv-x="1128" d="M104 294q0 154 124.5 237.5t341.5 83.5h203v126q0 95 -60 150.5t-167 55.5q-74 0 -130.5 -19t-91.5 -52l-21 -114h-152v210q74 59 179 94.5t228 35.5q184 0 298 -94t114 -269v-521q0 -21 0.5 -41t2.5 -40l80 -11v-126h-258q-9 44 -14 79t-7 70q-57 -73 -142.5 -121.5 t-182.5 -48.5q-169 0 -257 82.5t-88 232.5zM301 290q0 -71 44 -108.5t133 -37.5q98 0 179 47t116 113v178h-210q-121 0 -191.5 -56t-70.5 -136z" />
<glyph unicode="b" horiz-adv-x="1186" d="M-8 1433v127h360v-606q51 72 126.5 110t176.5 38q200 0 312 -160t112 -421v-21q0 -234 -112.5 -377.5t-309.5 -143.5q-106 0 -184 40.5t-130 119.5l-18 -139h-170v1405zM352 302q37 -75 100.5 -119t154.5 -44q139 0 206.5 99t67.5 262v21q0 187 -68 304t-208 117 q-91 0 -153.5 -44t-99.5 -118v-478z" />
<glyph unicode="c" horiz-adv-x="1104" d="M90 520v42q0 231 125 385.5t360 154.5q130 0 233.5 -43t171.5 -118l9 -240h-157l-43 170q-35 34 -90 55t-124 21q-155 0 -221.5 -111.5t-66.5 -273.5v-42q0 -166 66 -276.5t222 -110.5q98 0 172.5 60.5t74.5 148.5h177l2 -6v-10q-1 -134 -125 -238q-130 -108 -301 -109 q-236 0 -360.5 154t-124.5 387z" />
<glyph unicode="d" horiz-adv-x="1229" d="M90 500v21q0 261 111.5 421t311.5 160q96 0 169.5 -35.5t125.5 -102.5v441l-163 28v127h163h197v-1406l163 -28v-126h-334l-16 129q-53 -74 -129.5 -112t-177.5 -38q-198 0 -309.5 143.5t-111.5 377.5zM287 500q0 -163 67 -262t207 -99q88 0 148 40t99 113v502 q-38 68 -99 108t-146 40q-141 0 -208.5 -117t-67.5 -304v-21z" />
<glyph unicode="e" horiz-adv-x="1101" d="M90 520v44q0 231 137.5 384.5t325.5 153.5q218 0 330.5 -132t112.5 -352v-123h-702l-3 -5q3 -156 79 -256.5t213 -100.5q100 0 175.5 28.5t130.5 78.5l77 -128q-58 -56 -153.5 -94.5t-229.5 -38.5q-226 0 -359.5 150.5t-133.5 390.5zM298 654l2 -5h499v26q0 116 -62 194 t-184 78q-99 0 -169 -83.5t-86 -209.5z" />
<glyph unicode="f" horiz-adv-x="728" d="M70 936v146h169v137q0 173 90.5 267.5t252.5 94.5q34 0 68.5 -5.5t76.5 -15.5l-24 -150q-18 4 -43.5 7t-52.5 3q-87 0 -129 -51.5t-42 -149.5v-137h226v-146h-226v-782l163 -28v-126h-523v126l163 28v782h-169z" />
<glyph unicode="g" horiz-adv-x="1159" d="M90 500v21q0 261 114 421t315 160q102 0 179 -40t129 -116l18 136h166v-1068q0 -210 -117 -330.5t-333 -120.5q-78 0 -169 21.5t-160 58.5l51 153q55 -29 130 -48t146 -19q132 0 193.5 74t61.5 211v103q-53 -68 -127 -103t-170 -35q-199 0 -313 144t-114 377zM287 500 q0 -163 69 -262t210 -99q89 0 149 40.5t99 114.5v498q-38 69 -99 109.5t-147 40.5q-141 0 -211 -118t-70 -303v-21z" />
<glyph unicode="h" horiz-adv-x="1322" d="M62 0v126l163 28v1251l-163 28v127h360v-622q56 78 137 121t180 43q174 0 270 -104t96 -320v-524l163 -28v-126h-523v126l163 28v526q0 134 -57.5 198t-171.5 64q-81 0 -147.5 -38.5t-109.5 -104.5v-645l163 -28v-126h-523z" />
<glyph unicode="i" horiz-adv-x="673" d="M89 0v126l163 28v773l-163 28v127h360v-928l163 -28v-126h-523zM252 1359v201h197v-201h-197z" />
<glyph unicode="j" horiz-adv-x="571" d="M-13 -419l13 155q14 -5 41 -8.5t44 -3.5q65 0 103.5 44t38.5 143v1016l-163 28v127h360v-1171q0 -167 -86 -257.5t-239 -90.5q-32 0 -58 4.5t-54 13.5zM221 1363v197h197v-197h-197z" />
<glyph unicode="k" horiz-adv-x="1245" d="M62 0v126l163 28v1251l-163 28v127h360v-904h126l231 286l-99 13v127h453v-127l-132 -26l-285 -340l347 -439l123 -24v-126h-449v126l101 13l-287 360h-129v-345l163 -28v-126h-523z" />
<glyph unicode="l" horiz-adv-x="645" d="M62 0v126l163 28v1251l-163 28v127h360v-1406l163 -28v-126h-523z" />
<glyph unicode="m" horiz-adv-x="1935" d="M50 0v126l163 28v773l-163 28v127h340l13 -141q52 77 134 119t190 42t185.5 -50t116.5 -150q51 92 135 146t196 54q166 0 262 -113.5t96 -341.5v-493l163 -28v-126h-524v126l163 28v495q0 160 -55 226.5t-163 66.5q-103 0 -165.5 -72.5t-72.5 -182.5v-533l163 -28v-126 h-523v126l163 28v495q0 152 -56.5 222.5t-163.5 70.5q-90 0 -148 -37t-89 -104v-647l163 -28v-126h-523z" />
<glyph unicode="n" horiz-adv-x="1318" d="M60 0v126l163 28v773l-163 28v127h339l14 -161q54 86 135.5 133.5t185.5 47.5q175 0 271 -102.5t96 -316.5v-529l163 -28v-126h-523v126l163 28v525q0 143 -56.5 203t-172.5 60q-85 0 -150.5 -41t-104.5 -112v-635l163 -28v-126h-523z" />
<glyph unicode="o" horiz-adv-x="1149" d="M90 529v22q0 240 130 395.5t353 155.5q224 0 354.5 -155t130.5 -396v-22q0 -242 -130 -396t-353 -154q-225 0 -355 154.5t-130 395.5zM287 529q0 -172 72.5 -284t215.5 -112q140 0 213 112t73 284v22q0 170 -73 283t-215 113t-214 -113t-72 -283v-22z" />
<glyph unicode="p" horiz-adv-x="1240" d="M65 -289l163 28v1188l-163 28v127h332l18 -132q54 74 131.5 113t179.5 39q201 0 312.5 -159.5t111.5 -421.5v-21q0 -234 -112 -377.5t-309 -143.5q-100 0 -175.5 33.5t-128.5 99.5v-373l163 -28v-127h-523v127zM425 273q37 -67 96.5 -103.5t146.5 -36.5q140 0 212 102 t72 265v21q0 185 -72 303t-214 118q-84 0 -144 -38t-97 -104v-527z" />
<glyph unicode="q" horiz-adv-x="1155" d="M90 500v21q0 261 111.5 421t311.5 160q95 0 169 -35.5t126 -103.5l16 119h170v-1343l163 -28v-127h-523v127l163 28v363q-52 -61 -123.5 -92t-162.5 -31q-198 0 -309.5 143.5t-111.5 377.5zM287 500q0 -164 67 -265.5t207 -101.5q82 0 139.5 36t96.5 102v543 q-39 61 -97 97t-137 36q-141 0 -208.5 -119.5t-67.5 -306.5v-21z" />
<glyph unicode="r" horiz-adv-x="847" d="M89 0v126l163 28v773l-163 28v127h339l19 -157q46 83 113.5 130t154.5 47q23 0 47.5 -3.5t37.5 -7.5l-26 -183l-112 6q-78 0 -131 -36.5t-82 -102.5v-621l163 -28v-126h-523z" />
<glyph unicode="s" horiz-adv-x="1044" d="M118 784q0 132 112.5 225t292.5 93q123 0 221 -32t163 -89l10 -239h-148l-32 130q-36 34 -90.5 54.5t-123.5 20.5q-105 0 -156 -46t-51 -111q0 -64 45 -101t183 -66q205 -44 305 -119.5t100 -202.5q0 -144 -116.5 -233t-304.5 -89q-123 0 -221 28.5t-175 82.5l-1 247h148 l37 -145q34 -31 92.5 -45t119.5 -14q105 0 164.5 42.5t59.5 111.5q0 65 -49.5 107t-187.5 73q-197 43 -297 117t-100 200z" />
<glyph unicode="t" horiz-adv-x="750" d="M65 936v146h171v261h197v-261h205v-146h-205v-657q0 -76 31.5 -107t83.5 -31q26 0 58.5 4.5t54.5 9.5l27 -135q-28 -18 -82 -29.5t-108 -11.5q-120 0 -191 72.5t-71 227.5v657h-171z" />
<glyph unicode="u" horiz-adv-x="1244" d="M48 955v127h124h197v-640q0 -173 51 -238t159 -65q105 0 173.5 42.5t103.5 120.5v625l-145 28v127h145h197v-928l124 -28v-126h-301l-13 160q-51 -87 -131.5 -134t-185.5 -47q-176 0 -275 113t-99 352v483z" />
<glyph unicode="v" horiz-adv-x="1143" d="M42 955v127h418v-127l-130 -20l223 -616l18 -78h6l19 78l216 616l-131 20v127h418v-127l-89 -15l-363 -940h-149l-367 940z" />
<glyph unicode="w" horiz-adv-x="1693" d="M61 955v127h412v-127l-124 -22l141 -539l23 -131h6l28 131l216 688h158l217 -688l31 -146h6l29 146l133 539l-126 22v127h412v-127l-94 -14l-273 -941h-159l-210 659l-45 182l-6 -1l-42 -181l-206 -659h-159l-273 941z" />
<glyph unicode="x" horiz-adv-x="1192" d="M62 0v126l116 23l319 398l-309 385l-116 23v127h424v-127l-98 -12l202 -260l203 261l-97 11v127h427v-127l-116 -23l-309 -385l318 -398l117 -23v-126h-424v126l96 11l-212 272l-212 -272l97 -11v-126h-426z" />
<glyph unicode="y" horiz-adv-x="1162" d="M35 955v127h437v-127l-122 -20l187 -534l36 -138h6l225 672l-123 20v127h436v-127l-97 -15l-412 -1106q-41 -109 -118 -190t-207 -81q-23 0 -60 5.5t-57 10.5l20 155q-6 1 35.5 -2t52.5 -3q63 0 102 54.5t68 125.5l47 112l-357 918z" />
<glyph unicode="z" horiz-adv-x="1084" d="M112 0v138l585 788h-396l-15 -166h-168v322h820v-134l-592 -794h442l16 167h167v-321h-859z" />
<glyph unicode="{" horiz-adv-x="701" d="M63 543v147q106 0 157 61.5t51 174.5v206q0 171 82.5 290.5t277.5 174.5l40 -117q-110 -35 -156.5 -125.5t-46.5 -222.5v-206q0 -105 -42 -185t-127 -125q85 -46 127 -126.5t42 -183.5v-205q0 -132 46.5 -221.5t156.5 -125.5l-40 -118q-195 55 -277.5 175t-82.5 290v205 q0 112 -51 174.5t-157 62.5z" />
<glyph unicode="|" horiz-adv-x="451" d="M150 -270v1726h157v-1726h-157z" />
<glyph unicode="}" horiz-adv-x="701" d="M27 -246q108 36 155 125.5t47 221.5v205q0 107 45 187t139 123q-94 41 -139 121t-45 189v206q0 132 -47 222.5t-155 125.5l40 117q194 -55 276.5 -174.5t82.5 -290.5v-206q0 -113 51 -174.5t158 -61.5v-147q-107 0 -158 -62.5t-51 -174.5v-205q0 -170 -82.5 -290 t-276.5 -175z" />
<glyph unicode="~" horiz-adv-x="1386" d="M121 474q0 136 85.5 232.5t217.5 96.5q88 0 163 -34.5t160 -104.5q59 -51 106.5 -74t98.5 -23q66 0 114.5 57t48.5 134l142 -18q0 -137 -87.5 -238t-217.5 -101q-89 0 -162.5 33t-158.5 107q-60 48 -109 72t-98 24q-67 0 -114.5 -53t-47.5 -128z" />
<glyph unicode="&#xa1;" horiz-adv-x="481" d="M142 -374v978h197v-978h-197zM142 876v206h197v-206h-197z" />
<glyph unicode="&#xa2;" horiz-adv-x="1118" d="M104 520v42q0 197 92.5 342t270.5 185v229h197v-220q104 -12 188 -52.5t142 -104.5l9 -240h-157l-43 170q-35 34 -90 55t-124 21q-155 0 -221.5 -111.5t-66.5 -273.5v-42q0 -166 66 -276.5t222 -110.5q98 0 172.5 60.5t74.5 148.5h178l2 -6q4 -123 -99.5 -225 t-252.5 -126v-230h-197v237q-178 38 -270.5 183t-92.5 345z" />
<glyph unicode="&#xa3;" horiz-adv-x="1179" d="M68 615v155h157l-10 270q0 204 112 320.5t300 116.5q200 0 310 -104.5t106 -276.5l-2 -6h-189q0 118 -63.5 175t-161.5 57q-99 0 -157 -74.5t-58 -207.5l10 -270h419v-155h-414l6 -149q0 -90 -15.5 -171.5t-44.5 -140.5h551l16 167h167v-167h1l-1 -154h-975v154h10 q47 13 71 111t24 201l-6 149h-163z" />
<glyph unicode="&#xa4;" horiz-adv-x="1461" d="M94 112l138 140q-50 76 -76.5 166.5t-26.5 189.5q0 102 28.5 196t82.5 172l-146 149l138 139l143 -146q74 55 163.5 85.5t185.5 30.5q97 0 186 -31t164 -87l146 149l140 -140l-150 -153q52 -78 80.5 -170.5t28.5 -193.5q0 -98 -26.5 -187.5t-74.5 -165.5l142 -143 l-140 -139l-133 135q-77 -62 -169.5 -95t-193.5 -33t-193 32.5t-169 94.5l-130 -133zM311 608q0 -188 120.5 -320.5t292.5 -132.5q170 0 290.5 132.5t120.5 320.5q0 186 -120.5 318t-290.5 132q-172 0 -292.5 -132t-120.5 -318z" />
<glyph unicode="&#xa5;" horiz-adv-x="1386" d="M59 1329v127h442v-127l-87 -15l283 -521l283 521l-86 15v127h441v-127l-139 -20l-333 -571h312v-123h-383v-167h383v-122h-383v-172l163 -28v-126h-523v126l163 28v172h-375v122h375v167h-375v123h311l-333 570z" />
<glyph unicode="&#xa6;" horiz-adv-x="496" d="M150 -270v792h197v-792h-197zM150 698v758h197v-758h-197z" />
<glyph unicode="&#xa7;" horiz-adv-x="1233" d="M90 551q0 91 46.5 161.5t133.5 111.5q-68 50 -101.5 119.5t-33.5 166.5q0 166 133.5 266.5t358.5 100.5q232 0 362.5 -111.5t126.5 -313.5l-3 -6h-188q0 118 -79.5 197t-218.5 79q-146 0 -220.5 -59.5t-74.5 -150.5q0 -99 67 -148.5t278 -107.5q244 -69 355.5 -159.5 t111.5 -265.5q0 -94 -48 -164t-136 -110q70 -51 105 -119t35 -166q0 -172 -133 -269.5t-358 -97.5q-222 0 -372.5 102.5t-145.5 322.5l2 6l188 2q0 -143 96.5 -210.5t231.5 -67.5q136 0 215 59.5t79 150.5t-72 141.5t-276 113.5q-239 63 -352 156t-113 270zM287 553 q0 -101 67.5 -152t278.5 -110q52 -16 90 -27.5t72 -23.5q73 20 113 70t40 118q0 91 -73.5 144.5t-275.5 116.5q-48 12 -89.5 25t-77.5 27q-73 -19 -109 -69t-36 -119z" />
<glyph unicode="&#xa8;" horiz-adv-x="992" d="M152 1256v200h218v-200h-218zM622 1256v200h218v-200h-218z" />
<glyph unicode="&#xa9;" horiz-adv-x="1595" d="M92 729q0 315 207 531t503 216q295 0 502 -216t207 -531q0 -316 -207.5 -533t-501.5 -217q-296 0 -503 217t-207 533zM212 729q0 -265 172 -447t418 -182q244 0 416 182t172 447q0 263 -172 444t-416 181q-246 0 -418 -180.5t-172 -444.5zM439 669v119q0 173 94.5 280 t254.5 107q157 0 245 -79t84 -228l-2 -6h-146q0 95 -45.5 138.5t-135.5 43.5q-95 0 -146 -70.5t-51 -184.5v-120q0 -117 51 -187t146 -70q90 0 135 43t45 141h146l2 -6q4 -151 -83.5 -229.5t-244.5 -78.5q-160 0 -254.5 106t-94.5 281z" />
<glyph unicode="&#xaa;" horiz-adv-x="894" d="M106 920q0 110 84 170t246 60h138v52q0 63 -29.5 97t-87.5 34q-67 0 -103.5 -27t-36.5 -76l-163 13l-1 6q-6 98 79 163t225 65q133 0 211.5 -71t78.5 -205v-314q0 -51 6 -95t20 -86h-175q-8 21 -13 45t-8 50q-33 -47 -89 -78t-133 -31q-119 0 -184 61t-65 167zM278 924 q0 -45 29.5 -69t89.5 -24q51 0 105 29.5t72 65.5v110h-137q-75 0 -117 -33t-42 -79z" />
<glyph unicode="&#xab;" horiz-adv-x="935" d="M58 117zM58 506v19l295 389h148l-255 -399l255 -398h-148zM392 506v19l295 389h148l-255 -399l255 -398h-148z" />
<glyph unicode="&#xac;" horiz-adv-x="1122" d="M121 637v165h834v-427h-197v262h-637z" />
<glyph unicode="&#xad;" horiz-adv-x="797" d="M154 538v154h489v-154h-489zM154 538z" />
<glyph unicode="&#xae;" horiz-adv-x="1595" d="M92 729q0 315 207 531t503 216q295 0 502 -216t207 -531q0 -316 -207.5 -533t-501.5 -217q-296 0 -503 217t-207 533zM212 729q0 -265 172 -447t418 -182q244 0 416 182t172 447q0 263 -172 444t-416 181q-246 0 -418 -180.5t-172 -444.5zM508 316v850h280 q152 0 238 -65.5t86 -191.5q0 -61 -33 -108.5t-95 -78.5q66 -26 95.5 -79t29.5 -128v-56q0 -41 3.5 -73.5t13.5 -53.5v-16h-153q-9 21 -11 61.5t-2 82.5v54q0 72 -33.5 106t-110.5 34h-159v-338h-149zM657 784h152q65 1 110 32.5t45 87.5q0 73 -39 102.5t-137 29.5h-131 v-252z" />
<glyph unicode="&#xaf;" horiz-adv-x="1028" d="M154 1310v146h721v-146h-721z" />
<glyph unicode="&#xb0;" horiz-adv-x="757" d="M124 1216q0 106 75.5 183.5t180.5 77.5q104 0 178.5 -77.5t74.5 -183.5q0 -108 -74.5 -182.5t-178.5 -74.5q-106 0 -181 74.5t-75 182.5zM254 1216q0 -55 36.5 -91t89.5 -36q52 0 87.5 36t35.5 91t-35.5 92.5t-87.5 37.5q-53 0 -89.5 -37.5t-36.5 -92.5z" />
<glyph unicode="&#xb1;" horiz-adv-x="1057" d="M75 702v154h380v411h178v-411h358v-154h-358v-413h-178v413h-380zM124 5v155h835v-155h-835z" />
<glyph unicode="&#xb2;" horiz-adv-x="827" d="M119 1240q-6 99 78 169t225 70q135 0 211 -64t76 -180q0 -80 -44.5 -136t-160.5 -161l-153 -135l2 -6h361v-130h-592v130l302 262q69 59 90.5 96.5t21.5 80.5q0 50 -28 81t-86 31q-67 0 -103.5 -32t-36.5 -82h-161z" />
<glyph unicode="&#xb3;" horiz-adv-x="845" d="M111 882l1 6h163q0 -46 37.5 -74.5t101.5 -28.5q72 0 113.5 29.5t41.5 77.5q0 63 -36 91t-109 28h-133v126h133q67 0 99 28.5t32 80.5q0 44 -36 72.5t-105 28.5q-56 0 -91 -24t-35 -64h-162l-2 6q-6 94 78.5 153.5t211.5 59.5q145 0 229 -59.5t84 -169.5 q0 -55 -35.5 -100.5t-97.5 -71.5q71 -24 108.5 -71.5t37.5 -115.5q0 -111 -90 -173t-236 -62q-127 0 -218 58t-85 169z" />
<glyph unicode="&#xb4;" horiz-adv-x="599" d="M95 1212l184 266h230l2 -6l-269 -260h-147z" />
<glyph unicode="&#xb5;" horiz-adv-x="1315" d="M66 955v127h163h196v-622q0 -189 55 -258t157 -69q99 0 160 36.5t92 107.5v650l-163 28v127h360v-928l163 -28v-126h-340l-9 109q-44 -64 -108 -97t-147 -33q-72 0 -126 16.5t-94 51.5v-463h-196v1343z" />
<glyph unicode="&#xb6;" horiz-adv-x="1090" d="M78 988q0 207 129.5 337.5t362.5 130.5h443v-127l-163 -28v-1147l163 -28v-126h-523v126l163 28v366h-83q-234 0 -363 129.5t-129 338.5z" />
<glyph unicode="&#xb7;" horiz-adv-x="516" d="M159 624v212h198v-212h-198z" />
<glyph unicode="&#xb8;" horiz-adv-x="470" d="M103 -135l32 135h141l-12 -52q65 -11 108 -52t43 -121q0 -96 -79 -153t-226 -57l-7 109q72 0 115.5 24.5t43.5 73.5q0 48 -36 67t-123 26z" />
<glyph unicode="&#xb9;" horiz-adv-x="547" d="M95 1320v134l301 23v-812h-174v655h-127z" />
<glyph unicode="&#xba;" horiz-adv-x="941" d="M121 1025v117q0 148 93.5 241.5t251.5 93.5t252 -93.5t94 -241.5v-117q0 -149 -93.5 -241.5t-250.5 -92.5q-159 0 -253 92.5t-94 241.5zM293 1025q0 -88 44 -140.5t131 -52.5q83 0 127 53t44 140v117q0 84 -44.5 137.5t-128.5 53.5t-128.5 -53.5t-44.5 -137.5v-117z" />
<glyph unicode="&#xbb;" horiz-adv-x="938" d="M105 152l254 398l-254 399h148l295 -389v-19l-295 -389h-148zM105 152zM450 152l254 398l-254 399h148l295 -389v-19l-295 -389h-148z" />
<glyph unicode="&#xbc;" horiz-adv-x="1443" d="M183 0zM183 1319v134l301 23v-812h-174v655h-127zM321 185l711 1138l109 -67l-711 -1138zM785 254l421 547h174v-519h126v-130h-126v-152h-170v152h-417zM967 282h243v310l-6 1l-13 -22z" />
<glyph unicode="&#xbd;" horiz-adv-x="1480" d="M183 0zM183 1319v134l301 23v-812h-174v655h-127zM334 185l711 1138l109 -67l-711 -1138zM929 573q-6 99 78 169t225 70q135 0 211 -64t76 -180q0 -80 -44.5 -136t-160.5 -161l-153 -135l2 -6h361v-130h-592v130l302 262q69 59 90.5 96.5t21.5 80.5q0 50 -28 81t-86 31 q-67 0 -103.5 -32t-36.5 -82h-161z" />
<glyph unicode="&#xbe;" horiz-adv-x="1690" d="M121 0zM127 883l1 6h163q0 -46 37.5 -74.5t101.5 -28.5q72 0 113.5 29.5t41.5 77.5q0 63 -36 91t-109 28h-133v126h133q67 0 99 28.5t32 80.5q0 44 -36 72.5t-105 28.5q-56 0 -91 -24t-35 -64h-162l-2 6q-6 94 78.5 153.5t211.5 59.5q145 0 229 -59.5t84 -169.5 q0 -55 -35.5 -100.5t-97.5 -71.5q71 -24 108.5 -71.5t37.5 -115.5q0 -111 -90 -173t-236 -62q-127 0 -218 58t-85 169zM505 185l711 1138l109 -67l-711 -1138zM974 254l421 547h174v-519h126v-130h-126v-152h-170v152h-417zM1156 282h243v310l-6 1l-13 -22z" />
<glyph unicode="&#xbf;" horiz-adv-x="890" d="M58 -13q0 127 69.5 233.5t186.5 220.5q53 53 65 96t12 135h197q-2 -146 -26 -202t-125 -147q-101 -120 -141.5 -182t-40.5 -149q0 -107 55.5 -163.5t161.5 -56.5q90 0 154.5 49.5t64.5 145.5h188l3 -6q2 -161 -114.5 -258t-295.5 -97q-198 0 -306 100.5t-108 280.5z M385 874v209h205v-209h-205z" />
<glyph unicode="&#xc0;" d="M55 0v126l108 15l509 1315h169l500 -1315l107 -15v-126h-418v126l110 19l-96 268h-583l-99 -268l110 -19v-126h-417zM55 0zM435 1819l3 6h230l175 -266h-159zM522 578h462l-226 625h-6z" />
<glyph unicode="&#xc1;" d="M55 0v126l108 15l509 1315h169l500 -1315l107 -15v-126h-418v126l110 19l-96 268h-583l-99 -268l110 -19v-126h-417zM55 0zM522 578h462l-226 625h-6zM631 1556l184 266h230l2 -6l-269 -260h-147z" />
<glyph unicode="&#xc2;" d="M55 0v126l108 15l509 1315h169l500 -1315l107 -15v-126h-418v126l110 19l-96 268h-583l-99 -268l110 -19v-126h-417zM55 0zM452 1587v26l246 237h119l248 -238v-25h-161l-147 148l-145 -148h-160zM522 578h462l-226 625h-6z" />
<glyph unicode="&#xc3;" d="M55 0v126l108 15l509 1315h169l500 -1315l107 -15v-126h-418v126l110 19l-96 268h-583l-99 -268l110 -19v-126h-417zM55 0zM402 1627q0 93 58.5 161.5t149.5 68.5q56 0 140 -47t136 -47q41 0 71 32.5t30 79.5l108 -32q0 -94 -59.5 -159t-149.5 -65q-71 0 -148 46.5 t-128 46.5q-42 0 -71.5 -32.5t-29.5 -78.5zM522 578h462l-226 625h-6z" />
<glyph unicode="&#xc4;" d="M55 0v126l108 15l509 1315h169l500 -1315l107 -15v-126h-418v126l110 19l-96 268h-583l-99 -268l110 -19v-126h-417zM55 0zM395 1604v200h218v-200h-218zM522 578h462l-226 625h-6zM865 1604v200h218v-200h-218z" />
<glyph unicode="&#xc5;" d="M55 0v126l108 15l509 1315h169l500 -1315l107 -15v-126h-418v126l110 19l-96 268h-583l-99 -268l110 -19v-126h-417zM55 0zM522 578h462l-226 625h-6zM555 1735q0 84 60.5 141t147.5 57q85 0 145 -56.5t60 -141.5q0 -86 -60 -140t-145 -54q-87 0 -147.5 54t-60.5 140z M658 1735q0 -43 31 -73.5t74 -30.5q42 0 72 29.5t30 74.5t-30 76t-72 31q-44 0 -74.5 -31t-30.5 -76z" />
<glyph unicode="&#xc6;" horiz-adv-x="2096" d="M51 0v126l141 20l793 1310h967v-322h-168l-15 167h-508l20 -466h590v-155h-584l22 -526h522l16 167h167v-321h-1058v126l156 27l-8 197h-556l-121 -210l82 -14v-126h-458zM651 529h446l-31 710l-5 2z" />
<glyph unicode="&#xc7;" horiz-adv-x="1321" d="M71 0zM71 717v21q0 320 179 529.5t469 209.5q166 0 292 -64.5t189 -144.5v-259h-139l-37 206q-48 47 -118 77t-167 30q-227 0 -349 -164.5t-122 -417.5v-23q0 -253 119.5 -418.5t331.5 -165.5q99 0 180 31t125 76l37 206h139v-259q-63 -81 -189 -144.5t-292 -63.5 q-284 0 -466 210t-182 528zM601 -143l32 135h141l-12 -52q65 -11 108 -52t43 -121q0 -96 -79 -153t-226 -57l-7 109q72 0 115.5 24.5t43.5 73.5q0 48 -36 67t-123 26z" />
<glyph unicode="&#xc8;" horiz-adv-x="1306" d="M71 0v126l163 28v1147l-163 28v127h1118v-350h-169l-16 195h-573v-471h557v-155h-557v-521h585l16 195h168v-349h-1129zM71 0zM329 1820l3 6h230l175 -266h-159z" />
<glyph unicode="&#xc9;" horiz-adv-x="1306" d="M71 0v126l163 28v1147l-163 28v127h1118v-350h-169l-16 195h-573v-471h557v-155h-557v-521h585l16 195h168v-349h-1129zM71 0zM525 1557l184 266h230l2 -6l-269 -260h-147z" />
<glyph unicode="&#xca;" horiz-adv-x="1306" d="M71 0v126l163 28v1147l-163 28v127h1118v-350h-169l-16 195h-573v-471h557v-155h-557v-521h585l16 195h168v-349h-1129zM71 0zM346 1588v26l246 237h119l248 -238v-25h-161l-147 148l-145 -148h-160z" />
<glyph unicode="&#xcb;" horiz-adv-x="1306" d="M71 0v126l163 28v1147l-163 28v127h1118v-350h-169l-16 195h-573v-471h557v-155h-557v-521h585l16 195h168v-349h-1129zM71 0zM289 1605v200h218v-200h-218zM759 1605v200h218v-200h-218z" />
<glyph unicode="&#xcc;" horiz-adv-x="662" d="M16 0zM16 1818l3 6h230l175 -266h-159zM70 0v126l163 28v1147l-163 28v127h523v-127l-163 -28v-1147l163 -28v-126h-523z" />
<glyph unicode="&#xcd;" horiz-adv-x="662" d="M70 0v126l163 28v1147l-163 28v127h523v-127l-163 -28v-1147l163 -28v-126h-523zM70 0zM211 1555l184 266h230l2 -6l-269 -260h-147z" />
<glyph unicode="&#xce;" horiz-adv-x="662" d="M33 0zM33 1586v26l246 237h119l248 -238v-25h-161l-147 148l-145 -148h-160zM70 0v126l163 28v1147l-163 28v127h523v-127l-163 -28v-1147l163 -28v-126h-523z" />
<glyph unicode="&#xcf;" horiz-adv-x="662" d="M-24 1603v200h218v-200h-218zM0 0zM70 0v126l163 28v1147l-163 28v127h523v-127l-163 -28v-1147l163 -28v-126h-523zM446 1603v200h218v-200h-218z" />
<glyph unicode="&#xd0;" horiz-adv-x="1449" d="M66 663v155h198v483l-163 28v127h610q285 0 458.5 -175.5t173.5 -453.5v-199q0 -279 -173.5 -453.5t-458.5 -174.5h-610v126l163 28v509h-198zM461 154h250q202 0 318.5 133t116.5 341v201q0 206 -116.5 339t-318.5 133h-250v-483h246v-155h-246v-509z" />
<glyph unicode="&#xd1;" horiz-adv-x="1560" d="M71 0v126l163 28v1147l-163 28v127h163h197l700 -1123l6 2v966l-163 28v127h360h163v-127l-163 -28v-1301h-197l-700 1124l-6 -2v-968l163 -28v-126h-523zM71 0zM396 1628q0 93 58.5 161.5t149.5 68.5q56 0 140 -47t136 -47q41 0 71 32.5t30 79.5l108 -32 q0 -94 -59.5 -159t-149.5 -65q-71 0 -148 46.5t-128 46.5q-42 0 -71.5 -32.5t-29.5 -78.5z" />
<glyph unicode="&#xd2;" horiz-adv-x="1445" d="M79 0zM79 717v21q0 317 176 528t458 211q290 0 472.5 -211t182.5 -528v-21q0 -318 -182.5 -528t-472.5 -210q-282 0 -458 210t-176 528zM276 717q0 -256 115.5 -416.5t321.5 -160.5q218 0 338 160t120 417v23q0 254 -121.5 414.5t-336.5 160.5q-206 0 -321.5 -161 t-115.5 -414v-23zM397 1819l3 6h230l175 -266h-159z" />
<glyph unicode="&#xd3;" horiz-adv-x="1445" d="M79 0zM79 717v21q0 317 176 528t458 211q290 0 472.5 -211t182.5 -528v-21q0 -318 -182.5 -528t-472.5 -210q-282 0 -458 210t-176 528zM276 717q0 -256 115.5 -416.5t321.5 -160.5q218 0 338 160t120 417v23q0 254 -121.5 414.5t-336.5 160.5q-206 0 -321.5 -161 t-115.5 -414v-23zM593 1556l184 266h230l2 -6l-269 -260h-147z" />
<glyph unicode="&#xd4;" horiz-adv-x="1445" d="M79 0zM79 717v21q0 317 176 528t458 211q290 0 472.5 -211t182.5 -528v-21q0 -318 -182.5 -528t-472.5 -210q-282 0 -458 210t-176 528zM276 717q0 -256 115.5 -416.5t321.5 -160.5q218 0 338 160t120 417v23q0 254 -121.5 414.5t-336.5 160.5q-206 0 -321.5 -161 t-115.5 -414v-23zM414 1587v26l246 237h119l248 -238v-25h-161l-147 148l-145 -148h-160z" />
<glyph unicode="&#xd5;" horiz-adv-x="1445" d="M79 0zM79 717v21q0 317 176 528t458 211q290 0 472.5 -211t182.5 -528v-21q0 -318 -182.5 -528t-472.5 -210q-282 0 -458 210t-176 528zM276 717q0 -256 115.5 -416.5t321.5 -160.5q218 0 338 160t120 417v23q0 254 -121.5 414.5t-336.5 160.5q-206 0 -321.5 -161 t-115.5 -414v-23zM364 1627q0 93 58.5 161.5t149.5 68.5q56 0 140 -47t136 -47q41 0 71 32.5t30 79.5l108 -32q0 -94 -59.5 -159t-149.5 -65q-71 0 -148 46.5t-128 46.5q-42 0 -71.5 -32.5t-29.5 -78.5z" />
<glyph unicode="&#xd6;" horiz-adv-x="1445" d="M79 0zM79 717v21q0 317 176 528t458 211q290 0 472.5 -211t182.5 -528v-21q0 -318 -182.5 -528t-472.5 -210q-282 0 -458 210t-176 528zM276 717q0 -256 115.5 -416.5t321.5 -160.5q218 0 338 160t120 417v23q0 254 -121.5 414.5t-336.5 160.5q-206 0 -321.5 -161 t-115.5 -414v-23zM357 1604v200h218v-200h-218zM827 1604v200h218v-200h-218z" />
<glyph unicode="&#xd7;" horiz-adv-x="1070" d="M79 351l327 334l-327 334l126 126l326 -333l327 333l126 -126l-328 -334l328 -334l-126 -126l-327 332l-326 -332z" />
<glyph unicode="&#xd8;" horiz-adv-x="1404" d="M79 717v21q0 317 176 528t458 211q87 0 166.5 -21.5t150.5 -61.5l73 123h149l-118 -199q111 -102 172.5 -252.5t61.5 -327.5v-21q0 -318 -182.5 -528t-472.5 -210q-90 0 -170.5 23t-149.5 67l-97 -163h-149l144 244q-102 101 -157 247.5t-55 319.5zM276 717 q0 -123 27.5 -226.5t80.5 -174.5h6l555 935q-50 31 -108 47.5t-124 16.5q-206 0 -321.5 -161t-115.5 -414v-23zM478 213q48 -36 107 -54.5t128 -18.5q218 0 338 160t120 417v23q0 129 -33 236.5t-94 180.5l-6 1z" />
<glyph unicode="&#xd9;" horiz-adv-x="1541" d="M60 0zM60 1329v127h163h360v-127l-163 -28v-832q0 -165 94 -250.5t248 -85.5q162 0 261 85t99 251v832l-163 28v127h360h163v-127l-163 -28v-832q0 -237 -154.5 -363.5t-402.5 -126.5q-241 0 -390 126.5t-149 363.5v832zM430 1819l3 6h230l175 -266h-159z" />
<glyph unicode="&#xda;" horiz-adv-x="1541" d="M60 0zM60 1329v127h163h360v-127l-163 -28v-832q0 -165 94 -250.5t248 -85.5q162 0 261 85t99 251v832l-163 28v127h360h163v-127l-163 -28v-832q0 -237 -154.5 -363.5t-402.5 -126.5q-241 0 -390 126.5t-149 363.5v832zM626 1556l184 266h230l2 -6l-269 -260h-147z" />
<glyph unicode="&#xdb;" horiz-adv-x="1541" d="M60 0zM60 1329v127h163h360v-127l-163 -28v-832q0 -165 94 -250.5t248 -85.5q162 0 261 85t99 251v832l-163 28v127h360h163v-127l-163 -28v-832q0 -237 -154.5 -363.5t-402.5 -126.5q-241 0 -390 126.5t-149 363.5v832zM447 1587v26l246 237h119l248 -238v-25h-161 l-147 148l-145 -148h-160z" />
<glyph unicode="&#xdc;" horiz-adv-x="1541" d="M60 0zM60 1329v127h163h360v-127l-163 -28v-832q0 -165 94 -250.5t248 -85.5q162 0 261 85t99 251v832l-163 28v127h360h163v-127l-163 -28v-832q0 -237 -154.5 -363.5t-402.5 -126.5q-241 0 -390 126.5t-149 363.5v832zM390 1604v200h218v-200h-218zM860 1604v200h218 v-200h-218z" />
<glyph unicode="&#xdd;" horiz-adv-x="1416" d="M55 0zM55 1329v127h500v-127l-157 -19l305 -594l305 594l-156 19v127h500v-127l-123 -19l-432 -798v-358l163 -28v-126h-522v126l163 28v373l-424 783zM573 1556l184 266h230l2 -6l-269 -260h-147z" />
<glyph unicode="&#xde;" horiz-adv-x="1277" d="M70 0v126l163 28v1147l-163 28v127h360h163v-127l-163 -28v-138h269q231 0 361 -118t130 -307q0 -190 -130 -307.5t-361 -117.5h-269v-159l163 -28v-126h-523zM430 467h269q146 0 220 78t74 191q0 114 -74 193.5t-220 79.5h-269v-542z" />
<glyph unicode="&#xdf;" horiz-adv-x="1288" d="M55 0v126l163 28v928q0 223 117 348t301 125q160 0 261 -86t101 -253q0 -118 -64 -228t-64 -167q0 -82 173 -224t173 -281q0 -167 -104 -252t-282 -85q-84 0 -172.5 20.5t-125.5 50.5l43 159q42 -28 108 -52t126 -24q109 0 159.5 47t50.5 126q0 84 -173 227.5t-173 289.5 q0 80 70 190.5t70 186.5q0 94 -50.5 147.5t-116.5 53.5q-105 0 -168.5 -83t-63.5 -236v-1082h-359z" />
<glyph unicode="&#xe0;" horiz-adv-x="1128" d="M104 0zM104 294q0 154 124.5 237.5t341.5 83.5h203v126q0 95 -60 150.5t-167 55.5q-74 0 -130.5 -19t-91.5 -52l-21 -114h-152v210q74 59 179 94.5t228 35.5q184 0 298 -94t114 -269v-521q0 -21 0.5 -41t2.5 -40l80 -11v-126h-258q-9 44 -14 79t-7 70 q-57 -73 -142.5 -121.5t-182.5 -48.5q-169 0 -257 82.5t-88 232.5zM233 1495l3 6h230l175 -266h-159zM301 290q0 -71 44 -108.5t133 -37.5q98 0 179 47t116 113v178h-210q-121 0 -191.5 -56t-70.5 -136z" />
<glyph unicode="&#xe1;" horiz-adv-x="1128" d="M104 0zM104 294q0 154 124.5 237.5t341.5 83.5h203v126q0 95 -60 150.5t-167 55.5q-74 0 -130.5 -19t-91.5 -52l-21 -114h-152v210q74 59 179 94.5t228 35.5q184 0 298 -94t114 -269v-521q0 -21 0.5 -41t2.5 -40l80 -11v-126h-258q-9 44 -14 79t-7 70 q-57 -73 -142.5 -121.5t-182.5 -48.5q-169 0 -257 82.5t-88 232.5zM301 290q0 -71 44 -108.5t133 -37.5q98 0 179 47t116 113v178h-210q-121 0 -191.5 -56t-70.5 -136zM429 1232l184 266h230l2 -6l-269 -260h-147z" />
<glyph unicode="&#xe2;" horiz-adv-x="1128" d="M104 0zM104 294q0 154 124.5 237.5t341.5 83.5h203v126q0 95 -60 150.5t-167 55.5q-74 0 -130.5 -19t-91.5 -52l-21 -114h-152v210q74 59 179 94.5t228 35.5q184 0 298 -94t114 -269v-521q0 -21 0.5 -41t2.5 -40l80 -11v-126h-258q-9 44 -14 79t-7 70 q-57 -73 -142.5 -121.5t-182.5 -48.5q-169 0 -257 82.5t-88 232.5zM250 1263v26l246 237h119l248 -238v-25h-161l-147 148l-145 -148h-160zM301 290q0 -71 44 -108.5t133 -37.5q98 0 179 47t116 113v178h-210q-121 0 -191.5 -56t-70.5 -136z" />
<glyph unicode="&#xe3;" horiz-adv-x="1128" d="M104 0zM104 294q0 154 124.5 237.5t341.5 83.5h203v126q0 95 -60 150.5t-167 55.5q-74 0 -130.5 -19t-91.5 -52l-21 -114h-152v210q74 59 179 94.5t228 35.5q184 0 298 -94t114 -269v-521q0 -21 0.5 -41t2.5 -40l80 -11v-126h-258q-9 44 -14 79t-7 70 q-57 -73 -142.5 -121.5t-182.5 -48.5q-169 0 -257 82.5t-88 232.5zM200 1303q0 93 58.5 161.5t149.5 68.5q56 0 140 -47t136 -47q41 0 71 32.5t30 79.5l108 -32q0 -94 -59.5 -159t-149.5 -65q-71 0 -148 46.5t-128 46.5q-42 0 -71.5 -32.5t-29.5 -78.5zM301 290 q0 -71 44 -108.5t133 -37.5q98 0 179 47t116 113v178h-210q-121 0 -191.5 -56t-70.5 -136z" />
<glyph unicode="&#xe4;" horiz-adv-x="1128" d="M104 0zM104 294q0 154 124.5 237.5t341.5 83.5h203v126q0 95 -60 150.5t-167 55.5q-74 0 -130.5 -19t-91.5 -52l-21 -114h-152v210q74 59 179 94.5t228 35.5q184 0 298 -94t114 -269v-521q0 -21 0.5 -41t2.5 -40l80 -11v-126h-258q-9 44 -14 79t-7 70 q-57 -73 -142.5 -121.5t-182.5 -48.5q-169 0 -257 82.5t-88 232.5zM193 1280v200h218v-200h-218zM301 290q0 -71 44 -108.5t133 -37.5q98 0 179 47t116 113v178h-210q-121 0 -191.5 -56t-70.5 -136zM663 1280v200h218v-200h-218z" />
<glyph unicode="&#xe5;" horiz-adv-x="1128" d="M104 0zM104 294q0 154 124.5 237.5t341.5 83.5h203v126q0 95 -60 150.5t-167 55.5q-74 0 -130.5 -19t-91.5 -52l-21 -114h-152v210q74 59 179 94.5t228 35.5q184 0 298 -94t114 -269v-521q0 -21 0.5 -41t2.5 -40l80 -11v-126h-258q-9 44 -14 79t-7 70 q-57 -73 -142.5 -121.5t-182.5 -48.5q-169 0 -257 82.5t-88 232.5zM301 290q0 -71 44 -108.5t133 -37.5q98 0 179 47t116 113v178h-210q-121 0 -191.5 -56t-70.5 -136zM353 1411q0 84 60.5 141t147.5 57q85 0 145 -56.5t60 -141.5q0 -86 -60 -140t-145 -54q-87 0 -147.5 54 t-60.5 140zM456 1411q0 -43 31 -73.5t74 -30.5q42 0 72 29.5t30 74.5t-30 76t-72 31q-44 0 -74.5 -31t-30.5 -76z" />
<glyph unicode="&#xe6;" horiz-adv-x="1795" d="M97 304q0 158 114.5 244.5t334.5 86.5h229v85q0 106 -51.5 166.5t-149.5 60.5q-103 0 -164 -55t-61 -133l-188 18l-2 6q-5 138 110 228.5t305 90.5q115 0 202 -40.5t137 -117.5q64 75 151.5 116.5t189.5 41.5q214 0 329.5 -130t115.5 -358v-119h-710l-2 -5 q1 -159 79.5 -258t233.5 -99q104 0 170 27.5t144 78.5l68 -138q-55 -45 -149 -83.5t-233 -38.5q-135 0 -239 48.5t-170 137.5q-56 -79 -168 -132.5t-271 -53.5q-170 0 -262.5 87t-92.5 238zM294 300q0 -74 50 -120.5t147 -46.5q76 0 158.5 43t125.5 100v217h-227 q-120 0 -187 -56t-67 -137zM991 645l2 -5h509v31q0 122 -60 199t-188 77q-114 0 -183 -84.5t-80 -217.5z" />
<glyph unicode="&#xe7;" horiz-adv-x="1104" d="M90 0zM90 520v42q0 231 125 385.5t360 154.5q130 0 233.5 -43t171.5 -118l9 -240h-157l-43 170q-35 34 -90 55t-124 21q-155 0 -221.5 -111.5t-66.5 -273.5v-42q0 -166 66 -276.5t222 -110.5q98 0 172.5 60.5t74.5 148.5h177l2 -6q5 -140 -124.5 -248.5t-301.5 -108.5 q-236 0 -360.5 154t-124.5 387zM410 -144l32 135h141l-12 -52q65 -11 108 -52t43 -121q0 -96 -79 -153t-226 -57l-7 109q72 0 115.5 24.5t43.5 73.5q0 48 -36 67t-123 26z" />
<glyph unicode="&#xe8;" horiz-adv-x="1101" d="M90 0zM90 520v44q0 231 137.5 384.5t325.5 153.5q218 0 330.5 -132t112.5 -352v-123h-702l-3 -5q3 -156 79 -256.5t213 -100.5q100 0 175.5 28.5t130.5 78.5l77 -128q-58 -56 -153.5 -94.5t-229.5 -38.5q-226 0 -359.5 150.5t-133.5 390.5zM233 1495l3 6h230l175 -266 h-159zM298 654l2 -5h499v26q0 116 -62 194t-184 78q-99 0 -169 -83.5t-86 -209.5z" />
<glyph unicode="&#xe9;" horiz-adv-x="1101" d="M90 0zM90 520v44q0 231 137.5 384.5t325.5 153.5q218 0 330.5 -132t112.5 -352v-123h-702l-3 -5q3 -156 79 -256.5t213 -100.5q100 0 175.5 28.5t130.5 78.5l77 -128q-58 -56 -153.5 -94.5t-229.5 -38.5q-226 0 -359.5 150.5t-133.5 390.5zM298 654l2 -5h499v26 q0 116 -62 194t-184 78q-99 0 -169 -83.5t-86 -209.5zM429 1232l184 266h230l2 -6l-269 -260h-147z" />
<glyph unicode="&#xea;" horiz-adv-x="1101" d="M90 0zM90 520v44q0 231 137.5 384.5t325.5 153.5q218 0 330.5 -132t112.5 -352v-123h-702l-3 -5q3 -156 79 -256.5t213 -100.5q100 0 175.5 28.5t130.5 78.5l77 -128q-58 -56 -153.5 -94.5t-229.5 -38.5q-226 0 -359.5 150.5t-133.5 390.5zM250 1263v26l246 237h119 l248 -238v-25h-161l-147 148l-145 -148h-160zM298 654l2 -5h499v26q0 116 -62 194t-184 78q-99 0 -169 -83.5t-86 -209.5z" />
<glyph unicode="&#xeb;" horiz-adv-x="1101" d="M90 0zM90 520v44q0 231 137.5 384.5t325.5 153.5q218 0 330.5 -132t112.5 -352v-123h-702l-3 -5q3 -156 79 -256.5t213 -100.5q100 0 175.5 28.5t130.5 78.5l77 -128q-58 -56 -153.5 -94.5t-229.5 -38.5q-226 0 -359.5 150.5t-133.5 390.5zM193 1280v200h218v-200h-218z M298 654l2 -5h499v26q0 116 -62 194t-184 78q-99 0 -169 -83.5t-86 -209.5zM663 1280v200h218v-200h-218z" />
<glyph unicode="&#xec;" horiz-adv-x="672" d="M24 0zM24 1494l3 6h230l175 -266h-159zM90 0v126l163 28v773l-163 28v127h360v-928l163 -28v-126h-523z" />
<glyph unicode="&#xed;" horiz-adv-x="672" d="M90 0v126l163 28v773l-163 28v127h360v-928l163 -28v-126h-523zM90 0zM219 1231l184 266h230l2 -6l-269 -260h-147z" />
<glyph unicode="&#xee;" horiz-adv-x="672" d="M41 0zM41 1262v26l246 237h119l248 -238v-25h-161l-147 148l-145 -148h-160zM90 0v126l163 28v773l-163 28v127h360v-928l163 -28v-126h-523z" />
<glyph unicode="&#xef;" horiz-adv-x="672" d="M-16 1279v200h218v-200h-218zM0 0zM90 0v126l163 28v773l-163 28v127h360v-928l163 -28v-126h-523zM454 1279v200h218v-200h-218z" />
<glyph unicode="&#xf0;" horiz-adv-x="1191" d="M78 466q0 228 138 370t351 142q83 0 157.5 -32t126.5 -84l4 5q-20 98 -62 179.5t-101 143.5l-272 -155l-77 102l245 140q-36 23 -74.5 41.5t-80.5 34.5l60 164q75 -22 143 -57t128 -82l233 133l77 -102l-215 -123q104 -121 161.5 -287t57.5 -366v-98q0 -245 -144 -400.5 t-359 -155.5q-218 0 -357.5 140t-139.5 347zM275 466q0 -132 82 -232.5t222 -100.5q133 0 217.5 114t84.5 288v100q0 8 -0.5 25t-0.5 25q-35 58 -115.5 98t-197.5 40q-131 0 -211.5 -104t-80.5 -253z" />
<glyph unicode="&#xf1;" horiz-adv-x="1318" d="M60 0v126l163 28v773l-163 28v127h339l14 -161q54 86 135.5 133.5t185.5 47.5q175 0 271 -102.5t96 -316.5v-529l163 -28v-126h-523v126l163 28v525q0 143 -56.5 203t-172.5 60q-85 0 -150.5 -41t-104.5 -112v-635l163 -28v-126h-523zM60 0zM314 1303q0 93 58.5 161.5 t149.5 68.5q56 0 140 -47t136 -47q41 0 71 32.5t30 79.5l108 -32q0 -94 -59.5 -159t-149.5 -65q-71 0 -148 46.5t-128 46.5q-42 0 -71.5 -32.5t-29.5 -78.5z" />
<glyph unicode="&#xf2;" horiz-adv-x="1149" d="M90 0zM90 529v22q0 240 130 395.5t353 155.5q224 0 354.5 -155t130.5 -396v-22q0 -242 -130 -396t-353 -154q-225 0 -355 154.5t-130 395.5zM251 1495l3 6h230l175 -266h-159zM287 529q0 -172 72.5 -284t215.5 -112q140 0 213 112t73 284v22q0 170 -73 283t-215 113 t-214 -113t-72 -283v-22z" />
<glyph unicode="&#xf3;" horiz-adv-x="1149" d="M90 0zM90 529v22q0 240 130 395.5t353 155.5q224 0 354.5 -155t130.5 -396v-22q0 -242 -130 -396t-353 -154q-225 0 -355 154.5t-130 395.5zM287 529q0 -172 72.5 -284t215.5 -112q140 0 213 112t73 284v22q0 170 -73 283t-215 113t-214 -113t-72 -283v-22zM447 1232 l184 266h230l2 -6l-269 -260h-147z" />
<glyph unicode="&#xf4;" horiz-adv-x="1149" d="M90 0zM90 529v22q0 240 130 395.5t353 155.5q224 0 354.5 -155t130.5 -396v-22q0 -242 -130 -396t-353 -154q-225 0 -355 154.5t-130 395.5zM268 1263v26l246 237h119l248 -238v-25h-161l-147 148l-145 -148h-160zM287 529q0 -172 72.5 -284t215.5 -112q140 0 213 112 t73 284v22q0 170 -73 283t-215 113t-214 -113t-72 -283v-22z" />
<glyph unicode="&#xf5;" horiz-adv-x="1149" d="M90 0zM90 529v22q0 240 130 395.5t353 155.5q224 0 354.5 -155t130.5 -396v-22q0 -242 -130 -396t-353 -154q-225 0 -355 154.5t-130 395.5zM218 1303q0 93 58.5 161.5t149.5 68.5q56 0 140 -47t136 -47q41 0 71 32.5t30 79.5l108 -32q0 -94 -59.5 -159t-149.5 -65 q-71 0 -148 46.5t-128 46.5q-42 0 -71.5 -32.5t-29.5 -78.5zM287 529q0 -172 72.5 -284t215.5 -112q140 0 213 112t73 284v22q0 170 -73 283t-215 113t-214 -113t-72 -283v-22z" />
<glyph unicode="&#xf6;" horiz-adv-x="1149" d="M90 0zM90 529v22q0 240 130 395.5t353 155.5q224 0 354.5 -155t130.5 -396v-22q0 -242 -130 -396t-353 -154q-225 0 -355 154.5t-130 395.5zM211 1280v200h218v-200h-218zM287 529q0 -172 72.5 -284t215.5 -112q140 0 213 112t73 284v22q0 170 -73 283t-215 113 t-214 -113t-72 -283v-22zM681 1280v200h218v-200h-218z" />
<glyph unicode="&#xf7;" horiz-adv-x="1148" d="M74 597v188h998v-188h-998zM475 180v203h198v-203h-198zM475 999v203h198v-203h-198z" />
<glyph unicode="&#xf8;" horiz-adv-x="1149" d="M90 529v22q0 240 130 395.5t353 155.5q55 0 105.5 -11t97.5 -30l73 148h129l-104 -210q88 -74 136 -190t48 -258v-22q0 -242 -130 -396t-353 -154q-52 0 -99 9t-89 25l-73 -148h-129l101 206q-95 72 -145.5 191t-50.5 267zM287 529q0 -89 19.5 -164t58.5 -123h6l332 672 q-28 16 -61 24.5t-69 8.5q-142 0 -214 -113t-72 -283v-22zM459 158q25 -13 54 -19t62 -6q140 0 213 112t73 284v22q0 81 -17.5 152t-50.5 119h-6z" />
<glyph unicode="&#xf9;" horiz-adv-x="1244" d="M48 0zM48 955v127h124h197v-640q0 -173 51 -238t159 -65q105 0 173.5 42.5t103.5 120.5v625l-145 28v127h145h197v-928l124 -28v-126h-301l-13 160q-51 -87 -131.5 -134t-185.5 -47q-176 0 -275 113t-99 352v483zM263 1494l3 6h230l175 -266h-159z" />
<glyph unicode="&#xfa;" horiz-adv-x="1244" d="M48 0zM48 955v127h124h197v-640q0 -173 51 -238t159 -65q105 0 173.5 42.5t103.5 120.5v625l-145 28v127h145h197v-928l124 -28v-126h-301l-13 160q-51 -87 -131.5 -134t-185.5 -47q-176 0 -275 113t-99 352v483zM459 1231l184 266h230l2 -6l-269 -260h-147z" />
<glyph unicode="&#xfb;" horiz-adv-x="1244" d="M48 0zM48 955v127h124h197v-640q0 -173 51 -238t159 -65q105 0 173.5 42.5t103.5 120.5v625l-145 28v127h145h197v-928l124 -28v-126h-301l-13 160q-51 -87 -131.5 -134t-185.5 -47q-176 0 -275 113t-99 352v483zM280 1262v26l246 237h119l248 -238v-25h-161l-147 148 l-145 -148h-160z" />
<glyph unicode="&#xfc;" horiz-adv-x="1244" d="M48 0zM48 955v127h124h197v-640q0 -173 51 -238t159 -65q105 0 173.5 42.5t103.5 120.5v625l-145 28v127h145h197v-928l124 -28v-126h-301l-13 160q-51 -87 -131.5 -134t-185.5 -47q-176 0 -275 113t-99 352v483zM223 1279v200h218v-200h-218zM693 1279v200h218v-200 h-218z" />
<glyph unicode="&#xfd;" horiz-adv-x="1162" d="M35 0zM35 955v127h437v-127l-122 -20l187 -534l36 -138h6l225 672l-123 20v127h436v-127l-97 -15l-412 -1106q-41 -109 -118 -190t-207 -81q-23 0 -60 5.5t-57 10.5l20 155q-6 1 35.5 -2t52.5 -3q63 0 102 54.5t68 125.5l47 112l-357 918zM451 1231l184 266h230l2 -6 l-269 -260h-147z" />
<glyph unicode="&#xfe;" horiz-adv-x="1273" d="M25 -289l163 28v1666l-163 28v127h360v-598q53 68 128.5 104t173.5 36q200 0 311.5 -159.5t111.5 -421.5v-21q0 -234 -111.5 -377.5t-308.5 -143.5q-100 0 -176 33.5t-129 100.5v-374l163 -28v-127h-523v127zM385 275q37 -67 97 -104.5t147 -37.5q140 0 212 102t72 265 v21q0 185 -72 303t-214 118q-85 0 -145 -38.5t-97 -105.5v-523z" />
<glyph unicode="&#xff;" horiz-adv-x="1162" d="M35 0zM35 955v127h437v-127l-122 -20l187 -534l36 -138h6l225 672l-123 20v127h436v-127l-97 -15l-412 -1106q-41 -109 -118 -190t-207 -81q-23 0 -60 5.5t-57 10.5l20 155q-6 1 35.5 -2t52.5 -3q63 0 102 54.5t68 125.5l47 112l-357 918zM215 1279v200h218v-200h-218z M685 1279v200h218v-200h-218z" />
<glyph unicode="&#x100;" d="M55 0v126l108 15l509 1315h169l500 -1315l107 -15v-126h-418v126l110 19l-96 268h-583l-99 -268l110 -19v-126h-417zM55 0zM394 1649v146h721v-146h-721zM522 578h462l-226 625h-6z" />
<glyph unicode="&#x101;" horiz-adv-x="1128" d="M104 0zM104 294q0 154 124.5 237.5t341.5 83.5h203v126q0 95 -60 150.5t-167 55.5q-74 0 -130.5 -19t-91.5 -52l-21 -114h-152v210q74 59 179 94.5t228 35.5q184 0 298 -94t114 -269v-521q0 -21 0.5 -41t2.5 -40l80 -11v-126h-258q-9 44 -14 79t-7 70 q-57 -73 -142.5 -121.5t-182.5 -48.5q-169 0 -257 82.5t-88 232.5zM192 1325v146h721v-146h-721zM301 290q0 -71 44 -108.5t133 -37.5q98 0 179 47t116 113v178h-210q-121 0 -191.5 -56t-70.5 -136z" />
<glyph unicode="&#x102;" d="M55 0v126l108 15l509 1315h169l500 -1315l107 -15v-126h-418v126l110 19l-96 268h-583l-99 -268l110 -19v-126h-417zM55 0zM454 1861l2 6h150q0 -65 34.5 -106.5t108.5 -41.5q72 0 107 41.5t35 106.5h151l2 -6q4 -116 -77 -189t-218 -73q-138 0 -219 73t-76 189zM522 578 h462l-226 625h-6z" />
<glyph unicode="&#x103;" horiz-adv-x="1128" d="M104 0zM104 294q0 154 124.5 237.5t341.5 83.5h203v126q0 95 -60 150.5t-167 55.5q-74 0 -130.5 -19t-91.5 -52l-21 -114h-152v210q74 59 179 94.5t228 35.5q184 0 298 -94t114 -269v-521q0 -21 0.5 -41t2.5 -40l80 -11v-126h-258q-9 44 -14 79t-7 70 q-57 -73 -142.5 -121.5t-182.5 -48.5q-169 0 -257 82.5t-88 232.5zM252 1537l2 6h150q0 -65 34.5 -106.5t108.5 -41.5q72 0 107 41.5t35 106.5h151l2 -6q4 -116 -77 -189t-218 -73q-138 0 -219 73t-76 189zM301 290q0 -71 44 -108.5t133 -37.5q98 0 179 47t116 113v178h-210 q-121 0 -191.5 -56t-70.5 -136z" />
<glyph unicode="&#x104;" d="M55 0v126l108 15l509 1315h169l500 -1315l107 -15v-126h-418v126l110 19l-96 268h-583l-99 -268l110 -19v-126h-417zM55 0zM522 578h462l-226 625h-6zM1129 -223q0 80 60.5 152t187.5 128l71 -57q-70 -52 -109.5 -99.5t-39.5 -101.5q0 -42 22.5 -66t73.5 -24q27 0 50 7.5 t49 18.5l33 -123q-36 -19 -79.5 -31.5t-103.5 -12.5q-94 0 -154.5 55t-60.5 154z" />
<glyph unicode="&#x105;" horiz-adv-x="1128" d="M104 0zM104 294q0 154 124.5 237.5t341.5 83.5h203v126q0 95 -60 150.5t-167 55.5q-74 0 -130.5 -19t-91.5 -52l-21 -114h-152v210q74 59 179 94.5t228 35.5q184 0 298 -94t114 -269v-521q0 -21 0.5 -41t2.5 -40l80 -11v-126h-258q-9 44 -14 79t-7 70 q-57 -73 -142.5 -121.5t-182.5 -48.5q-169 0 -257 82.5t-88 232.5zM301 290q0 -71 44 -108.5t133 -37.5q98 0 179 47t116 113v178h-210q-121 0 -191.5 -56t-70.5 -136zM734 -223q0 80 60.5 152t187.5 128l71 -57q-70 -52 -109.5 -99.5t-39.5 -101.5q0 -42 22.5 -66t73.5 -24 q27 0 50 7.5t49 18.5l33 -123q-36 -19 -79.5 -31.5t-103.5 -12.5q-94 0 -154.5 55t-60.5 154z" />
<glyph unicode="&#x106;" horiz-adv-x="1321" d="M71 0zM71 717v21q0 320 179 529.5t469 209.5q166 0 292 -64.5t189 -144.5v-259h-139l-37 206q-48 47 -118 77t-167 30q-227 0 -349 -164.5t-122 -417.5v-23q0 -253 119.5 -418.5t331.5 -165.5q99 0 180 31t125 76l37 206h139v-259q-63 -81 -189 -144.5t-292 -63.5 q-284 0 -466 210t-182 528zM588 1578l184 266h230l2 -6l-269 -260h-147z" />
<glyph unicode="&#x107;" horiz-adv-x="1104" d="M90 0zM90 520v42q0 231 125 385.5t360 154.5q130 0 233.5 -43t171.5 -118l9 -240h-157l-43 170q-35 34 -90 55t-124 21q-155 0 -221.5 -111.5t-66.5 -273.5v-42q0 -166 66 -276.5t222 -110.5q98 0 172.5 60.5t74.5 148.5h177l2 -6q5 -140 -124.5 -248.5t-301.5 -108.5 q-236 0 -360.5 154t-124.5 387zM446 1232l184 266h230l2 -6l-269 -260h-147z" />
<glyph unicode="&#x108;" horiz-adv-x="1321" d="M71 0zM71 717v21q0 320 179 529.5t469 209.5q166 0 292 -64.5t189 -144.5v-259h-139l-37 206q-48 47 -118 77t-167 30q-227 0 -349 -164.5t-122 -417.5v-23q0 -253 119.5 -418.5t331.5 -165.5q99 0 180 31t125 76l37 206h139v-259q-63 -81 -189 -144.5t-292 -63.5 q-284 0 -466 210t-182 528zM409 1609v26l246 237h119l248 -238v-25h-161l-147 148l-145 -148h-160z" />
<glyph unicode="&#x109;" horiz-adv-x="1104" d="M90 0zM90 520v42q0 231 125 385.5t360 154.5q130 0 233.5 -43t171.5 -118l9 -240h-157l-43 170q-35 34 -90 55t-124 21q-155 0 -221.5 -111.5t-66.5 -273.5v-42q0 -166 66 -276.5t222 -110.5q98 0 172.5 60.5t74.5 148.5h177l2 -6q5 -140 -124.5 -248.5t-301.5 -108.5 q-236 0 -360.5 154t-124.5 387zM267 1263v26l246 237h119l248 -238v-25h-161l-147 148l-145 -148h-160z" />
<glyph unicode="&#x10a;" horiz-adv-x="1321" d="M71 0zM71 717v21q0 320 179 529.5t469 209.5q166 0 292 -64.5t189 -144.5v-259h-139l-37 206q-48 47 -118 77t-167 30q-227 0 -349 -164.5t-122 -417.5v-23q0 -253 119.5 -418.5t331.5 -165.5q99 0 180 31t125 76l37 206h139v-259q-63 -81 -189 -144.5t-292 -63.5 q-284 0 -466 210t-182 528zM597 1624v201h217v-201h-217z" />
<glyph unicode="&#x10b;" horiz-adv-x="1104" d="M90 0zM90 520v42q0 231 125 385.5t360 154.5q130 0 233.5 -43t171.5 -118l9 -240h-157l-43 170q-35 34 -90 55t-124 21q-155 0 -221.5 -111.5t-66.5 -273.5v-42q0 -166 66 -276.5t222 -110.5q98 0 172.5 60.5t74.5 148.5h177l2 -6q5 -140 -124.5 -248.5t-301.5 -108.5 q-236 0 -360.5 154t-124.5 387zM455 1278v201h217v-201h-217z" />
<glyph unicode="&#x10c;" horiz-adv-x="1321" d="M71 0zM71 717v21q0 320 179 529.5t469 209.5q166 0 292 -64.5t189 -144.5v-259h-139l-37 206q-48 47 -118 77t-167 30q-227 0 -349 -164.5t-122 -417.5v-23q0 -253 119.5 -418.5t331.5 -165.5q99 0 180 31t125 76l37 206h139v-259q-63 -81 -189 -144.5t-292 -63.5 q-284 0 -466 210t-182 528zM400 1846v20h166l146 -148l147 148h170v-18l-257 -245h-119z" />
<glyph unicode="&#x10d;" horiz-adv-x="1104" d="M90 0zM90 520v42q0 231 125 385.5t360 154.5q130 0 233.5 -43t171.5 -118l9 -240h-157l-43 170q-35 34 -90 55t-124 21q-155 0 -221.5 -111.5t-66.5 -273.5v-42q0 -166 66 -276.5t222 -110.5q98 0 172.5 60.5t74.5 148.5h177l2 -6q5 -140 -124.5 -248.5t-301.5 -108.5 q-236 0 -360.5 154t-124.5 387zM258 1500v20h166l146 -148l147 148h170v-18l-257 -245h-119z" />
<glyph unicode="&#x10e;" horiz-adv-x="1419" d="M71 0v126l163 28v1147l-163 28v127h163h447q285 0 458.5 -175.5t173.5 -453.5v-199q0 -279 -173.5 -453.5t-458.5 -174.5h-610zM71 0zM328 1825v20h166l146 -148l147 148h170v-18l-257 -245h-119zM431 154h250q202 0 318.5 133t116.5 341v201q0 206 -116.5 339 t-318.5 133h-250v-1147z" />
<glyph unicode="&#x10f;" horiz-adv-x="1379" d="M90 0zM90 500v21q0 261 111.5 421t311.5 160q96 0 169.5 -35.5t125.5 -102.5v441l-163 28v127h163h197v-1406l163 -28v-126h-334l-16 129q-53 -74 -129.5 -112t-177.5 -38q-198 0 -309.5 143.5t-111.5 377.5zM287 500q0 -163 67 -262t207 -99q88 0 148 40t99 113v502 q-38 68 -99 108t-146 40q-141 0 -208.5 -117t-67.5 -304v-21zM1042 1137q47 71 70.5 144.5t23.5 159.5v119h188v-116q0 -102 -44.5 -207t-126.5 -174z" />
<glyph unicode="&#x110;" horiz-adv-x="1449" d="M66 663v155h198v483l-163 28v127h610q285 0 458.5 -175.5t173.5 -453.5v-199q0 -279 -173.5 -453.5t-458.5 -174.5h-610v126l163 28v509h-198zM461 154h250q202 0 318.5 133t116.5 341v201q0 206 -116.5 339t-318.5 133h-250v-483h246v-155h-246v-509z" />
<glyph unicode="&#x111;" horiz-adv-x="1259" d="M90 500v21q0 261 111.5 421t311.5 160q96 0 169.5 -35.5t125.5 -102.5v199h-251v155h251v87l-163 28v127h360v-242h193v-155h-193v-1009l163 -28v-126h-334l-16 129q-53 -74 -129.5 -112t-177.5 -38q-198 0 -309.5 143.5t-111.5 377.5zM287 500q0 -163 67 -262t207 -99 q88 0 148 40t99 113v502q-38 68 -99 108t-146 40q-141 0 -208.5 -117t-67.5 -304v-21z" />
<glyph unicode="&#x112;" horiz-adv-x="1306" d="M71 0v126l163 28v1147l-163 28v127h1118v-350h-169l-16 195h-573v-471h557v-155h-557v-521h585l16 195h168v-349h-1129zM71 0zM288 1650v146h721v-146h-721z" />
<glyph unicode="&#x113;" horiz-adv-x="1101" d="M90 0zM90 520v44q0 231 137.5 384.5t325.5 153.5q218 0 330.5 -132t112.5 -352v-123h-702l-3 -5q3 -156 79 -256.5t213 -100.5q100 0 175.5 28.5t130.5 78.5l77 -128q-58 -56 -153.5 -94.5t-229.5 -38.5q-226 0 -359.5 150.5t-133.5 390.5zM192 1325v146h721v-146h-721z M298 654l2 -5h499v26q0 116 -62 194t-184 78q-99 0 -169 -83.5t-86 -209.5z" />
<glyph unicode="&#x114;" horiz-adv-x="1306" d="M71 0v126l163 28v1147l-163 28v127h1118v-350h-169l-16 195h-573v-471h557v-155h-557v-521h585l16 195h168v-349h-1129zM71 0zM348 1862l2 6h150q0 -65 34.5 -106.5t108.5 -41.5q72 0 107 41.5t35 106.5h151l2 -6q4 -116 -77 -189t-218 -73q-138 0 -219 73t-76 189z" />
<glyph unicode="&#x115;" horiz-adv-x="1101" d="M90 0zM90 520v44q0 231 137.5 384.5t325.5 153.5q218 0 330.5 -132t112.5 -352v-123h-702l-3 -5q3 -156 79 -256.5t213 -100.5q100 0 175.5 28.5t130.5 78.5l77 -128q-58 -56 -153.5 -94.5t-229.5 -38.5q-226 0 -359.5 150.5t-133.5 390.5zM252 1537l2 6h150 q0 -65 34.5 -106.5t108.5 -41.5q72 0 107 41.5t35 106.5h151l2 -6q4 -116 -77 -189t-218 -73q-138 0 -219 73t-76 189zM298 654l2 -5h499v26q0 116 -62 194t-184 78q-99 0 -169 -83.5t-86 -209.5z" />
<glyph unicode="&#x116;" horiz-adv-x="1306" d="M71 0v126l163 28v1147l-163 28v127h1118v-350h-169l-16 195h-573v-471h557v-155h-557v-521h585l16 195h168v-349h-1129zM71 0zM534 1603v201h217v-201h-217z" />
<glyph unicode="&#x117;" horiz-adv-x="1101" d="M90 0zM90 520v44q0 231 137.5 384.5t325.5 153.5q218 0 330.5 -132t112.5 -352v-123h-702l-3 -5q3 -156 79 -256.5t213 -100.5q100 0 175.5 28.5t130.5 78.5l77 -128q-58 -56 -153.5 -94.5t-229.5 -38.5q-226 0 -359.5 150.5t-133.5 390.5zM298 654l2 -5h499v26 q0 116 -62 194t-184 78q-99 0 -169 -83.5t-86 -209.5zM438 1278v201h217v-201h-217z" />
<glyph unicode="&#x118;" horiz-adv-x="1306" d="M71 0v126l163 28v1147l-163 28v127h1118v-350h-169l-16 195h-573v-471h557v-155h-557v-521h585l16 195h168v-349h-1129zM71 0zM399 -214q0 80 60.5 152t187.5 128l71 -57q-70 -52 -109.5 -99.5t-39.5 -101.5q0 -42 22.5 -66t73.5 -24q27 0 50 7.5t49 18.5l33 -123 q-36 -19 -79.5 -31.5t-103.5 -12.5q-94 0 -154.5 55t-60.5 154z" />
<glyph unicode="&#x119;" horiz-adv-x="1101" d="M90 0zM90 520v44q0 231 137.5 384.5t325.5 153.5q218 0 330.5 -132t112.5 -352v-123h-702l-3 -5q3 -156 79 -256.5t213 -100.5q100 0 175.5 28.5t130.5 78.5l77 -128q-58 -56 -153.5 -94.5t-229.5 -38.5q-226 0 -359.5 150.5t-133.5 390.5zM298 654l2 -5h499v26 q0 116 -62 194t-184 78q-99 0 -169 -83.5t-86 -209.5zM534 -165q0 80 60.5 152t187.5 128l71 -57q-70 -52 -109.5 -99.5t-39.5 -101.5q0 -42 22.5 -66t73.5 -24q27 0 50 7.5t49 18.5l33 -123q-36 -19 -79.5 -31.5t-103.5 -12.5q-94 0 -154.5 55t-60.5 154z" />
<glyph unicode="&#x11a;" horiz-adv-x="1306" d="M71 0v126l163 28v1147l-163 28v127h1118v-350h-169l-16 195h-573v-471h557v-155h-557v-521h585l16 195h168v-349h-1129zM71 0zM337 1825v20h166l146 -148l147 148h170v-18l-257 -245h-119z" />
<glyph unicode="&#x11b;" horiz-adv-x="1101" d="M90 0zM90 520v44q0 231 137.5 384.5t325.5 153.5q218 0 330.5 -132t112.5 -352v-123h-702l-3 -5q3 -156 79 -256.5t213 -100.5q100 0 175.5 28.5t130.5 78.5l77 -128q-58 -56 -153.5 -94.5t-229.5 -38.5q-226 0 -359.5 150.5t-133.5 390.5zM241 1500v20h166l146 -148 l147 148h170v-18l-257 -245h-119zM298 654l2 -5h499v26q0 116 -62 194t-184 78q-99 0 -169 -83.5t-86 -209.5z" />
<glyph unicode="&#x11c;" horiz-adv-x="1387" d="M55 0zM55 716v24q0 329 182.5 533t485.5 204q162 0 284.5 -50.5t206.5 -133.5v-264h-138l-48 201q-49 40 -118.5 66t-166.5 26q-236 0 -363.5 -161.5t-127.5 -418.5v-26q0 -261 123.5 -422t340.5 -161q119 0 195 25t122 55v319l-239 10v145h436v-522q-64 -67 -189 -126.5 t-325 -59.5q-292 0 -476.5 205t-184.5 532zM413 1587v26l246 237h119l248 -238v-25h-161l-147 148l-145 -148h-160z" />
<glyph unicode="&#x11d;" horiz-adv-x="1159" d="M90 0zM90 500v21q0 261 114 421t315 160q102 0 179 -40t129 -116l18 136h166v-1068q0 -210 -117 -330.5t-333 -120.5q-78 0 -169 21.5t-160 58.5l51 153q55 -29 130 -48t146 -19q132 0 193.5 74t61.5 211v103q-53 -68 -127 -103t-170 -35q-199 0 -313 144t-114 377z M284 1263v26l246 237h119l248 -238v-25h-161l-147 148l-145 -148h-160zM287 500q0 -163 69 -262t210 -99q89 0 149 40.5t99 114.5v498q-38 69 -99 109.5t-147 40.5q-141 0 -211 -118t-70 -303v-21z" />
<glyph unicode="&#x11e;" horiz-adv-x="1387" d="M55 0zM55 716v24q0 329 182.5 533t485.5 204q162 0 284.5 -50.5t206.5 -133.5v-264h-138l-48 201q-49 40 -118.5 66t-166.5 26q-236 0 -363.5 -161.5t-127.5 -418.5v-26q0 -261 123.5 -422t340.5 -161q119 0 195 25t122 55v319l-239 10v145h436v-522q-64 -67 -189 -126.5 t-325 -59.5q-292 0 -476.5 205t-184.5 532zM415 1861l2 6h150q0 -65 34.5 -106.5t108.5 -41.5q72 0 107 41.5t35 106.5h151l2 -6q4 -116 -77 -189t-218 -73q-138 0 -219 73t-76 189z" />
<glyph unicode="&#x11f;" horiz-adv-x="1159" d="M90 0zM90 500v21q0 261 114 421t315 160q102 0 179 -40t129 -116l18 136h166v-1068q0 -210 -117 -330.5t-333 -120.5q-78 0 -169 21.5t-160 58.5l51 153q55 -29 130 -48t146 -19q132 0 193.5 74t61.5 211v103q-53 -68 -127 -103t-170 -35q-199 0 -313 144t-114 377z M286 1537l2 6h150q0 -65 34.5 -106.5t108.5 -41.5q72 0 107 41.5t35 106.5h151l2 -6q4 -116 -77 -189t-218 -73q-138 0 -219 73t-76 189zM287 500q0 -163 69 -262t210 -99q89 0 149 40.5t99 114.5v498q-38 69 -99 109.5t-147 40.5q-141 0 -211 -118t-70 -303v-21z" />
<glyph unicode="&#x120;" horiz-adv-x="1387" d="M55 0zM55 716v24q0 329 182.5 533t485.5 204q162 0 284.5 -50.5t206.5 -133.5v-264h-138l-48 201q-49 40 -118.5 66t-166.5 26q-236 0 -363.5 -161.5t-127.5 -418.5v-26q0 -261 123.5 -422t340.5 -161q119 0 195 25t122 55v319l-239 10v145h436v-522q-64 -67 -189 -126.5 t-325 -59.5q-292 0 -476.5 205t-184.5 532zM601 1602v201h217v-201h-217z" />
<glyph unicode="&#x121;" horiz-adv-x="1159" d="M90 0zM90 500v21q0 261 114 421t315 160q102 0 179 -40t129 -116l18 136h166v-1068q0 -210 -117 -330.5t-333 -120.5q-78 0 -169 21.5t-160 58.5l51 153q55 -29 130 -48t146 -19q132 0 193.5 74t61.5 211v103q-53 -68 -127 -103t-170 -35q-199 0 -313 144t-114 377z M287 500q0 -163 69 -262t210 -99q89 0 149 40.5t99 114.5v498q-38 69 -99 109.5t-147 40.5q-141 0 -211 -118t-70 -303v-21zM472 1278v201h217v-201h-217z" />
<glyph unicode="&#x122;" horiz-adv-x="1387" d="M55 0zM55 716v24q0 329 182.5 533t485.5 204q162 0 284.5 -50.5t206.5 -133.5v-264h-138l-48 201q-49 40 -118.5 66t-166.5 26q-236 0 -363.5 -161.5t-127.5 -418.5v-26q0 -261 123.5 -422t340.5 -161q119 0 195 25t122 55v319l-239 10v145h436v-522q-64 -67 -189 -126.5 t-325 -59.5q-292 0 -476.5 205t-184.5 532zM486 -541q47 71 70.5 144.5t23.5 159.5v119h188v-116q0 -102 -44.5 -207t-126.5 -174z" />
<glyph unicode="&#x123;" horiz-adv-x="1159" d="M90 0zM90 500v21q0 261 114 421t315 160q102 0 179 -40t129 -116l18 136h166v-1068q0 -210 -117 -330.5t-333 -120.5q-78 0 -169 21.5t-160 58.5l51 153q55 -29 130 -48t146 -19q132 0 193.5 74t61.5 211v103q-53 -68 -127 -103t-170 -35q-199 0 -313 144t-114 377z M287 500q0 -163 69 -262t210 -99q89 0 149 40.5t99 114.5v498q-38 69 -99 109.5t-147 40.5q-141 0 -211 -118t-70 -303v-21zM484 1250v148l121 247h97l-21 -257v-138h-197z" />
<glyph unicode="&#x124;" horiz-adv-x="1573" d="M71 0v126l163 28v1147l-163 28v127h523v-127l-163 -28v-503h706v503l-163 28v127h163h197h163v-127l-163 -28v-1147l163 -28v-126h-523v126l163 28v489h-706v-489l163 -28v-126h-523zM71 0zM471 1586v26l246 237h119l248 -238v-25h-161l-147 148l-145 -148h-160z" />
<glyph unicode="&#x125;" horiz-adv-x="1322" d="M62 0v126l163 28v1251l-163 28v127h360v-622q56 78 137 121t180 43q174 0 270 -104t96 -320v-524l163 -28v-126h-523v126l163 28v526q0 134 -57.5 198t-171.5 64q-81 0 -147.5 -38.5t-109.5 -104.5v-645l163 -28v-126h-523zM62 0zM251 1587v26l246 237h119l248 -238v-25 h-161l-147 148l-145 -148h-160z" />
<glyph unicode="&#x126;" horiz-adv-x="1527" d="M46 0v126l163 28v801h-161v145h161v201l-163 28v127h523v-127l-163 -28v-201h706v201l-163 28v127h163h197h163v-127l-163 -28v-201h131v-145h-131v-801l163 -28v-126h-523v126l163 28v489h-706v-489l163 -28v-126h-523zM406 798h706v157h-706v-157z" />
<glyph unicode="&#x127;" horiz-adv-x="1352" d="M51 1154v155h204v96l-163 28v127h360v-251h240v-155h-240v-216q56 78 137 121t180 43q174 0 270 -104t96 -320v-524l163 -28v-126h-523v126l163 28v526q0 134 -57.5 198t-171.5 64q-81 0 -147.5 -38.5t-109.5 -104.5v-645l163 -28v-126h-523v126l163 28v1000h-204z" />
<glyph unicode="&#x128;" horiz-adv-x="662" d="M-17 1626q0 93 58.5 161.5t149.5 68.5q56 0 140 -47t136 -47q41 0 71 32.5t30 79.5l108 -32q0 -94 -59.5 -159t-149.5 -65q-71 0 -148 46.5t-128 46.5q-42 0 -71.5 -32.5t-29.5 -78.5zM0 0zM70 0v126l163 28v1147l-163 28v127h523v-127l-163 -28v-1147l163 -28v-126h-523 z" />
<glyph unicode="&#x129;" horiz-adv-x="672" d="M-9 1302q0 93 58.5 161.5t149.5 68.5q56 0 140 -47t136 -47q41 0 71 32.5t30 79.5l108 -32q0 -94 -59.5 -159t-149.5 -65q-71 0 -148 46.5t-128 46.5q-42 0 -71.5 -32.5t-29.5 -78.5zM0 0zM90 0v126l163 28v773l-163 28v127h360v-928l163 -28v-126h-523z" />
<glyph unicode="&#x12a;" horiz-adv-x="662" d="M-25 1648v146h721v-146h-721zM0 0zM70 0v126l163 28v1147l-163 28v127h523v-127l-163 -28v-1147l163 -28v-126h-523z" />
<glyph unicode="&#x12b;" horiz-adv-x="672" d="M-17 1324v146h721v-146h-721zM0 0zM90 0v126l163 28v773l-163 28v127h360v-928l163 -28v-126h-523z" />
<glyph unicode="&#x12c;" horiz-adv-x="662" d="M30 0zM35 1860l2 6h150q0 -65 34.5 -106.5t108.5 -41.5q72 0 107 41.5t35 106.5h151l2 -6q4 -116 -77 -189t-218 -73q-138 0 -219 73t-76 189zM70 0v126l163 28v1147l-163 28v127h523v-127l-163 -28v-1147l163 -28v-126h-523z" />
<glyph unicode="&#x12d;" horiz-adv-x="672" d="M38 0zM43 1536l2 6h150q0 -65 34.5 -106.5t108.5 -41.5q72 0 107 41.5t35 106.5h151l2 -6q4 -116 -77 -189t-218 -73q-138 0 -219 73t-76 189zM90 0v126l163 28v773l-163 28v127h360v-928l163 -28v-126h-523z" />
<glyph unicode="&#x12e;" horiz-adv-x="662" d="M70 0v126l163 28v1147l-163 28v127h523v-127l-163 -28v-1147l163 -28v-126h-523zM70 0zM274 -223q0 80 60.5 152t187.5 128l71 -57q-70 -52 -109.5 -99.5t-39.5 -101.5q0 -42 22.5 -66t73.5 -24q27 0 50 7.5t49 18.5l33 -123q-36 -19 -79.5 -31.5t-103.5 -12.5 q-94 0 -154.5 55t-60.5 154z" />
<glyph unicode="&#x12f;" horiz-adv-x="673" d="M89 0v126l163 28v773l-163 28v127h360v-928l163 -28v-126h-523zM89 0zM252 1359v201h197v-201h-197zM293 -223q0 80 60.5 152t187.5 128l71 -57q-70 -52 -109.5 -99.5t-39.5 -101.5q0 -42 22.5 -66t73.5 -24q27 0 50 7.5t49 18.5l33 -123q-36 -19 -79.5 -31.5 t-103.5 -12.5q-94 0 -154.5 55t-60.5 154z" />
<glyph unicode="&#x130;" horiz-adv-x="662" d="M70 0v126l163 28v1147l-163 28v127h523v-127l-163 -28v-1147l163 -28v-126h-523zM70 0zM220 1601v201h217v-201h-217z" />
<glyph unicode="&#x131;" horiz-adv-x="672" d="M90 0v126l163 28v773l-163 28v127h360v-928l163 -28v-126h-523z" />
<glyph unicode="&#x132;" horiz-adv-x="1845" d="M70 0v126l163 28v1147l-163 28v127h523v-127l-163 -28v-1147l163 -28v-126h-523zM70 0zM726 395l2 6h189q0 -135 68.5 -201.5t193.5 -66.5q109 0 178 73.5t69 196.5v898l-163 28v127h360h163v-127l-163 -28v-898q0 -195 -123.5 -309.5t-320.5 -114.5q-210 0 -334 106.5 t-119 309.5z" />
<glyph unicode="&#x133;" horiz-adv-x="1244" d="M89 0v126l163 28v773l-163 28v127h360v-928l163 -28v-126h-523zM89 0zM252 1359v201h197v-201h-197zM660 -419l13 155q14 -5 41 -8.5t44 -3.5q65 0 103.5 44t38.5 143v1016l-163 28v127h360v-1171q0 -167 -86 -257.5t-239 -90.5q-32 0 -58 4.5t-54 13.5zM894 1363v197 h197v-197h-197z" />
<glyph unicode="&#x134;" horiz-adv-x="1183" d="M59 0zM64 395l2 6h189q0 -135 68.5 -201.5t193.5 -66.5q109 0 178 73.5t69 196.5v898l-163 28v127h360h163v-127l-163 -28v-898q0 -195 -123.5 -309.5t-320.5 -114.5q-210 0 -334 106.5t-119 309.5zM551 1576v26l246 237h119l248 -238v-25h-161l-147 148l-145 -148h-160z " />
<glyph unicode="&#x135;" horiz-adv-x="579" d="M-4 -419l13 150q14 -5 47.5 -9t51.5 -4q59 0 93.5 51.5t34.5 141.5v1016l-163 28v127h360v-1171q0 -167 -86 -257.5t-239 -90.5q-32 0 -58 4.5t-54 13.5zM0 0zM24 1261v26l246 237h119l248 -238v-25h-161l-147 148l-145 -148h-160z" />
<glyph unicode="&#x136;" horiz-adv-x="1452" d="M71 0v126l163 28v1147l-163 28v127h523v-127l-163 -28v-489h151l407 503l-109 14v127h462v-127l-137 -25l-445 -552l486 -601l137 -25v-126h-478v126l111 14l-415 517h-170v-503l163 -28v-126h-523zM71 0zM476 -525q47 71 70.5 144.5t23.5 159.5v119h188v-116 q0 -102 -44.5 -207t-126.5 -174z" />
<glyph unicode="&#x137;" horiz-adv-x="1245" d="M62 0v126l163 28v1251l-163 28v127h360v-904h126l231 286l-99 13v127h453v-127l-132 -26l-285 -340l347 -439l123 -24v-126h-449v126l101 13l-287 360h-129v-345l163 -28v-126h-523zM62 0zM402 -522q47 71 70.5 144.5t23.5 159.5v119h188v-116q0 -102 -44.5 -207 t-126.5 -174z" />
<glyph unicode="&#x138;" horiz-adv-x="1257" d="M62 0v126l163 28v773l-154 28v126h351v-425h126l252 287l-90 12v127h452v-127l-132 -26l-311 -343l344 -436l123 -24v-126h-237l-398 499h-129v-345l163 -28v-126h-523z" />
<glyph unicode="&#x139;" horiz-adv-x="1199" d="M71 0v126l163 28v1147l-163 28v127h163h197h163v-127l-163 -28v-1147h506l15 167h168v-321h-1049zM71 0zM210 1551l184 266h230l2 -6l-269 -260h-147z" />
<glyph unicode="&#x13a;" horiz-adv-x="645" d="M62 0v126l163 28v1251l-163 28v127h360v-1406l163 -28v-126h-523zM62 0zM186 1618l184 266h230l2 -6l-269 -260h-147z" />
<glyph unicode="&#x13b;" horiz-adv-x="1199" d="M71 0v126l163 28v1147l-163 28v127h163h197h163v-127l-163 -28v-1147h506l15 167h168v-321h-1049zM71 0zM469 -522q47 71 70.5 144.5t23.5 159.5v119h188v-116q0 -102 -44.5 -207t-126.5 -174z" />
<glyph unicode="&#x13c;" horiz-adv-x="645" d="M62 0v126l163 28v1251l-163 28v127h360v-1406l163 -28v-126h-523zM62 0zM135 -532q47 71 70.5 144.5t23.5 159.5v119h188v-116q0 -102 -44.5 -207t-126.5 -174z" />
<glyph unicode="&#x13d;" horiz-adv-x="1199" d="M71 0v126l163 28v1147l-163 28v127h163h197h163v-127l-163 -28v-1147h506l15 167h168v-321h-1049zM71 0zM571 1034q47 71 70.5 144.5t23.5 159.5v119h188v-116q0 -102 -44.5 -207t-126.5 -174z" />
<glyph unicode="&#x13e;" horiz-adv-x="795" d="M62 0v126l163 28v1251l-163 28v127h360v-1406l163 -28v-126h-523zM62 0zM453 1137q47 71 70.5 144.5t23.5 159.5v119h188v-116q0 -102 -44.5 -207t-126.5 -174z" />
<glyph unicode="&#x13f;" horiz-adv-x="1199" d="M71 0v126l163 28v1147l-163 28v127h163h197h163v-127l-163 -28v-1147h506l15 167h168v-321h-1049zM71 0zM628 687v201h217v-201h-217z" />
<glyph unicode="&#x140;" horiz-adv-x="865" d="M62 0v126l163 28v1251l-163 28v127h360v-1406l163 -28v-126h-523zM62 0zM511 670v201h217v-201h-217z" />
<glyph unicode="&#x141;" horiz-adv-x="1199" d="M71 0v126l163 28v471l-154 -49v165l154 49v511l-163 28v127h523v-127l-163 -28v-449l238 76v-165l-238 -76v-533h506l15 167h168v-321h-1049z" />
<glyph unicode="&#x142;" horiz-adv-x="645" d="M62 0v126l163 28v479l-144 -55v165l144 55v607l-163 28v127h163h197v-687l149 57v-165l-149 -57v-554l163 -28v-126h-523z" />
<glyph unicode="&#x143;" horiz-adv-x="1560" d="M71 0v126l163 28v1147l-163 28v127h163h197l700 -1123l6 2v966l-163 28v127h360h163v-127l-163 -28v-1301h-197l-700 1124l-6 -2v-968l163 -28v-126h-523zM71 0zM625 1557l184 266h230l2 -6l-269 -260h-147z" />
<glyph unicode="&#x144;" horiz-adv-x="1318" d="M60 0v126l163 28v773l-163 28v127h339l14 -161q54 86 135.5 133.5t185.5 47.5q175 0 271 -102.5t96 -316.5v-529l163 -28v-126h-523v126l163 28v525q0 143 -56.5 203t-172.5 60q-85 0 -150.5 -41t-104.5 -112v-635l163 -28v-126h-523zM60 0zM543 1232l184 266h230l2 -6 l-269 -260h-147z" />
<glyph unicode="&#x145;" horiz-adv-x="1560" d="M71 0v126l163 28v1147l-163 28v127h163h197l700 -1123l6 2v966l-163 28v127h360h163v-127l-163 -28v-1301h-197l-700 1124l-6 -2v-968l163 -28v-126h-523zM71 0zM569 -522q47 71 70.5 144.5t23.5 159.5v119h188v-116q0 -102 -44.5 -207t-126.5 -174z" />
<glyph unicode="&#x146;" horiz-adv-x="1318" d="M60 0v126l163 28v773l-163 28v127h339l14 -161q54 86 135.5 133.5t185.5 47.5q175 0 271 -102.5t96 -316.5v-529l163 -28v-126h-523v126l163 28v525q0 143 -56.5 203t-172.5 60q-85 0 -150.5 -41t-104.5 -112v-635l163 -28v-126h-523zM60 0zM463 -527q47 71 70.5 144.5 t23.5 159.5v119h188v-116q0 -102 -44.5 -207t-126.5 -174z" />
<glyph unicode="&#x147;" horiz-adv-x="1560" d="M71 0v126l163 28v1147l-163 28v127h163h197l700 -1123l6 2v966l-163 28v127h360h163v-127l-163 -28v-1301h-197l-700 1124l-6 -2v-968l163 -28v-126h-523zM71 0zM437 1825v20h166l146 -148l147 148h170v-18l-257 -245h-119z" />
<glyph unicode="&#x148;" horiz-adv-x="1318" d="M60 0v126l163 28v773l-163 28v127h339l14 -161q54 86 135.5 133.5t185.5 47.5q175 0 271 -102.5t96 -316.5v-529l163 -28v-126h-523v126l163 28v525q0 143 -56.5 203t-172.5 60q-85 0 -150.5 -41t-104.5 -112v-635l163 -28v-126h-523zM60 0zM355 1500v20h166l146 -148 l147 148h170v-18l-257 -245h-119z" />
<glyph unicode="&#x149;" horiz-adv-x="1318" d="M-83 1137q47 71 70.5 144.5t23.5 159.5v119h188v-116q0 -102 -44.5 -207t-126.5 -174zM0 0zM60 0v126l163 28v773l-163 28v127h339l14 -161q54 86 135.5 133.5t185.5 47.5q175 0 271 -102.5t96 -316.5v-529l163 -28v-126h-523v126l163 28v525q0 143 -56.5 203t-172.5 60 q-85 0 -150.5 -41t-104.5 -112v-635l163 -28v-126h-523z" />
<glyph unicode="&#x14a;" horiz-adv-x="1559" d="M70 0v126l163 28v1147l-163 28v127h360l700 -1112l6 2v955l-163 28v127h163h197h163v-127l-163 -28v-1390q0 -167 -86 -257.5t-240 -90.5q-31 0 -57 4.5t-55 13.5l14 150q13 -5 47 -9t51 -4q61 0 95 51.5t34 141.5v89l-700 1112l-6 -2v-956l163 -28v-126h-523z" />
<glyph unicode="&#x14b;" horiz-adv-x="1263" d="M90 0v126l163 28v773l-163 28v127h339l13 -149q54 80 134 124.5t180 44.5q174 0 270.5 -102.5t96.5 -316.5v-772q0 -167 -86.5 -257.5t-239.5 -90.5q-32 0 -58.5 4.5t-54.5 13.5l14 160q13 -5 47 -8.5t52 -3.5q61 0 95 47t34 135v768q0 143 -57 203t-174 60 q-85 0 -146 -32.5t-99 -91.5v-664l163 -28v-126h-523z" />
<glyph unicode="&#x14c;" horiz-adv-x="1445" d="M79 0zM79 717v21q0 317 176 528t458 211q290 0 472.5 -211t182.5 -528v-21q0 -318 -182.5 -528t-472.5 -210q-282 0 -458 210t-176 528zM276 717q0 -256 115.5 -416.5t321.5 -160.5q218 0 338 160t120 417v23q0 254 -121.5 414.5t-336.5 160.5q-206 0 -321.5 -161 t-115.5 -414v-23zM356 1649v146h721v-146h-721z" />
<glyph unicode="&#x14d;" horiz-adv-x="1149" d="M90 0zM90 529v22q0 240 130 395.5t353 155.5q224 0 354.5 -155t130.5 -396v-22q0 -242 -130 -396t-353 -154q-225 0 -355 154.5t-130 395.5zM210 1325v146h721v-146h-721zM287 529q0 -172 72.5 -284t215.5 -112q140 0 213 112t73 284v22q0 170 -73 283t-215 113 t-214 -113t-72 -283v-22z" />
<glyph unicode="&#x14e;" horiz-adv-x="1445" d="M79 0zM79 717v21q0 317 176 528t458 211q290 0 472.5 -211t182.5 -528v-21q0 -318 -182.5 -528t-472.5 -210q-282 0 -458 210t-176 528zM276 717q0 -256 115.5 -416.5t321.5 -160.5q218 0 338 160t120 417v23q0 254 -121.5 414.5t-336.5 160.5q-206 0 -321.5 -161 t-115.5 -414v-23zM416 1861l2 6h150q0 -65 34.5 -106.5t108.5 -41.5q72 0 107 41.5t35 106.5h151l2 -6q4 -116 -77 -189t-218 -73q-138 0 -219 73t-76 189z" />
<glyph unicode="&#x14f;" horiz-adv-x="1149" d="M90 0zM90 529v22q0 240 130 395.5t353 155.5q224 0 354.5 -155t130.5 -396v-22q0 -242 -130 -396t-353 -154q-225 0 -355 154.5t-130 395.5zM270 1537l2 6h150q0 -65 34.5 -106.5t108.5 -41.5q72 0 107 41.5t35 106.5h151l2 -6q4 -116 -77 -189t-218 -73q-138 0 -219 73 t-76 189zM287 529q0 -172 72.5 -284t215.5 -112q140 0 213 112t73 284v22q0 170 -73 283t-215 113t-214 -113t-72 -283v-22z" />
<glyph unicode="&#x150;" horiz-adv-x="1445" d="M79 0zM79 717v21q0 317 176 528t458 211q290 0 472.5 -211t182.5 -528v-21q0 -318 -182.5 -528t-472.5 -210q-282 0 -458 210t-176 528zM276 717q0 -256 115.5 -416.5t321.5 -160.5q218 0 338 160t120 417v23q0 254 -121.5 414.5t-336.5 160.5q-206 0 -321.5 -161 t-115.5 -414v-23zM487 1600l184 266h211l2 -5l-240 -261h-157zM756 1605l241 261h228l3 -6l-299 -260h-171z" />
<glyph unicode="&#x151;" horiz-adv-x="1149" d="M90 0zM90 529v22q0 240 130 395.5t353 155.5q224 0 354.5 -155t130.5 -396v-22q0 -242 -130 -396t-353 -154q-225 0 -355 154.5t-130 395.5zM287 529q0 -172 72.5 -284t215.5 -112q140 0 213 112t73 284v22q0 170 -73 283t-215 113t-214 -113t-72 -283v-22zM341 1276 l184 266h211l2 -5l-240 -261h-157zM610 1281l241 261h228l3 -6l-299 -260h-171z" />
<glyph unicode="&#x152;" horiz-adv-x="1969" d="M114 576v304q0 265 154.5 431t403.5 166q69 0 140.5 -6t150.5 -15h910v-350h-169l-16 195h-573v-471h557v-155h-557v-521h585l16 195h168v-349h-921q-91 -10 -156.5 -15.5t-132.5 -5.5q-249 0 -404.5 166t-155.5 431zM311 576q0 -214 97 -328t266 -114q53 0 107 3.5 t107 11.5l30 5v1147l-53 9q-50 5 -98 8.5t-95 3.5q-169 0 -265 -113.5t-96 -326.5v-306z" />
<glyph unicode="&#x153;" horiz-adv-x="1898" d="M104 529v22q0 240 129.5 395.5t352.5 155.5q130 0 230.5 -55t164.5 -154q64 98 161.5 153.5t206.5 55.5q218 0 330.5 -132t112.5 -352v-123h-702l-3 -5q3 -156 78.5 -256.5t213.5 -100.5q100 0 175.5 28.5t130.5 78.5l77 -128q-59 -57 -153.5 -95t-229.5 -38 q-132 0 -234 53t-166 150q-64 -97 -163.5 -150t-227.5 -53q-224 0 -354 154.5t-130 395.5zM301 529q0 -172 72 -284t215 -112q141 0 214 112t73 284v22q0 170 -73.5 283t-215.5 113q-141 0 -213 -113t-72 -283v-22zM1094 654l2 -5h499v26q0 116 -62 194t-184 78 q-99 0 -169 -83.5t-86 -209.5z" />
<glyph unicode="&#x154;" horiz-adv-x="1386" d="M71 0v126l163 28v1147l-163 28v126h163h476q238 0 365 -105.5t127 -299.5q0 -106 -59 -188t-169 -129q119 -39 171.5 -127t52.5 -217v-117q0 -67 17 -99t56 -38l48 -6v-129h-106q-115 0 -163.5 80t-48.5 194v113q0 119 -69 191t-185 72h-316v-496l163 -28v-126h-523z M71 0zM431 805h259q165 0 240 63t75 184q0 115 -72 182t-223 67h-279v-496zM517 1557l184 266h230l2 -6l-269 -260h-147z" />
<glyph unicode="&#x155;" horiz-adv-x="847" d="M89 0v126l163 28v773l-163 28v127h339l19 -157q46 83 113.5 130t154.5 47q23 0 47.5 -3.5t37.5 -7.5l-26 -183l-112 6q-78 0 -131 -36.5t-82 -102.5v-621l163 -28v-126h-523zM89 0zM336 1235l184 266h230l2 -6l-269 -260h-147z" />
<glyph unicode="&#x156;" horiz-adv-x="1386" d="M71 0v126l163 28v1147l-163 28v126h163h476q238 0 365 -105.5t127 -299.5q0 -106 -59 -188t-169 -129q119 -39 171.5 -127t52.5 -217v-117q0 -67 17 -99t56 -38l48 -6v-129h-106q-115 0 -163.5 80t-48.5 194v113q0 119 -69 191t-185 72h-316v-496l163 -28v-126h-523z M71 0zM431 805h259q165 0 240 63t75 184q0 115 -72 182t-223 67h-279v-496zM558 -522q47 71 70.5 144.5t23.5 159.5v119h188v-116q0 -102 -44.5 -207t-126.5 -174z" />
<glyph unicode="&#x157;" horiz-adv-x="847" d="M89 0v126l163 28v773l-163 28v127h339l19 -157q46 83 113.5 130t154.5 47q23 0 47.5 -3.5t37.5 -7.5l-26 -183l-112 6q-78 0 -131 -36.5t-82 -102.5v-621l163 -28v-126h-523zM89 0zM124 -522q47 71 70.5 144.5t23.5 159.5v119h188v-116q0 -102 -44.5 -207t-126.5 -174z " />
<glyph unicode="&#x158;" horiz-adv-x="1386" d="M71 0v126l163 28v1147l-163 28v126h163h476q238 0 365 -105.5t127 -299.5q0 -106 -59 -188t-169 -129q119 -39 171.5 -127t52.5 -217v-117q0 -67 17 -99t56 -38l48 -6v-129h-106q-115 0 -163.5 80t-48.5 194v113q0 119 -69 191t-185 72h-316v-496l163 -28v-126h-523z M71 0zM329 1825v20h166l146 -148l147 148h170v-18l-257 -245h-119zM431 805h259q165 0 240 63t75 184q0 115 -72 182t-223 67h-279v-496z" />
<glyph unicode="&#x159;" horiz-adv-x="847" d="M89 0v126l163 28v773l-163 28v127h339l19 -157q46 83 113.5 130t154.5 47q23 0 47.5 -3.5t37.5 -7.5l-26 -183l-112 6q-78 0 -131 -36.5t-82 -102.5v-621l163 -28v-126h-523zM89 0zM148 1503v20h166l146 -148l147 148h170v-18l-257 -245h-119z" />
<glyph unicode="&#x15a;" horiz-adv-x="1247" d="M121 0zM121 178v271h148l38 -209q57 -47 136 -77t189 -30q149 0 235.5 63t86.5 171q0 100 -75 167.5t-265 113.5q-231 55 -361 162t-130 269q0 171 145 284.5t377 113.5q153 0 278.5 -52.5t201.5 -127.5v-271h-149l-37 208q-45 38 -120 63t-174 25q-157 0 -241 -66.5 t-84 -173.5q0 -95 85.5 -158.5t276.5 -111.5q230 -57 349.5 -168t119.5 -275q0 -176 -143.5 -283t-375.5 -107q-168 0 -298.5 55t-212.5 144zM499 1556l184 266h230l2 -6l-269 -260h-147z" />
<glyph unicode="&#x15b;" horiz-adv-x="1044" d="M118 0zM118 784q0 132 112.5 225t292.5 93q123 0 221 -32t163 -89l10 -239h-148l-32 130q-36 34 -90.5 54.5t-123.5 20.5q-105 0 -156 -46t-51 -111q0 -64 45 -101t183 -66q205 -44 305 -119.5t100 -202.5q0 -144 -116.5 -233t-304.5 -89q-123 0 -221 28.5t-175 82.5 l-1 247h148l37 -145q34 -31 92.5 -45t119.5 -14q105 0 164.5 42.5t59.5 111.5q0 65 -49.5 107t-187.5 73q-197 43 -297 117t-100 200zM409 1235l184 266h230l2 -6l-269 -260h-147z" />
<glyph unicode="&#x15c;" horiz-adv-x="1247" d="M121 0zM121 178v271h148l38 -209q57 -47 136 -77t189 -30q149 0 235.5 63t86.5 171q0 100 -75 167.5t-265 113.5q-231 55 -361 162t-130 269q0 171 145 284.5t377 113.5q153 0 278.5 -52.5t201.5 -127.5v-271h-149l-37 208q-45 38 -120 63t-174 25q-157 0 -241 -66.5 t-84 -173.5q0 -95 85.5 -158.5t276.5 -111.5q230 -57 349.5 -168t119.5 -275q0 -176 -143.5 -283t-375.5 -107q-168 0 -298.5 55t-212.5 144zM320 1587v26l246 237h119l248 -238v-25h-161l-147 148l-145 -148h-160z" />
<glyph unicode="&#x15d;" horiz-adv-x="1044" d="M118 0zM118 784q0 132 112.5 225t292.5 93q123 0 221 -32t163 -89l10 -239h-148l-32 130q-36 34 -90.5 54.5t-123.5 20.5q-105 0 -156 -46t-51 -111q0 -64 45 -101t183 -66q205 -44 305 -119.5t100 -202.5q0 -144 -116.5 -233t-304.5 -89q-123 0 -221 28.5t-175 82.5 l-1 247h148l37 -145q34 -31 92.5 -45t119.5 -14q105 0 164.5 42.5t59.5 111.5q0 65 -49.5 107t-187.5 73q-197 43 -297 117t-100 200zM230 1266v26l246 237h119l248 -238v-25h-161l-147 148l-145 -148h-160z" />
<glyph unicode="&#x15e;" horiz-adv-x="1247" d="M121 0zM121 178v271h148l38 -209q57 -47 136 -77t189 -30q149 0 235.5 63t86.5 171q0 100 -75 167.5t-265 113.5q-231 55 -361 162t-130 269q0 171 145 284.5t377 113.5q153 0 278.5 -52.5t201.5 -127.5v-271h-149l-37 208q-45 38 -120 63t-174 25q-157 0 -241 -66.5 t-84 -173.5q0 -95 85.5 -158.5t276.5 -111.5q230 -57 349.5 -168t119.5 -275q0 -176 -143.5 -283t-375.5 -107q-168 0 -298.5 55t-212.5 144zM495 -144l32 135h141l-12 -52q65 -11 108 -52t43 -121q0 -96 -79 -153t-226 -57l-7 109q72 0 115.5 24.5t43.5 73.5q0 48 -36 67 t-123 26z" />
<glyph unicode="&#x15f;" horiz-adv-x="1044" d="M118 0zM118 784q0 132 112.5 225t292.5 93q123 0 221 -32t163 -89l10 -239h-148l-32 130q-36 34 -90.5 54.5t-123.5 20.5q-105 0 -156 -46t-51 -111q0 -64 45 -101t183 -66q205 -44 305 -119.5t100 -202.5q0 -144 -116.5 -233t-304.5 -89q-123 0 -221 28.5t-175 82.5 l-1 247h148l37 -145q34 -31 92.5 -45t119.5 -14q105 0 164.5 42.5t59.5 111.5q0 65 -49.5 107t-187.5 73q-197 43 -297 117t-100 200zM422 -143l32 135h141l-12 -52q65 -11 108 -52t43 -121q0 -96 -79 -153t-226 -57l-7 109q72 0 115.5 24.5t43.5 73.5q0 48 -36 67t-123 26z " />
<glyph unicode="&#x160;" horiz-adv-x="1247" d="M121 0zM121 178v271h148l38 -209q57 -47 136 -77t189 -30q149 0 235.5 63t86.5 171q0 100 -75 167.5t-265 113.5q-231 55 -361 162t-130 269q0 171 145 284.5t377 113.5q153 0 278.5 -52.5t201.5 -127.5v-271h-149l-37 208q-45 38 -120 63t-174 25q-157 0 -241 -66.5 t-84 -173.5q0 -95 85.5 -158.5t276.5 -111.5q230 -57 349.5 -168t119.5 -275q0 -176 -143.5 -283t-375.5 -107q-168 0 -298.5 55t-212.5 144zM311 1824v20h166l146 -148l147 148h170v-18l-257 -245h-119z" />
<glyph unicode="&#x161;" horiz-adv-x="1044" d="M118 0zM118 784q0 132 112.5 225t292.5 93q123 0 221 -32t163 -89l10 -239h-148l-32 130q-36 34 -90.5 54.5t-123.5 20.5q-105 0 -156 -46t-51 -111q0 -64 45 -101t183 -66q205 -44 305 -119.5t100 -202.5q0 -144 -116.5 -233t-304.5 -89q-123 0 -221 28.5t-175 82.5 l-1 247h148l37 -145q34 -31 92.5 -45t119.5 -14q105 0 164.5 42.5t59.5 111.5q0 65 -49.5 107t-187.5 73q-197 43 -297 117t-100 200zM221 1503v20h166l146 -148l147 148h170v-18l-257 -245h-119z" />
<glyph unicode="&#x162;" horiz-adv-x="1284" d="M37 0zM37 1134v322h1210v-322h-168l-15 167h-323v-1147l163 -28v-126h-523v126l163 28v1147h-324l-14 -167h-169zM527 -135l32 135h141l-12 -52q65 -11 108 -52t43 -121q0 -96 -79 -153t-226 -57l-7 109q72 0 115.5 24.5t43.5 73.5q0 48 -36 67t-123 26z" />
<glyph unicode="&#x163;" horiz-adv-x="750" d="M65 0zM65 936v146h171v261h197v-261h205v-146h-205v-657q0 -76 31.5 -107t83.5 -31q26 0 58.5 4.5t54.5 9.5l27 -135q-28 -18 -82 -29.5t-108 -11.5q-120 0 -191 72.5t-71 227.5v657h-171zM348 -135l32 135h141l-12 -52q65 -11 108 -52t43 -121q0 -96 -79 -153t-226 -57 l-7 109q72 0 115.5 24.5t43.5 73.5q0 48 -36 67t-123 26z" />
<glyph unicode="&#x164;" horiz-adv-x="1284" d="M37 0zM37 1134v322h1210v-322h-168l-15 167h-323v-1147l163 -28v-126h-523v126l163 28v1147h-324l-14 -167h-169zM327 1822v20h166l146 -148l147 148h170v-18l-257 -245h-119z" />
<glyph unicode="&#x165;" horiz-adv-x="790" d="M65 0zM65 936v146h171v261h197v-261h205v-146h-205v-657q0 -76 31.5 -107t83.5 -31q26 0 58.5 4.5t54.5 9.5l27 -135q-28 -18 -82 -29.5t-108 -11.5q-120 0 -191 72.5t-71 227.5v657h-171zM552 1185q47 71 70.5 144.5t23.5 159.5v119h188v-116q0 -102 -44.5 -207 t-126.5 -174z" />
<glyph unicode="&#x166;" horiz-adv-x="1284" d="M37 1134v322h1210v-322h-168l-15 167h-323v-402h230v-155h-230v-590l163 -28v-126h-523v126l163 28v590h-214v155h214v402h-324l-14 -167h-169z" />
<glyph unicode="&#x167;" horiz-adv-x="750" d="M-2 600v155h238v181h-171v146h171v261h197v-261h205v-146h-205v-181h206v-155h-206v-321q0 -76 31.5 -107t83.5 -31q26 0 58.5 4.5t54.5 9.5l27 -135q-28 -18 -82 -29.5t-108 -11.5q-120 0 -191 72.5t-71 227.5v321h-238z" />
<glyph unicode="&#x168;" horiz-adv-x="1541" d="M60 0zM60 1329v127h163h360v-127l-163 -28v-832q0 -165 94 -250.5t248 -85.5q162 0 261 85t99 251v832l-163 28v127h360h163v-127l-163 -28v-832q0 -237 -154.5 -363.5t-402.5 -126.5q-241 0 -390 126.5t-149 363.5v832zM397 1627q0 93 58.5 161.5t149.5 68.5 q56 0 140 -47t136 -47q41 0 71 32.5t30 79.5l108 -32q0 -94 -59.5 -159t-149.5 -65q-71 0 -148 46.5t-128 46.5q-42 0 -71.5 -32.5t-29.5 -78.5z" />
<glyph unicode="&#x169;" horiz-adv-x="1244" d="M48 0zM48 955v127h124h197v-640q0 -173 51 -238t159 -65q105 0 173.5 42.5t103.5 120.5v625l-145 28v127h145h197v-928l124 -28v-126h-301l-13 160q-51 -87 -131.5 -134t-185.5 -47q-176 0 -275 113t-99 352v483zM230 1302q0 93 58.5 161.5t149.5 68.5q56 0 140 -47 t136 -47q41 0 71 32.5t30 79.5l108 -32q0 -94 -59.5 -159t-149.5 -65q-71 0 -148 46.5t-128 46.5q-42 0 -71.5 -32.5t-29.5 -78.5z" />
<glyph unicode="&#x16a;" horiz-adv-x="1541" d="M60 0zM60 1329v127h163h360v-127l-163 -28v-832q0 -165 94 -250.5t248 -85.5q162 0 261 85t99 251v832l-163 28v127h360h163v-127l-163 -28v-832q0 -237 -154.5 -363.5t-402.5 -126.5q-241 0 -390 126.5t-149 363.5v832zM389 1649v146h721v-146h-721z" />
<glyph unicode="&#x16b;" horiz-adv-x="1244" d="M48 0zM48 955v127h124h197v-640q0 -173 51 -238t159 -65q105 0 173.5 42.5t103.5 120.5v625l-145 28v127h145h197v-928l124 -28v-126h-301l-13 160q-51 -87 -131.5 -134t-185.5 -47q-176 0 -275 113t-99 352v483zM222 1324v146h721v-146h-721z" />
<glyph unicode="&#x16c;" horiz-adv-x="1541" d="M60 0zM60 1329v127h163h360v-127l-163 -28v-832q0 -165 94 -250.5t248 -85.5q162 0 261 85t99 251v832l-163 28v127h360h163v-127l-163 -28v-832q0 -237 -154.5 -363.5t-402.5 -126.5q-241 0 -390 126.5t-149 363.5v832zM449 1861l2 6h150q0 -65 34.5 -106.5t108.5 -41.5 q72 0 107 41.5t35 106.5h151l2 -6q4 -116 -77 -189t-218 -73q-138 0 -219 73t-76 189z" />
<glyph unicode="&#x16d;" horiz-adv-x="1244" d="M48 0zM48 955v127h124h197v-640q0 -173 51 -238t159 -65q105 0 173.5 42.5t103.5 120.5v625l-145 28v127h145h197v-928l124 -28v-126h-301l-13 160q-51 -87 -131.5 -134t-185.5 -47q-176 0 -275 113t-99 352v483zM282 1536l2 6h150q0 -65 34.5 -106.5t108.5 -41.5 q72 0 107 41.5t35 106.5h151l2 -6q4 -116 -77 -189t-218 -73q-138 0 -219 73t-76 189z" />
<glyph unicode="&#x16e;" horiz-adv-x="1541" d="M60 0zM60 1329v127h163h360v-127l-163 -28v-832q0 -165 94 -250.5t248 -85.5q162 0 261 85t99 251v832l-163 28v127h360h163v-127l-163 -28v-832q0 -237 -154.5 -363.5t-402.5 -126.5q-241 0 -390 126.5t-149 363.5v832zM550 1735q0 84 60.5 141t147.5 57q85 0 145 -56.5 t60 -141.5q0 -86 -60 -140t-145 -54q-87 0 -147.5 54t-60.5 140zM653 1735q0 -43 31 -73.5t74 -30.5q42 0 72 29.5t30 74.5t-30 76t-72 31q-44 0 -74.5 -31t-30.5 -76z" />
<glyph unicode="&#x16f;" horiz-adv-x="1244" d="M48 0zM48 955v127h124h197v-640q0 -173 51 -238t159 -65q105 0 173.5 42.5t103.5 120.5v625l-145 28v127h145h197v-928l124 -28v-126h-301l-13 160q-51 -87 -131.5 -134t-185.5 -47q-176 0 -275 113t-99 352v483zM383 1410q0 84 60.5 141t147.5 57q85 0 145 -56.5 t60 -141.5q0 -86 -60 -140t-145 -54q-87 0 -147.5 54t-60.5 140zM486 1410q0 -43 31 -73.5t74 -30.5q42 0 72 29.5t30 74.5t-30 76t-72 31q-44 0 -74.5 -31t-30.5 -76z" />
<glyph unicode="&#x170;" horiz-adv-x="1541" d="M60 0zM60 1329v127h163h360v-127l-163 -28v-832q0 -165 94 -250.5t248 -85.5q162 0 261 85t99 251v832l-163 28v127h360h163v-127l-163 -28v-832q0 -237 -154.5 -363.5t-402.5 -126.5q-241 0 -390 126.5t-149 363.5v832zM520 1600l184 266h211l2 -5l-240 -261h-157z M789 1605l241 261h228l3 -6l-299 -260h-171z" />
<glyph unicode="&#x171;" horiz-adv-x="1244" d="M48 0zM48 955v127h124h197v-640q0 -173 51 -238t159 -65q105 0 173.5 42.5t103.5 120.5v625l-145 28v127h145h197v-928l124 -28v-126h-301l-13 160q-51 -87 -131.5 -134t-185.5 -47q-176 0 -275 113t-99 352v483zM353 1275l184 266h211l2 -5l-240 -261h-157zM622 1280 l241 261h228l3 -6l-299 -260h-171z" />
<glyph unicode="&#x172;" horiz-adv-x="1541" d="M60 0zM60 1329v127h163h360v-127l-163 -28v-832q0 -165 94 -250.5t248 -85.5q162 0 261 85t99 251v832l-163 28v127h360h163v-127l-163 -28v-832q0 -237 -154.5 -363.5t-402.5 -126.5q-241 0 -390 126.5t-149 363.5v832zM500 -231q0 80 60.5 152t187.5 128l71 -57 q-70 -52 -109.5 -99.5t-39.5 -101.5q0 -42 22.5 -66t73.5 -24q27 0 50 7.5t49 18.5l33 -123q-36 -19 -79.5 -31.5t-103.5 -12.5q-94 0 -154.5 55t-60.5 154z" />
<glyph unicode="&#x173;" horiz-adv-x="1244" d="M48 0zM48 955v127h124h197v-640q0 -173 51 -238t159 -65q105 0 173.5 42.5t103.5 120.5v625l-145 28v127h145h197v-928l124 -28v-126h-301l-13 160q-51 -87 -131.5 -134t-185.5 -47q-176 0 -275 113t-99 352v483zM858 -223q0 80 60.5 152t187.5 128l71 -57 q-70 -52 -109.5 -99.5t-39.5 -101.5q0 -42 22.5 -66t73.5 -24q27 0 50 7.5t49 18.5l33 -123q-36 -19 -79.5 -31.5t-103.5 -12.5q-94 0 -154.5 55t-60.5 154z" />
<glyph unicode="&#x174;" horiz-adv-x="1910" d="M27 0zM27 1329v127h462v-127l-148 -23l187 -802l27 -182l6 -1l39 183l268 952h174l269 -952l40 -187h6l29 187l183 802l-149 23v127h463v-127l-117 -15l-317 -1314h-176l-288 1010l-26 131h-6l-25 -131l-292 -1010h-175l-317 1314zM633 1588v26l246 237h119l248 -238v-25 h-161l-147 148l-145 -148h-160z" />
<glyph unicode="&#x175;" horiz-adv-x="1693" d="M61 0zM61 955v127h412v-127l-124 -22l141 -539l23 -131h6l28 131l216 688h158l217 -688l31 -146h6l29 146l133 539l-126 22v127h412v-127l-94 -14l-273 -941h-159l-210 659l-45 182l-6 -1l-42 -181l-206 -659h-159l-273 941zM526 1262v26l246 237h119l248 -238v-25h-161 l-147 148l-145 -148h-160z" />
<glyph unicode="&#x176;" horiz-adv-x="1416" d="M55 0zM55 1329v127h500v-127l-157 -19l305 -594l305 594l-156 19v127h500v-127l-123 -19l-432 -798v-358l163 -28v-126h-522v126l163 28v373l-424 783zM394 1587v26l246 237h119l248 -238v-25h-161l-147 148l-145 -148h-160z" />
<glyph unicode="&#x177;" horiz-adv-x="1162" d="M35 0zM35 955v127h437v-127l-122 -20l187 -534l36 -138h6l225 672l-123 20v127h436v-127l-97 -15l-412 -1106q-41 -109 -118 -190t-207 -81q-23 0 -60 5.5t-57 10.5l20 155q-6 1 35.5 -2t52.5 -3q63 0 102 54.5t68 125.5l47 112l-357 918zM272 1262v26l246 237h119 l248 -238v-25h-161l-147 148l-145 -148h-160z" />
<glyph unicode="&#x178;" horiz-adv-x="1416" d="M55 0zM55 1329v127h500v-127l-157 -19l305 -594l305 594l-156 19v127h500v-127l-123 -19l-432 -798v-358l163 -28v-126h-522v126l163 28v373l-424 783zM337 1604v200h218v-200h-218zM807 1604v200h218v-200h-218z" />
<glyph unicode="&#x179;" horiz-adv-x="1220" d="M92 0v146l777 1155h-584l-14 -167h-169v322h993v-141l-782 -1161h631l16 167h168v-321h-1036zM92 0zM483 1557l184 266h230l2 -6l-269 -260h-147z" />
<glyph unicode="&#x17a;" horiz-adv-x="1084" d="M112 0v138l585 788h-396l-15 -166h-168v322h820v-134l-592 -794h442l16 167h167v-321h-859zM112 0zM421 1231l184 266h230l2 -6l-269 -260h-147z" />
<glyph unicode="&#x17b;" horiz-adv-x="1220" d="M92 0v146l777 1155h-584l-14 -167h-169v322h993v-141l-782 -1161h631l16 167h168v-321h-1036zM92 0zM492 1603v201h217v-201h-217z" />
<glyph unicode="&#x17c;" horiz-adv-x="1084" d="M112 0v138l585 788h-396l-15 -166h-168v322h820v-134l-592 -794h442l16 167h167v-321h-859zM112 0zM430 1277v201h217v-201h-217z" />
<glyph unicode="&#x17d;" horiz-adv-x="1220" d="M92 0v146l777 1155h-584l-14 -167h-169v322h993v-141l-782 -1161h631l16 167h168v-321h-1036zM92 0zM295 1825v20h166l146 -148l147 148h170v-18l-257 -245h-119z" />
<glyph unicode="&#x17e;" horiz-adv-x="1084" d="M112 0v138l585 788h-396l-15 -166h-168v322h820v-134l-592 -794h442l16 167h167v-321h-859zM112 0zM233 1499v20h166l146 -148l147 148h170v-18l-257 -245h-119z" />
<glyph unicode="&#x17f;" horiz-adv-x="734" d="M57 0v126l163 28v1065q0 173 90.5 267.5t252.5 94.5q34 0 68.5 -5.5t76.5 -15.5l-25 -145q-19 5 -41 8t-47 3q-87 0 -132.5 -54.5t-45.5 -152.5v-1065l163 -28v-126h-523z" />
<glyph unicode="&#x192;" horiz-adv-x="767" d="M-3 -419l13 150q14 -5 47.5 -9t51.5 -4q59 0 93.5 51.5t34.5 141.5v1025h-170v146h170v137q0 173 90 267.5t252 94.5q34 0 68.5 -5.5t76.5 -15.5l-24 -150q-18 4 -43.5 7t-52.5 3q-87 0 -128.5 -51.5t-41.5 -149.5v-137h196v-146h-196v-1025q0 -167 -86 -257.5 t-239 -90.5q-32 0 -58 4.5t-54 13.5z" />
<glyph unicode="&#x1a0;" horiz-adv-x="1486" d="M74 717v21q0 317 176 528t458 211q119 0 223 -39t187 -110q81 15 118 82.5t37 182.5h178q0 -150 -57.5 -247.5t-169.5 -135.5q67 -97 103 -217.5t36 -254.5v-21q0 -318 -182.5 -528t-472.5 -210q-282 0 -458 210t-176 528zM271 717q0 -256 115.5 -416.5t321.5 -160.5 q218 0 338 160t120 417v23q0 254 -121.5 414.5t-336.5 160.5q-206 0 -321.5 -161t-115.5 -414v-23z" />
<glyph unicode="&#x1a1;" horiz-adv-x="1288" d="M104 529v22q0 240 130 395.5t353 155.5q102 0 187 -35t148 -99q65 16 87 72.5t22 160.5h158q0 -136 -45 -221.5t-145 -117.5q35 -66 54 -145t19 -166v-22q0 -242 -130 -396t-353 -154q-225 0 -355 154.5t-130 395.5zM301 529q0 -172 72.5 -284t215.5 -112q140 0 213 112 t73 284v22q0 170 -73 283t-215 113t-214 -113t-72 -283v-22z" />
<glyph unicode="&#x1af;" horiz-adv-x="1715" d="M14 1329v127h163h361v-127l-163 -28v-832q0 -165 94 -250.5t248 -85.5q162 0 261 85.5t99 250.5v832l-163 28v127h360v-205l6 -1q124 1 174 76t50 223h171l2 -5q3 -209 -94.5 -321.5t-308.5 -119.5v-634q0 -237 -154.5 -363.5t-402.5 -126.5q-241 0 -390.5 126.5 t-149.5 363.5v832z" />
<glyph unicode="&#x1b0;" horiz-adv-x="1439" d="M63 955v127h124h197v-640q0 -173 51 -238t159 -65q105 0 173.5 42.5t103.5 120.5v625l-145 28v127h342v-130l6 -2q103 -1 131.5 47.5t28.5 170.5h134l2 -5q3 -164 -63.5 -243.5t-238.5 -84.5v-681l124 -28v-126h-301l-13 160q-51 -87 -131.5 -134t-185.5 -47 q-176 0 -275 113t-99 352v483z" />
<glyph unicode="&#x1f0;" horiz-adv-x="579" d="M-4 -419l13 150q14 -5 47.5 -9t51.5 -4q59 0 93.5 51.5t34.5 141.5v1016l-163 28v127h360v-1171q0 -167 -86 -257.5t-239 -90.5q-32 0 -58 4.5t-54 13.5zM0 0zM15 1498v20h166l146 -148l147 148h170v-18l-257 -245h-119z" />
<glyph unicode="&#x1fa;" d="M55 0v126l108 15l509 1315h169l500 -1315l107 -15v-126h-418v126l110 19l-96 268h-583l-99 -268l110 -19v-126h-417zM55 0zM522 578h462l-226 625h-6zM587 1553q0 72 51 119.5t123 47.5q71 0 121 -47.5t50 -119.5t-50 -118t-121 -46q-73 0 -123.5 46t-50.5 118zM674 1553 q0 -35 25.5 -59.5t61.5 -24.5q34 0 58.5 24t24.5 60q0 37 -24.5 62.5t-58.5 25.5q-36 0 -61.5 -25.5t-25.5 -62.5zM718 1769l143 183h190l2 -6l-216 -177h-119z" />
<glyph unicode="&#x1fb;" horiz-adv-x="1128" d="M104 0zM104 294q0 154 124.5 237.5t341.5 83.5h203v126q0 95 -60 150.5t-167 55.5q-74 0 -130.5 -19t-91.5 -52l-21 -114h-152v210q74 59 179 94.5t228 35.5q184 0 298 -94t114 -269v-521q0 -21 0.5 -41t2.5 -40l80 -11v-126h-258q-9 44 -14 79t-7 70 q-57 -73 -142.5 -121.5t-182.5 -48.5q-169 0 -257 82.5t-88 232.5zM301 290q0 -71 44 -108.5t133 -37.5q98 0 179 47t116 113v178h-210q-121 0 -191.5 -56t-70.5 -136zM385 1230q0 72 51 119.5t123 47.5q71 0 121 -47.5t50 -119.5t-50 -118t-121 -46q-73 0 -123.5 46 t-50.5 118zM472 1230q0 -35 25.5 -59.5t61.5 -24.5q34 0 58.5 24t24.5 60q0 37 -24.5 62.5t-58.5 25.5q-36 0 -61.5 -25.5t-25.5 -62.5zM516 1446l143 183h190l2 -6l-216 -177h-119z" />
<glyph unicode="&#x1fc;" horiz-adv-x="2096" d="M51 0v126l141 20l793 1310h967v-322h-168l-15 167h-508l20 -466h590v-155h-584l22 -526h522l16 167h167v-321h-1058v126l156 27l-8 197h-556l-121 -210l82 -14v-126h-458zM51 0zM651 529h446l-31 710l-5 2zM1017 1555l184 266h230l2 -6l-269 -260h-147z" />
<glyph unicode="&#x1fd;" horiz-adv-x="1795" d="M97 0zM97 304q0 158 114.5 244.5t334.5 86.5h229v85q0 106 -51.5 166.5t-149.5 60.5q-103 0 -164 -55t-61 -133l-188 18l-2 6q-5 138 110 228.5t305 90.5q115 0 202 -40.5t137 -117.5q64 75 151.5 116.5t189.5 41.5q214 0 329.5 -130t115.5 -358v-119h-710l-2 -5 q1 -159 79.5 -258t233.5 -99q104 0 170 27.5t144 78.5l68 -138q-55 -45 -149 -83.5t-233 -38.5q-135 0 -239 48.5t-170 137.5q-56 -79 -168 -132.5t-271 -53.5q-170 0 -262.5 87t-92.5 238zM294 300q0 -74 50 -120.5t147 -46.5q76 0 158.5 43t125.5 100v217h-227 q-120 0 -187 -56t-67 -137zM744 1232l184 266h230l2 -6l-269 -260h-147zM991 645l2 -5h509v31q0 122 -60 199t-188 77q-114 0 -183 -84.5t-80 -217.5z" />
<glyph unicode="&#x1fe;" horiz-adv-x="1404" d="M79 0zM79 717v21q0 317 176 528t458 211q87 0 166.5 -21.5t150.5 -61.5l73 123h149l-118 -199q111 -102 172.5 -252.5t61.5 -327.5v-21q0 -318 -182.5 -528t-472.5 -210q-90 0 -170.5 23t-149.5 67l-97 -163h-149l144 244q-102 101 -157 247.5t-55 319.5zM276 717 q0 -123 27.5 -226.5t80.5 -174.5h6l555 935q-50 31 -108 47.5t-124 16.5q-206 0 -321.5 -161t-115.5 -414v-23zM478 213q48 -36 107 -54.5t128 -18.5q218 0 338 160t120 417v23q0 129 -33 236.5t-94 180.5l-6 1zM560 1558l184 266h230l2 -6l-269 -260h-147z" />
<glyph unicode="&#x1ff;" horiz-adv-x="1149" d="M90 0zM90 529v22q0 240 130 395.5t353 155.5q55 0 105.5 -11t97.5 -30l73 148h129l-104 -210q88 -74 136 -190t48 -258v-22q0 -242 -130 -396t-353 -154q-52 0 -99 9t-89 25l-73 -148h-129l101 206q-95 72 -145.5 191t-50.5 267zM287 529q0 -89 19.5 -164t58.5 -123h6 l332 672q-28 16 -61 24.5t-69 8.5q-142 0 -214 -113t-72 -283v-22zM432 1232l184 266h230l2 -6l-269 -260h-147zM459 158q25 -13 54 -19t62 -6q140 0 213 112t73 284v22q0 81 -17.5 152t-50.5 119h-6z" />
<glyph unicode="&#x218;" horiz-adv-x="1247" d="M121 0zM121 178v271h148l38 -209q57 -47 136 -77t189 -30q149 0 235.5 63t86.5 171q0 100 -75 167.5t-265 113.5q-231 55 -361 162t-130 269q0 171 145 284.5t377 113.5q153 0 278.5 -52.5t201.5 -127.5v-271h-149l-37 208q-45 38 -120 63t-174 25q-157 0 -241 -66.5 t-84 -173.5q0 -95 85.5 -158.5t276.5 -111.5q230 -57 349.5 -168t119.5 -275q0 -176 -143.5 -283t-375.5 -107q-168 0 -298.5 55t-212.5 144zM426 -542q47 71 70.5 144.5t23.5 159.5v119h188v-116q0 -102 -44.5 -207t-126.5 -174z" />
<glyph unicode="&#x219;" horiz-adv-x="1044" d="M118 0zM118 784q0 132 112.5 225t292.5 93q123 0 221 -32t163 -89l10 -239h-148l-32 130q-36 34 -90.5 54.5t-123.5 20.5q-105 0 -156 -46t-51 -111q0 -64 45 -101t183 -66q205 -44 305 -119.5t100 -202.5q0 -144 -116.5 -233t-304.5 -89q-123 0 -221 28.5t-175 82.5 l-1 247h148l37 -145q34 -31 92.5 -45t119.5 -14q105 0 164.5 42.5t59.5 111.5q0 65 -49.5 107t-187.5 73q-197 43 -297 117t-100 200zM353 -541q47 71 70.5 144.5t23.5 159.5v119h188v-116q0 -102 -44.5 -207t-126.5 -174z" />
<glyph unicode="&#x21a;" horiz-adv-x="1284" d="M37 0zM37 1134v322h1210v-322h-168l-15 167h-323v-1147l163 -28v-126h-523v126l163 28v1147h-324l-14 -167h-169zM458 -532q47 71 70.5 144.5t23.5 159.5v119h188v-116q0 -102 -44.5 -207t-126.5 -174z" />
<glyph unicode="&#x21b;" horiz-adv-x="750" d="M65 0zM65 936v146h171v261h197v-261h205v-146h-205v-657q0 -76 31.5 -107t83.5 -31q26 0 58.5 4.5t54.5 9.5l27 -135q-28 -18 -82 -29.5t-108 -11.5q-120 0 -191 72.5t-71 227.5v657h-171zM279 -532q47 71 70.5 144.5t23.5 159.5v119h188v-116q0 -102 -44.5 -207 t-126.5 -174z" />
<glyph unicode="&#x237;" horiz-adv-x="579" d="M-4 -419l13 150q14 -5 47.5 -9t51.5 -4q59 0 93.5 51.5t34.5 141.5v1016l-163 28v127h360v-1171q0 -167 -86 -257.5t-239 -90.5q-32 0 -58 4.5t-54 13.5z" />
<glyph unicode="&#x259;" horiz-adv-x="1115" d="M103 464v123h701l3 5q-3 155 -78.5 256t-212.5 101q-101 0 -176 -29.5t-130 -78.5l-77 129q58 56 153 94.5t230 38.5q225 0 359 -151t134 -390v-44q0 -232 -137.5 -385t-324.5 -152q-220 0 -332 131t-112 352zM300 407q0 -117 62 -194.5t185 -77.5q97 0 167 82.5 t86 209.5l-2 5h-498v-25z" />
<glyph unicode="&#x2bc;" horiz-adv-x="418" d="M45 993zM45 1067q47 71 71 145.5t24 160.5v187h197v-184q0 -100 -48.5 -207t-131.5 -176z" />
<glyph unicode="&#x2c6;" horiz-adv-x="828" d="M104 1252v26l246 237h119l248 -238v-25h-161l-147 148l-145 -148h-160z" />
<glyph unicode="&#x2c7;" horiz-adv-x="809" d="M90 1495v20h166l146 -148l147 148h170v-18l-257 -245h-119z" />
<glyph unicode="&#x2d8;" horiz-adv-x="836" d="M125 1450l2 6h150q0 -65 34.5 -106.5t108.5 -41.5q72 0 107 41.5t35 106.5h151l2 -6q4 -116 -77 -189t-218 -73q-138 0 -219 73t-76 189z" />
<glyph unicode="&#x2d9;" horiz-adv-x="528" d="M152 1255v201h217v-201h-217z" />
<glyph unicode="&#x2da;" horiz-adv-x="687" d="M138 1308q0 84 60.5 141t147.5 57q85 0 145 -56.5t60 -141.5q0 -86 -60 -140t-145 -54q-87 0 -147.5 54t-60.5 140zM241 1308q0 -43 31 -73.5t74 -30.5q42 0 72 29.5t30 74.5t-30 76t-72 31q-44 0 -74.5 -31t-30.5 -76z" />
<glyph unicode="&#x2db;" horiz-adv-x="473" d="M54 -223q0 80 60.5 152t187.5 128l71 -57q-70 -52 -109.5 -99.5t-39.5 -101.5q0 -42 22.5 -66t73.5 -24q27 0 50 7.5t49 18.5l33 -123q-36 -19 -79.5 -31.5t-103.5 -12.5q-94 0 -154.5 55t-60.5 154z" />
<glyph unicode="&#x2dc;" horiz-adv-x="948" d="M127 1275q0 93 58.5 161.5t149.5 68.5q56 0 140 -47t136 -47q41 0 71 32.5t30 79.5l108 -32q0 -94 -59.5 -159t-149.5 -65q-71 0 -148 46.5t-128 46.5q-42 0 -71.5 -32.5t-29.5 -78.5z" />
<glyph unicode="&#x2dd;" horiz-adv-x="924" d="M104 1252l184 266h211l2 -5l-240 -261h-157zM373 1257l241 261h228l3 -6l-299 -260h-171z" />
<glyph unicode="&#x2f3;" horiz-adv-x="446" d="M72 -235q0 65 45.5 107.5t111.5 42.5q63 0 108 -42.5t45 -107.5q0 -64 -44.5 -105t-108.5 -41q-66 0 -111.5 41t-45.5 105zM161 -235q0 -26 20 -45.5t48 -19.5q26 0 45 19t19 46q0 30 -19 49.5t-45 19.5q-28 0 -48 -20t-20 -49z" />
<glyph unicode="&#x300;" horiz-adv-x="511" d="M87 1558h185l122 -348h-131z" />
<glyph unicode="&#x301;" horiz-adv-x="505" d="M118 1210l126 349h182l-188 -349h-120z" />
<glyph unicode="&#x303;" horiz-adv-x="922" d="M-890 1275q0 93 58.5 161.5t149.5 68.5q56 0 140 -47t136 -47q41 0 71 32.5t30 79.5l108 -32q0 -94 -59.5 -159t-149.5 -65q-71 0 -148 46.5t-128 46.5q-42 0 -71.5 -32.5t-29.5 -78.5zM-197 1249z" />
<glyph unicode="&#x309;" horiz-adv-x="573" d="M135 1546l7 108q146 0 225 -51.5t79 -137.5q0 -70 -43.5 -106.5t-107.5 -45.5l-1 -71h-140l-1 154q76 4 108.5 19.5t32.5 53.5q0 39 -44 58t-115 19z" />
<glyph unicode="&#x30f;" horiz-adv-x="924" d="M86 1512l3 6h228l241 -261l-2 -5h-171zM430 1513l2 5h211l184 -266h-157z" />
<glyph unicode="&#x323;" horiz-adv-x="387" d="M81 -137h218v-200h-218v200z" />
<glyph unicode="&#x384;" horiz-adv-x="493" d="M136 1270l60 390h208l-175 -390h-93z" />
<glyph unicode="&#x385;" horiz-adv-x="1009" d="M151 1256v200h198v-200h-198zM422 1408l50 265h218l-126 -265h-142zM660 1256v200h198v-200h-198z" />
<glyph unicode="&#x386;" d="M55 0v126l108 15l509 1315h169l500 -1315l107 -15v-126h-418v126l110 19l-96 268h-583l-99 -268l110 -19v-126h-417zM55 0zM234 1270l60 390h208l-175 -390h-93zM522 578h462l-226 625h-6z" />
<glyph unicode="&#x387;" horiz-adv-x="516" d="M159 624v212h198v-212h-198zM159 624z" />
<glyph unicode="&#x388;" horiz-adv-x="1406" d="M-108 1272l60 390h208l-175 -390h-93zM0 0zM171 0v126l163 28v1147l-163 28v127h1118v-350h-169l-16 195h-573v-471h557v-155h-557v-521h585l16 195h168v-349h-1129z" />
<glyph unicode="&#x389;" horiz-adv-x="1673" d="M-113 1272l60 390h208l-175 -390h-93zM0 0zM171 0v126l163 28v1147l-163 28v127h523v-127l-163 -28v-503h706v503l-163 28v127h163h197h163v-127l-163 -28v-1147l163 -28v-126h-523v126l163 28v489h-706v-489l163 -28v-126h-523z" />
<glyph unicode="&#x38a;" horiz-adv-x="762" d="M-118 1271l60 390h208l-175 -390h-93zM0 0zM170 0v126l163 28v1147l-163 28v127h523v-127l-163 -28v-1147l163 -28v-126h-523z" />
<glyph unicode="&#x38c;" horiz-adv-x="1465" d="M9 0zM9 1270l60 390h208l-175 -390h-93zM99 717v21q0 317 176 528t458 211q290 0 472.5 -211t182.5 -528v-21q0 -318 -182.5 -528t-472.5 -210q-282 0 -458 210t-176 528zM296 717q0 -256 115.5 -416.5t321.5 -160.5q218 0 338 160t120 417v23q0 254 -121.5 414.5 t-336.5 160.5q-206 0 -321.5 -161t-115.5 -414v-23z" />
<glyph unicode="&#x38e;" horiz-adv-x="1516" d="M-140 1264l60 390h208l-175 -390h-93zM0 0zM155 1329v127h500v-127l-157 -19l305 -594l305 594l-156 19v127h500v-127l-123 -19l-432 -798v-358l163 -28v-126h-522v126l163 28v373l-424 783z" />
<glyph unicode="&#x38f;" horiz-adv-x="1374" d="M0 0zM0 1270l60 390h208l-175 -390h-93zM113 762v55q0 292 160.5 476t418.5 184t419.5 -184t161.5 -476v-55q0 -182 -81.5 -349t-218.5 -259h281v-154h-497v197q151 25 235 169.5t84 395.5v57q0 243 -102.5 373t-281.5 130t-280.5 -130t-101.5 -373v-57q0 -252 86 -396.5 t239 -168.5v-197h-496v154h275q-138 92 -219.5 259t-81.5 349z" />
<glyph unicode="&#x390;" horiz-adv-x="669" d="M-47 1217v200h198v-200h-198zM0 0zM31 955v127h361v-814q0 -74 26 -101.5t71 -27.5q25 0 49 7t43 19l44 -133q-46 -31 -90 -42t-98 -11q-119 0 -181 71t-62 229v648zM224 1369l50 265h218l-126 -265h-142zM462 1217v200h198v-200h-198z" />
<glyph unicode="&#x391;" d="M55 0v126l108 15l509 1315h169l500 -1315l107 -15v-126h-418v126l110 19l-96 268h-583l-99 -268l110 -19v-126h-417zM55 0zM522 578h462l-226 625h-6z" />
<glyph unicode="&#x392;" horiz-adv-x="1345" d="M71 0v126l163 28v1147l-163 28v127h163h475q228 0 356.5 -98.5t128.5 -295.5q0 -97 -61.5 -173.5t-162.5 -113.5q131 -28 207 -129t76 -235q0 -200 -130 -305.5t-352 -105.5h-700zM71 0zM431 154h340q135 0 209.5 66.5t74.5 188.5q0 128 -62.5 201t-191.5 73h-370v-529z M431 837h329q106 3 171.5 63t65.5 166q0 118 -74 176.5t-214 58.5h-278v-464z" />
<glyph unicode="&#x393;" horiz-adv-x="1216" d="M77 0v126l163 28v1147l-163 28v127h1056v-322h-169l-15 167h-512v-1147l163 -28v-126h-523z" />
<glyph unicode="&#x395;" horiz-adv-x="1306" d="M71 0v126l163 28v1147l-163 28v127h1118v-350h-169l-16 195h-573v-471h557v-155h-557v-521h585l16 195h168v-349h-1129zM71 0z" />
<glyph unicode="&#x396;" horiz-adv-x="1220" d="M92 0v146l777 1155h-584l-14 -167h-169v322h993v-141l-782 -1161h631l16 167h168v-321h-1036zM92 0z" />
<glyph unicode="&#x397;" horiz-adv-x="1573" d="M71 0v126l163 28v1147l-163 28v127h523v-127l-163 -28v-503h706v503l-163 28v127h163h197h163v-127l-163 -28v-1147l163 -28v-126h-523v126l163 28v489h-706v-489l163 -28v-126h-523zM71 0z" />
<glyph unicode="&#x398;" horiz-adv-x="1403" d="M79 717v21q0 317 176 528t458 211q290 0 472.5 -211t182.5 -528v-21q0 -318 -182.5 -528t-472.5 -210q-282 0 -458 210t-176 528zM276 717q0 -256 115.5 -416.5t321.5 -160.5q218 0 338 160t120 417v23q0 254 -121.5 414.5t-336.5 160.5q-206 0 -321.5 -161t-115.5 -414 v-23zM450 659v154h509v-154h-509z" />
<glyph unicode="&#x399;" horiz-adv-x="662" d="M70 0v126l163 28v1147l-163 28v127h523v-127l-163 -28v-1147l163 -28v-126h-523zM70 0z" />
<glyph unicode="&#x39a;" horiz-adv-x="1452" d="M71 0v126l163 28v1147l-163 28v127h523v-127l-163 -28v-489h151l407 503l-109 14v127h462v-127l-137 -25l-445 -552l486 -601l137 -25v-126h-478v126l111 14l-415 517h-170v-503l163 -28v-126h-523zM71 0z" />
<glyph unicode="&#x39b;" horiz-adv-x="1450" d="M52 0v126l105 15l482 1315h170l482 -1315l106 -15v-126h-418v126l111 19l-363 1026h-6l-364 -1026l112 -19v-126h-417z" />
<glyph unicode="&#x39c;" horiz-adv-x="1905" d="M71 0v126l163 28v1147l-163 28v127h163h252l464 -1183h6l463 1183h416v-127l-163 -28v-1147l163 -28v-126h-523v126l163 28v422l19 590l-5 1l-471 -1167h-131l-471 1166l-5 -1l20 -589v-422l163 -28v-126h-523zM71 0z" />
<glyph unicode="&#x39d;" horiz-adv-x="1560" d="M71 0v126l163 28v1147l-163 28v127h163h197l700 -1123l6 2v966l-163 28v127h360h163v-127l-163 -28v-1301h-197l-700 1124l-6 -2v-968l163 -28v-126h-523zM71 0z" />
<glyph unicode="&#x39e;" horiz-adv-x="1179" d="M66 0v321h168l15 -167h690l16 167h167v-321h-1056zM66 1134v322h1045v-322h-169l-15 167h-677l-15 -167h-169zM278 678v155h623v-155h-623z" />
<glyph unicode="&#x39f;" horiz-adv-x="1445" d="M79 0zM79 717v21q0 317 176 528t458 211q290 0 472.5 -211t182.5 -528v-21q0 -318 -182.5 -528t-472.5 -210q-282 0 -458 210t-176 528zM276 717q0 -256 115.5 -416.5t321.5 -160.5q218 0 338 160t120 417v23q0 254 -121.5 414.5t-336.5 160.5q-206 0 -321.5 -161 t-115.5 -414v-23z" />
<glyph unicode="&#x3a0;" horiz-adv-x="1576" d="M77 0v126l163 28v1147l-163 28v127h1428v-127l-163 -28v-1147l163 -28v-126h-523v126l163 28v1147h-708v-1147l163 -28v-126h-523z" />
<glyph unicode="&#x3a1;" horiz-adv-x="1301" d="M71 0v126l163 28v1147l-163 28v127h163h506q233 0 362.5 -120t129.5 -316q0 -198 -129.5 -317t-362.5 -119h-309v-430l163 -28v-126h-523zM71 0zM431 738h309q148 0 221.5 79.5t73.5 200.5t-73.5 202t-221.5 81h-309v-563z" />
<glyph unicode="&#x3a3;" horiz-adv-x="1181" d="M79 0v147l479 581l-479 581v147h976v-322h-169l-15 167h-547l-3 -5l446 -557v-24l-446 -555l3 -5h597l15 167h168v-322h-1025z" />
<glyph unicode="&#x3a4;" horiz-adv-x="1284" d="M37 0zM37 1134v322h1210v-322h-168l-15 167h-323v-1147l163 -28v-126h-523v126l163 28v1147h-324l-14 -167h-169z" />
<glyph unicode="&#x3a5;" horiz-adv-x="1416" d="M55 0zM55 1329v127h500v-127l-157 -19l305 -594l305 594l-156 19v127h500v-127l-123 -19l-432 -798v-358l163 -28v-126h-522v126l163 28v373l-424 783z" />
<glyph unicode="&#x3a6;" horiz-adv-x="1471" d="M79 722q0 223 157 366.5t393 143.5h8v69l-163 28v127h163h360v-127l-163 -28v-69h6q236 0 394 -142.5t158 -365.5q0 -224 -158.5 -367.5t-393.5 -143.5h-6v-59l163 -28v-126h-523v126l163 28v59h-8q-236 0 -393 142.5t-157 366.5zM274 722q0 -165 92 -259.5t263 -94.5h8 v710h-8q-170 0 -262.5 -96t-92.5 -260zM834 368h8q168 0 261 95.5t93 260.5q0 163 -93 258.5t-261 95.5h-8v-710z" />
<glyph unicode="&#x3a7;" horiz-adv-x="1404" d="M43 0v126l131 22l414 586l-404 573l-131 22v127h472v-127l-117 -13l291 -437l294 437l-117 13v127h475v-127l-131 -22l-404 -573l413 -586l132 -22v-126h-471v126l115 13l-302 448l-303 -448l117 -13v-126h-474zM43 0z" />
<glyph unicode="&#x3a8;" horiz-adv-x="1665" d="M55 1329v127h163h196v-531q0 -170 82 -275t218 -125l6 1v775l-163 28v127h360h163v-127l-163 -28v-776l6 -2q144 19 230.5 124t86.5 278v531h360v-127l-163 -28v-376q0 -245 -143 -393.5t-377 -172.5v-205l163 -28v-126h-523v126l163 28v206q-228 24 -365 172t-137 393 v376z" />
<glyph unicode="&#x3aa;" horiz-adv-x="662" d="M-24 1603v200h218v-200h-218zM0 0zM70 0v126l163 28v1147l-163 28v127h523v-127l-163 -28v-1147l163 -28v-126h-523zM446 1603v200h218v-200h-218z" />
<glyph unicode="&#x3ab;" horiz-adv-x="1416" d="M55 0zM55 1329v127h500v-127l-157 -19l305 -594l305 594l-156 19v127h500v-127l-123 -19l-432 -798v-358l163 -28v-126h-522v126l163 28v373l-424 783zM337 1604v200h218v-200h-218zM807 1604v200h218v-200h-218z" />
<glyph unicode="&#x3ac;" horiz-adv-x="1208" d="M104 0zM104 500v21q0 261 111.5 421t311.5 160q100 0 176.5 -39.5t129.5 -113.5l17 133h167v-786q0 -84 20 -116t56 -32q8 0 16.5 1.5t14.5 4.5l24 -141q-30 -20 -60 -27t-67 -7q-71 0 -117 37.5t-67 119.5q-53 -78 -130.5 -117.5t-181.5 -39.5q-198 0 -309.5 143.5 t-111.5 377.5zM301 500q0 -165 67 -266t207 -101q87 0 146.5 46t98.5 130v460q-40 83 -99.5 130.5t-143.5 47.5q-141 0 -208.5 -119t-67.5 -307v-21zM532 1255l60 390h208l-175 -390h-93z" />
<glyph unicode="&#x3ad;" horiz-adv-x="1097" d="M105 0zM105 305q0 91 51 155t150 96q-86 35 -134 96t-48 134q0 151 116 232.5t318 81.5q183 0 307.5 -87.5t119.5 -226.5l-2 -6h-186q0 70 -69.5 119t-169.5 49q-116 0 -176.5 -47.5t-60.5 -114.5q0 -74 54 -116.5t169 -42.5h210v-150h-210q-120 0 -180.5 -42.5 t-60.5 -129.5q0 -73 68.5 -123t186.5 -50q112 0 184.5 56t72.5 132h186l2 -6q5 -162 -128 -247.5t-317 -85.5q-202 0 -327.5 86.5t-125.5 237.5zM487 1257l60 390h208l-175 -390h-93z" />
<glyph unicode="&#x3ae;" horiz-adv-x="1208" d="M-4 1042q41 28 93 44t105 16q82 0 132 -40t64 -126q54 79 133.5 122.5t178.5 43.5q177 0 271.5 -97.5t94.5 -321.5v-1098h-197v1094q0 143 -57 205.5t-173 62.5q-85 0 -146.5 -33.5t-99.5 -93.5v-820h-197v821q0 57 -20 79t-54 22q-20 0 -45.5 -7.5t-38.5 -13.5zM0 0z M562 1255l60 390h208l-175 -390h-93z" />
<glyph unicode="&#x3af;" horiz-adv-x="669" d="M31 0zM31 955v127h361v-814q0 -74 26 -101.5t71 -27.5q25 0 49 7t43 19l44 -133q-46 -31 -90 -42t-98 -11q-119 0 -181 71t-62 229v648zM240 1254l60 390h208l-175 -390h-93z" />
<glyph unicode="&#x3b0;" horiz-adv-x="1220" d="M25 0zM25 1042q42 28 94.5 44t104.5 16q98 0 150 -56t52 -179v-440q0 -153 52 -223.5t142 -70.5q134 0 213 131t79 299q-3 126 -36 254.5t-88 264.5h206q51 -106 83 -235t32 -284q0 -248 -123 -416t-356 -168q-192 0 -296.5 110.5t-104.5 339.5v392q0 58 -20 79.5 t-55 21.5q-20 0 -45.5 -7.5t-38.5 -13.5zM243 1217v200h198v-200h-198zM514 1369l50 265h218l-126 -265h-142zM752 1217v200h198v-200h-198z" />
<glyph unicode="&#x3b1;" horiz-adv-x="1208" d="M104 500v21q0 261 111.5 421t311.5 160q100 0 176.5 -39.5t129.5 -113.5l17 133h167v-786q0 -84 20 -116t56 -32q8 0 16.5 1.5t14.5 4.5l24 -141q-30 -20 -60 -27t-67 -7q-71 0 -117 37.5t-67 119.5q-53 -78 -130.5 -117.5t-181.5 -39.5q-198 0 -309.5 143.5 t-111.5 377.5zM301 500q0 -165 67 -266t207 -101q87 0 146.5 46t98.5 130v460q-40 83 -99.5 130.5t-143.5 47.5q-141 0 -208.5 -119t-67.5 -307v-21z" />
<glyph unicode="&#x3b2;" horiz-adv-x="1172" d="M143 -383v1456q0 166 132.5 285t316.5 119q195 0 313 -110t118 -284q0 -91 -49.5 -167t-136.5 -122q119 -44 185 -142t66 -227q0 -209 -126.5 -327.5t-328.5 -118.5q-82 0 -158.5 22t-134.5 68v-452h-197zM340 242q44 -51 114.5 -80t158.5 -29q129 0 203.5 80t74.5 208 q0 112 -65.5 198t-176.5 86h-143v155h82q122 0 180 60.5t58 166.5q0 95 -62.5 165t-171.5 70q-107 0 -179.5 -71.5t-72.5 -177.5v-831z" />
<glyph unicode="&#x3b3;" horiz-adv-x="1086" d="M20 1068q25 11 64.5 18.5t70.5 7.5q72 0 108 -28t64 -113l208 -634l17 -84h6l21 84l201 615l-135 21v127h418v-127l-86 -14l-324 -881v-476h-197v467l-287 813q-14 39 -30.5 50.5t-49.5 11.5q-9 0 -15 -1l-36 -6z" />
<glyph unicode="&#x3b4;" horiz-adv-x="1164" d="M97 509v21q0 171 92.5 297t230.5 160l4 11q-96 38 -149.5 109t-53.5 161q0 137 101 216.5t280 79.5q75 0 154 -23t159 -62l-44 -133q-57 22 -130 40.5t-143 18.5q-83 0 -130.5 -36.5t-47.5 -96.5q0 -47 48.5 -94.5t174.5 -90.5q212 -74 317.5 -213.5t105.5 -343.5v-21 q0 -232 -130 -380.5t-353 -148.5q-225 0 -355.5 148.5t-130.5 380.5zM295 509q0 -164 73 -270t215 -106q140 0 212.5 106t72.5 270v21q0 131 -79.5 241.5t-205.5 135.5q-141 0 -214.5 -107.5t-73.5 -269.5v-21z" />
<glyph unicode="&#x3b5;" horiz-adv-x="1097" d="M105 305q0 91 51 155t150 96q-86 35 -134 96t-48 134q0 151 116 232.5t318 81.5q183 0 307.5 -87.5t119.5 -226.5l-2 -6h-186q0 70 -69.5 119t-169.5 49q-116 0 -176.5 -47.5t-60.5 -114.5q0 -74 54 -116.5t169 -42.5h210v-150h-210q-120 0 -180.5 -42.5t-60.5 -129.5 q0 -73 68.5 -123t186.5 -50q112 0 184.5 56t72.5 132h186l2 -6q5 -162 -128 -247.5t-317 -85.5q-202 0 -327.5 86.5t-125.5 237.5z" />
<glyph unicode="&#x3b6;" horiz-adv-x="1070" d="M115 1301v155h855v-123l-342 -421q-129 -153 -185.5 -266.5t-56.5 -258.5q0 -97 32.5 -146.5t110.5 -66.5l133 -38q153 -45 208 -79.5t55 -142.5q-2 -72 -58.5 -158.5t-119.5 -138.5l-104 86q49 57 71.5 98.5t22.5 82.5q0 35 -36 60.5t-116 46.5l-90 23 q-171 45 -238.5 127t-67.5 241q0 120 69.5 280.5t213.5 329.5l268 304l-2 5h-623z" />
<glyph unicode="&#x3b7;" horiz-adv-x="1208" d="M-4 1042q41 28 93 44t105 16q82 0 132 -40t64 -126q54 79 133.5 122.5t178.5 43.5q177 0 271.5 -97.5t94.5 -321.5v-1098h-197v1094q0 143 -57 205.5t-173 62.5q-85 0 -146.5 -33.5t-99.5 -93.5v-820h-197v821q0 57 -20 79t-54 22q-20 0 -45.5 -7.5t-38.5 -13.5z" />
<glyph unicode="&#x3b8;" horiz-adv-x="1162" d="M127 555v345q0 278 124 427.5t338 149.5q215 0 340 -149.5t125 -427.5v-345q0 -279 -124 -427.5t-339 -148.5q-214 0 -339 149t-125 427zM324 515q0 -189 69 -285.5t198 -96.5q131 0 198.5 96t67.5 286v133h-533v-133zM324 803h533v139q0 189 -68.5 284.5t-199.5 95.5 q-129 0 -197 -95.5t-68 -284.5v-139z" />
<glyph unicode="&#x3b9;" horiz-adv-x="669" d="M31 955v127h361v-814q0 -74 26 -101.5t71 -27.5q25 0 49 7t43 19l44 -133q-46 -31 -90 -42t-98 -11q-119 0 -181 71t-62 229v648z" />
<glyph unicode="&#x3ba;" horiz-adv-x="1257" d="M62 0v126l163 28v773l-154 28v126h351v-425h126l252 287l-90 12v127h452v-127l-132 -26l-311 -343l344 -436l123 -24v-126h-237l-398 499h-129v-345l163 -28v-126h-523zM62 0z" />
<glyph unicode="&#x3bb;" horiz-adv-x="1135" d="M35 0l389 1026l-99 239q-22 54 -47.5 76t-66.5 22q-9 0 -23.5 -1t-23.5 -1l-1 145q17 4 55 8t64 4q97 0 145.5 -39t76.5 -124l441 -1119q18 -49 39.5 -69t55.5 -20h20.5t15.5 2l6 -154q-15 -4 -36.5 -8t-42.5 -4q-98 0 -150.5 38.5t-99.5 165.5l-234 600l-6 -1l-30 -116 l-230 -670h-218z" />
<glyph unicode="&#x3bc;" horiz-adv-x="1315" d="M66 0zM66 955v127h163h196v-622q0 -189 55 -258t157 -69q99 0 160 36.5t92 107.5v650l-163 28v127h360v-928l163 -28v-126h-340l-9 109q-44 -64 -108 -97t-147 -33q-72 0 -126 16.5t-94 51.5v-463h-196v1343z" />
<glyph unicode="&#x3bd;" horiz-adv-x="1143" d="M42 0zM42 955v127h418v-127l-130 -20l223 -616l18 -78h6l19 78l216 616l-131 20v127h418v-127l-89 -15l-363 -940h-149l-367 940z" />
<glyph unicode="&#x3be;" horiz-adv-x="1004" d="M98 448q0 147 82.5 247t230.5 147q-117 42 -183 118.5t-66 171.5q0 161 132 252t358 91q67 0 137.5 -11t117.5 -27l-29 -152q-62 17 -116 26.5t-108 9.5q-146 0 -220.5 -53.5t-74.5 -131.5q0 -103 77 -160.5t241 -57.5h143v-155h-143q-188 0 -285 -79t-97 -240 q0 -123 77 -198t191 -101l113 -24q144 -34 204 -72t60 -148q-2 -72 -58.5 -157t-120.5 -138l-103 86q55 64 74.5 97.5t19.5 86.5q0 42 -35 63.5t-119 39.5l-56 13q-222 51 -333 149t-111 307z" />
<glyph unicode="&#x3bf;" horiz-adv-x="1149" d="M90 0zM90 529v22q0 240 130 395.5t353 155.5q224 0 354.5 -155t130.5 -396v-22q0 -242 -130 -396t-353 -154q-225 0 -355 154.5t-130 395.5zM287 529q0 -172 72.5 -284t215.5 -112q140 0 213 112t73 284v22q0 170 -73 283t-215 113t-214 -113t-72 -283v-22z" />
<glyph unicode="&#x3c0;" horiz-adv-x="1281" d="M75 926v156h1039v-156h-164v-658q0 -74 26 -101.5t71 -27.5q25 0 49 7t43 19l44 -133q-46 -31 -90 -42t-98 -11q-119 0 -181 71t-62 229v647h-353v-926h-197v926h-127z" />
<glyph unicode="&#x3c1;" horiz-adv-x="1156" d="M134 -416v992v1q0 247 128 386t320 139q228 0 348.5 -158.5t120.5 -422.5v-21q0 -235 -109.5 -378t-306.5 -143q-97 0 -173 30t-131 88v-513h-197zM331 273q37 -67 96.5 -103.5t146.5 -36.5q140 0 210 102t70 265v21q0 189 -66 307.5t-206 118.5q-123 0 -187 -115.5 t-64 -255.5v-303z" />
<glyph unicode="&#x3c2;" horiz-adv-x="1092" d="M99 520v42q0 227 127.5 383.5t346.5 156.5q188 0 304.5 -104.5t112.5 -282.5l-2 -6h-178q0 104 -61 171t-176 67q-137 0 -207 -115t-70 -270v-42q0 -135 86.5 -227t261.5 -139q155 -43 218.5 -83t63.5 -150q-2 -71 -59 -157t-120 -138l-103 86q54 64 73.5 98t19.5 86 q0 43 -34 64t-119 40q-240 52 -362.5 181.5t-122.5 338.5z" />
<glyph unicode="&#x3c3;" horiz-adv-x="1246" d="M105 529v22q0 232 129.5 381.5t352.5 149.5h568v-156h-277q94 -72 144.5 -178t50.5 -236v-22q0 -210 -132 -360.5t-352 -150.5q-224 0 -354 154.5t-130 395.5zM302 529q0 -172 72 -284t215 -112q141 0 214 112t73 284v22q0 161 -73.5 268t-215.5 107h-1 q-141 -1 -212.5 -107.5t-71.5 -267.5v-22z" />
<glyph unicode="&#x3c4;" horiz-adv-x="1014" d="M62 929v153h885v-153h-350v-661q0 -73 26.5 -101t71.5 -28q24 0 48 7.5t43 18.5l45 -132q-46 -32 -90.5 -43t-97.5 -11q-119 0 -181 71t-62 229v650h-338z" />
<glyph unicode="&#x3c5;" horiz-adv-x="1220" d="M25 1042q42 28 94.5 44t104.5 16q98 0 150 -56t52 -179v-440q0 -153 52 -223.5t142 -70.5q134 0 213 131t79 299q-3 126 -36 254.5t-88 264.5h206q51 -106 83 -235t32 -284q0 -248 -123 -416t-356 -168q-192 0 -296.5 110.5t-104.5 339.5v392q0 58 -20 79.5t-55 21.5 q-20 0 -45.5 -7.5t-38.5 -13.5z" />
<glyph unicode="&#x3c6;" d="M113 564q0 168 63.5 299.5t191.5 218.5l107 -136q-83 -74 -122 -173.5t-43 -208.5q0 -155 81 -274.5t250 -142.5l6 2v675q0 102 79.5 180t198.5 78q194 0 333 -155t139 -383q0 -226 -135 -381.5t-418 -178.5v-462h-197v462q-274 25 -404 185.5t-130 394.5zM844 148l6 -3 q177 22 263.5 136.5t86.5 262.5q-4 156 -76 269t-199 113q-40 0 -60.5 -26.5t-20.5 -68.5v-683z" />
<glyph unicode="&#x3c7;" horiz-adv-x="1192" d="M62 0v126l116 23l309 388l-299 395l-116 23v127l261 -1l276 -392l194 255l-97 11v127h427v-127l-116 -23l-308 -380l317 -403l117 -23v-126h-247l-293 409l-212 -272l97 -11v-126h-426z" />
<glyph unicode="&#x3c8;" horiz-adv-x="1577" d="M-1 1042q40 28 92.5 44t105.5 16q97 0 149 -55.5t52 -178.5v-274q0 -204 82 -313.5t222 -130.5l6 2v929h197v-933l6 -2q183 20 271 141t88 280q-3 125 -35.5 253t-88.5 262h206q51 -106 83 -234t32 -281q0 -241 -135.5 -402.5t-426.5 -182.5v-456h-197v460 q-243 27 -375 178t-132 432v225q0 57 -20 79t-54 22q-20 0 -45.5 -7.5t-38.5 -13.5z" />
<glyph unicode="&#x3c9;" horiz-adv-x="1679" d="M116 562q0 155 37 285t98 235h206q-66 -136 -104 -264.5t-40 -255.5q0 -190 50.5 -309.5t160.5 -119.5q98 0 156 81t58 256v300h198v-300q0 -175 57.5 -256t156.5 -81q110 0 161 118.5t51 310.5q-4 127 -42 256.5t-102 263.5h206q60 -106 97.5 -236t37.5 -284 q0 -255 -96 -419t-302 -164q-119 0 -201 59.5t-123 175.5q-41 -115 -123.5 -175t-199.5 -60q-207 0 -302.5 164t-95.5 419z" />
<glyph unicode="&#x3ca;" horiz-adv-x="669" d="M-57 1279v200h218v-200h-218zM0 0zM31 955v127h361v-814q0 -74 26 -101.5t71 -27.5q25 0 49 7t43 19l44 -133q-46 -31 -90 -42t-98 -11q-119 0 -181 71t-62 229v648zM413 1279v200h218v-200h-218z" />
<glyph unicode="&#x3cb;" horiz-adv-x="1220" d="M25 0zM25 1042q42 28 94.5 44t104.5 16q98 0 150 -56t52 -179v-440q0 -153 52 -223.5t142 -70.5q134 0 213 131t79 299q-3 126 -36 254.5t-88 264.5h206q51 -106 83 -235t32 -284q0 -248 -123 -416t-356 -168q-192 0 -296.5 110.5t-104.5 339.5v392q0 58 -20 79.5 t-55 21.5q-20 0 -45.5 -7.5t-38.5 -13.5zM233 1279v200h218v-200h-218zM703 1279v200h218v-200h-218z" />
<glyph unicode="&#x3cc;" horiz-adv-x="1149" d="M90 0zM90 529v22q0 240 130 395.5t353 155.5q224 0 354.5 -155t130.5 -396v-22q0 -242 -130 -396t-353 -154q-225 0 -355 154.5t-130 395.5zM287 529q0 -172 72.5 -284t215.5 -112q140 0 213 112t73 284v22q0 170 -73 283t-215 113t-214 -113t-72 -283v-22zM509 1255 l60 390h208l-175 -390h-93z" />
<glyph unicode="&#x3cd;" horiz-adv-x="1220" d="M25 0zM25 1042q42 28 94.5 44t104.5 16q98 0 150 -56t52 -179v-440q0 -153 52 -223.5t142 -70.5q134 0 213 131t79 299q-3 126 -36 254.5t-88 264.5h206q51 -106 83 -235t32 -284q0 -248 -123 -416t-356 -168q-192 0 -296.5 110.5t-104.5 339.5v392q0 58 -20 79.5 t-55 21.5q-20 0 -45.5 -7.5t-38.5 -13.5zM531 1254l60 390h208l-175 -390h-93z" />
<glyph unicode="&#x3ce;" horiz-adv-x="1679" d="M116 0zM116 562q0 155 37 285t98 235h206q-66 -136 -104 -264.5t-40 -255.5q0 -190 50.5 -309.5t160.5 -119.5q98 0 156 81t58 256v300h198v-300q0 -175 57.5 -256t156.5 -81q110 0 161 118.5t51 310.5q-4 127 -42 256.5t-102 263.5h206q60 -106 97.5 -236t37.5 -284 q0 -255 -96 -419t-302 -164q-119 0 -201 59.5t-123 175.5q-41 -115 -123.5 -175t-199.5 -60q-207 0 -302.5 164t-95.5 419zM772 1254l60 390h208l-175 -390h-93z" />
<glyph unicode="&#x3d1;" horiz-adv-x="1342" d="M121 592v660l197 2v-662q0 -200 90.5 -326t245.5 -126q165 0 260 118.5t97 326.5q-217 8 -349.5 133.5t-132.5 317.5v62q0 173 94.5 276t244.5 103q157 0 248 -101t91 -278v-506q0 -278 -152 -445.5t-401 -167.5q-237 0 -385 174t-148 439zM726 1034q0 -120 75 -199 t204 -83l6 2v344q0 108 -36.5 162.5t-106.5 54.5q-66 0 -104 -54.5t-38 -162.5v-64z" />
<glyph unicode="&#x3d2;" horiz-adv-x="1231" d="M52 1443q24 14 49 19t60 5q81 0 142.5 -52t113.5 -176l178 -406l18 -68h6l19 68l179 406q51 124 112.5 176t142.5 52q34 0 59 -5t51 -19l-23 -152q-6 3 -16.5 5.5t-23.5 2.5q-34 0 -61 -17.5t-44 -56.5l-299 -645v-580h-196v578l-300 647q-18 39 -45 56.5t-60 17.5 q-14 0 -24.5 -2.5t-14.5 -5.5z" />
<glyph unicode="&#x3d6;" horiz-adv-x="1672" d="M105 926v156h1483v-156h-134q29 -81 45.5 -172t16.5 -192q0 -255 -86.5 -419t-271.5 -164q-119 0 -201 60t-122 176q-41 -116 -123 -176t-200 -60q-185 0 -271.5 164.5t-86.5 418.5q0 101 16 192t46 172h-111zM351 562q0 -190 41.5 -309.5t130.5 -119.5q98 0 156 81 t58 256v250h198v-250q0 -175 57.5 -256t156.5 -81q87 0 128.5 119t41.5 310q-3 89 -22.5 180t-54.5 184h-814q-35 -94 -55 -185t-22 -179z" />
<glyph unicode="&#x400;" horiz-adv-x="1306" d="M71 0v126l163 28v1147l-163 28v127h1118v-350h-169l-16 195h-573v-471h557v-155h-557v-521h585l16 195h168v-349h-1129zM71 0zM329 1820l3 6h230l175 -266h-159z" />
<glyph unicode="&#x401;" horiz-adv-x="1306" d="M71 0v126l163 28v1147l-163 28v127h1118v-350h-169l-16 195h-573v-471h557v-155h-557v-521h585l16 195h168v-349h-1129zM71 0zM289 1605v200h218v-200h-218zM759 1605v200h218v-200h-218z" />
<glyph unicode="&#x402;" horiz-adv-x="1573" d="M74 1134v322h1171v-322h-169l-15 167h-364v-461q81 22 156.5 37t128.5 15q246 0 383 -121t137 -338q0 -216 -126.5 -329t-364.5 -110l-5 2l-2 141q162 0 231.5 76t69.5 220q-2 143 -82.5 218.5t-240.5 75.5q-62 0 -138.5 -12.5t-146.5 -33.5v-527l144 -28v-126h-504v126 l163 28v1147h-243l-15 -167h-168z" />
<glyph unicode="&#x403;" horiz-adv-x="1216" d="M77 0v126l163 28v1147l-163 28v127h1056v-322h-169l-15 167h-512v-1147l163 -28v-126h-523zM77 0zM500 1557l184 266h230l2 -6l-269 -260h-147z" />
<glyph unicode="&#x404;" horiz-adv-x="1284" d="M52 718v21q0 320 179 529.5t469 209.5q166 0 292 -64.5t189 -144.5v-259h-139l-37 206q-48 47 -118 77t-167 30q-227 0 -349 -164.5t-122 -417.5v-23q0 -253 119.5 -418.5t331.5 -165.5q99 0 180 31t125 76l37 206h139v-259q-63 -81 -189 -144.5t-292 -63.5 q-284 0 -466 210t-182 528zM253 659v154h591v-154h-591z" />
<glyph unicode="&#x405;" horiz-adv-x="1247" d="M121 178v271h148l38 -209q57 -47 136 -77t189 -30q149 0 235.5 63t86.5 171q0 100 -75 167.5t-265 113.5q-231 55 -361 162t-130 269q0 171 145 284.5t377 113.5q153 0 278.5 -52.5t201.5 -127.5v-271h-149l-37 208q-45 38 -120 63t-174 25q-157 0 -241 -66.5t-84 -173.5 q0 -95 85.5 -158.5t276.5 -111.5q230 -57 349.5 -168t119.5 -275q0 -176 -143.5 -283t-375.5 -107q-168 0 -298.5 55t-212.5 144z" />
<glyph unicode="&#x406;" horiz-adv-x="662" d="M70 0v126l163 28v1147l-163 28v127h523v-127l-163 -28v-1147l163 -28v-126h-523zM70 0z" />
<glyph unicode="&#x407;" horiz-adv-x="662" d="M-24 1603v200h218v-200h-218zM0 0zM70 0v126l163 28v1147l-163 28v127h523v-127l-163 -28v-1147l163 -28v-126h-523zM446 1603v200h218v-200h-218z" />
<glyph unicode="&#x408;" horiz-adv-x="1183" d="M59 0zM64 395l2 6h189q0 -135 68.5 -201.5t193.5 -66.5q109 0 178 73.5t69 196.5v898l-163 28v127h360h163v-127l-163 -28v-898q0 -195 -123.5 -309.5t-320.5 -114.5q-210 0 -334 106.5t-119 309.5z" />
<glyph unicode="&#x409;" horiz-adv-x="2209" d="M60 0v154h40q150 0 216 142.5t67 473.5v531l-163 28v127h1224v-127l-163 -28v-412h359q232 0 361 -123.5t129 -321.5t-129 -321t-361 -123h-556v1301h-504l-1 -531q-1 -401 -108.5 -585.5t-358.5 -184.5h-52zM1281 154h359q147 0 220.5 84.5t73.5 207.5q0 121 -73.5 205 t-220.5 84h-359v-581z" />
<glyph unicode="&#x40a;" horiz-adv-x="2265" d="M77 0v126l163 28v1147l-163 28v127h523v-127l-163 -28v-474h708v474l-163 28v127h163h197h163v-127l-163 -28v-461h359q233 0 362 -114t129 -302q0 -189 -129.5 -306.5t-361.5 -117.5h-719v126l163 28v519h-708v-519l163 -28v-126h-523zM1342 165h359q148 0 221.5 74 t73.5 187q0 112 -73.5 185.5t-221.5 73.5h-359v-520z" />
<glyph unicode="&#x40b;" horiz-adv-x="1745" d="M56 1134v322h1171v-322h-169l-15 167h-343v-433q76 20 155 30t183 10q240 0 364.5 -106t124.5 -342v-306l163 -28v-126h-523v126l163 28v306q0 164 -69.5 228t-222.5 64q-89 0 -172 -11t-166 -30v-557l163 -28v-126h-524v126l163 28v1147h-263l-14 -167h-169z" />
<glyph unicode="&#x40c;" horiz-adv-x="1452" d="M71 0v126l163 28v1147l-163 28v127h523v-127l-163 -28v-489h151l407 503l-109 14v127h462v-127l-137 -25l-445 -552l486 -601l137 -25v-126h-478v126l111 14l-415 517h-170v-503l163 -28v-126h-523zM71 0zM586 1552l184 266h230l2 -6l-269 -260h-147z" />
<glyph unicode="&#x40d;" horiz-adv-x="1574" d="M77 0v126l163 28v1147l-163 28v127h163h197h163v-127l-163 -28v-839l6 -2l700 749v92l-163 28v127h163h197h163v-127l-163 -28v-1147l163 -28v-126h-523v126l163 28v812l-6 2l-700 -750v-64l163 -28v-126h-523zM77 0zM469 1820l3 6h230l175 -266h-159z" />
<glyph unicode="&#x40e;" horiz-adv-x="1360" d="M54 0zM54 1329v127h457v-127l-122 -19l221 -535l73 -188h6l273 722l-127 20v127h465v-127l-114 -17l-449 -1073q-59 -131 -128.5 -195.5t-221.5 -64.5q-25 0 -58.5 3t-42.5 6l6 149q10 -2 43 -3t50 -1q71 0 101.5 35.5t69.5 116.5l39 83l-423 943zM387 1862l2 6h150 q0 -65 34.5 -106.5t108.5 -41.5q72 0 107 41.5t35 106.5h151l2 -6q4 -116 -77 -189t-218 -73q-138 0 -219 73t-76 189z" />
<glyph unicode="&#x40f;" horiz-adv-x="1575" d="M77 0v126l163 28v1147l-163 28v127h360h163v-127l-163 -28v-1147h708v1147l-163 28v127h523v-127l-163 -28v-1147l163 -28v-126h-609v-359h-197v359h-622z" />
<glyph unicode="&#x410;" d="M55 0v126l108 15l509 1315h169l500 -1315l107 -15v-126h-418v126l110 19l-96 268h-583l-99 -268l110 -19v-126h-417zM55 0zM522 578h462l-226 625h-6z" />
<glyph unicode="&#x411;" horiz-adv-x="1359" d="M60 0v126l163 28v1147l-163 28v127h1056v-322h-169l-15 167h-502v-441h359q234 0 362.5 -115t128.5 -311q0 -197 -129 -315.5t-362 -118.5h-729zM430 154h359q148 0 221 80t73 202q0 118 -73 193.5t-221 75.5h-359v-551z" />
<glyph unicode="&#x412;" horiz-adv-x="1345" d="M71 0v126l163 28v1147l-163 28v127h163h475q228 0 356.5 -98.5t128.5 -295.5q0 -97 -61.5 -173.5t-162.5 -113.5q131 -28 207 -129t76 -235q0 -200 -130 -305.5t-352 -105.5h-700zM71 0zM431 154h340q135 0 209.5 66.5t74.5 188.5q0 128 -62.5 201t-191.5 73h-370v-529z M431 837h329q106 3 171.5 63t65.5 166q0 118 -74 176.5t-214 58.5h-278v-464z" />
<glyph unicode="&#x413;" horiz-adv-x="1216" d="M77 0v126l163 28v1147l-163 28v127h1056v-322h-169l-15 167h-512v-1147l163 -28v-126h-523zM77 0z" />
<glyph unicode="&#x414;" horiz-adv-x="1570" d="M55 154h125q76 88 140 256t70 457l24 435l-154 27v127h1039h163v-127l-163 -28v-1147h200l-20 -511h-177v357h-1050v-359h-168zM398 154h704v1147h-490l-23 -434q-9 -238 -60 -419t-131 -294z" />
<glyph unicode="&#x415;" horiz-adv-x="1306" d="M71 0v126l163 28v1147l-163 28v127h1118v-350h-169l-16 195h-573v-471h557v-155h-557v-521h585l16 195h168v-349h-1129zM71 0z" />
<glyph unicode="&#x416;" horiz-adv-x="2041" d="M62 1423q32 21 69 32.5t86 11.5q83 0 146.5 -40t133.5 -153l290 -474h142v501l-163 28v127h359h163v-127l-163 -28v-501h154l290 474q69 113 132 153t148 40q48 0 85 -11.5t69 -32.5l-29 -138q-21 4 -42.5 7t-42.5 3q-48 0 -82 -25.5t-73 -84.5l-279 -433l382 -605 l146 -21v-126h-461v126l78 13l-300 495h-175v-480l163 -28v-126h-522v126l163 28v480h-182l-301 -495l79 -13v-126h-462v126l146 21l388 614l-266 424q-39 59 -73 84.5t-81 25.5q-22 0 -43.5 -3t-42.5 -7z" />
<glyph unicode="&#x417;" horiz-adv-x="1222" d="M76 398l2 6h188q0 -114 88 -192.5t227 -78.5q159 0 249.5 74.5t90.5 194.5q0 133 -82 197.5t-242 64.5h-164v156h164q154 0 228 65.5t74 180.5q0 113 -83.5 184.5t-253.5 71.5q-98 0 -169 -30.5t-116 -76.5l-38 -205h-138v258q62 80 188 144.5t292 64.5q239 0 377 -108 t138 -307q0 -101 -63 -184t-173 -131q125 -42 191.5 -129t66.5 -212q0 -200 -148.5 -313.5t-388.5 -113.5q-209 0 -359.5 107t-145.5 312z" />
<glyph unicode="&#x418;" horiz-adv-x="1574" d="M77 0v126l163 28v1147l-163 28v127h163h197h163v-127l-163 -28v-839l6 -2l700 749v92l-163 28v127h163h197h163v-127l-163 -28v-1147l163 -28v-126h-523v126l163 28v812l-6 2l-700 -750v-64l163 -28v-126h-523z" />
<glyph unicode="&#x419;" horiz-adv-x="1574" d="M77 0v126l163 28v1147l-163 28v127h163h197h163v-127l-163 -28v-839l6 -2l700 749v92l-163 28v127h163h197h163v-127l-163 -28v-1147l163 -28v-126h-523v126l163 28v812l-6 2l-700 -750v-64l163 -28v-126h-523zM77 0zM488 1862l2 6h150q0 -65 34.5 -106.5t108.5 -41.5 q72 0 107 41.5t35 106.5h151l2 -6q4 -116 -77 -189t-218 -73q-138 0 -219 73t-76 189z" />
<glyph unicode="&#x41a;" horiz-adv-x="1452" d="M71 0v126l163 28v1147l-163 28v127h523v-127l-163 -28v-501h159l329 474q81 112 141 152.5t139 40.5q47 0 79.5 -11.5t68.5 -33.5l-29 -139q-27 5 -47.5 8.5t-40.5 3.5q-47 0 -79.5 -25t-75.5 -85l-313 -436l484 -598l137 -25v-126h-478v126l111 14l-397 494h-188v-480 l163 -28v-126h-523z" />
<glyph unicode="&#x41b;" horiz-adv-x="1512" d="M57 0v154h40q135 0 190.5 137.5t70.5 478.5l24 532l-156 27v127h1215v-127l-163 -28v-1147l163 -28v-126h-523v126l163 28v1147h-503l-24 -531q-19 -410 -114.5 -590t-330.5 -180h-52z" />
<glyph unicode="&#x41c;" horiz-adv-x="1905" d="M71 0v126l163 28v1147l-163 28v127h163h252l464 -1183h6l463 1183h416v-127l-163 -28v-1147l163 -28v-126h-523v126l163 28v422l19 590l-5 1l-471 -1167h-131l-471 1166l-5 -1l20 -589v-422l163 -28v-126h-523zM71 0z" />
<glyph unicode="&#x41d;" horiz-adv-x="1573" d="M71 0v126l163 28v1147l-163 28v127h523v-127l-163 -28v-503h706v503l-163 28v127h163h197h163v-127l-163 -28v-1147l163 -28v-126h-523v126l163 28v489h-706v-489l163 -28v-126h-523zM71 0z" />
<glyph unicode="&#x41e;" horiz-adv-x="1445" d="M79 0zM79 717v21q0 317 176 528t458 211q290 0 472.5 -211t182.5 -528v-21q0 -318 -182.5 -528t-472.5 -210q-282 0 -458 210t-176 528zM276 717q0 -256 115.5 -416.5t321.5 -160.5q218 0 338 160t120 417v23q0 254 -121.5 414.5t-336.5 160.5q-206 0 -321.5 -161 t-115.5 -414v-23z" />
<glyph unicode="&#x41f;" horiz-adv-x="1576" d="M77 0v126l163 28v1147l-163 28v127h1428v-127l-163 -28v-1147l163 -28v-126h-523v126l163 28v1147h-708v-1147l163 -28v-126h-523zM77 0z" />
<glyph unicode="&#x420;" horiz-adv-x="1301" d="M71 0v126l163 28v1147l-163 28v127h163h506q233 0 362.5 -120t129.5 -316q0 -198 -129.5 -317t-362.5 -119h-309v-430l163 -28v-126h-523zM71 0zM431 738h309q148 0 221.5 79.5t73.5 200.5t-73.5 202t-221.5 81h-309v-563z" />
<glyph unicode="&#x421;" horiz-adv-x="1321" d="M71 0zM71 717v21q0 320 179 529.5t469 209.5q166 0 292 -64.5t189 -144.5v-259h-139l-37 206q-48 47 -118 77t-167 30q-227 0 -349 -164.5t-122 -417.5v-23q0 -253 119.5 -418.5t331.5 -165.5q99 0 180 31t125 76l37 206h139v-259q-63 -81 -189 -144.5t-292 -63.5 q-284 0 -466 210t-182 528z" />
<glyph unicode="&#x422;" horiz-adv-x="1284" d="M37 0zM37 1134v322h1210v-322h-168l-15 167h-323v-1147l163 -28v-126h-523v126l163 28v1147h-324l-14 -167h-169z" />
<glyph unicode="&#x423;" horiz-adv-x="1360" d="M54 1329v127h457v-127l-122 -19l221 -535l73 -188h6l273 722l-127 20v127h465v-127l-114 -17l-449 -1073q-59 -131 -128.5 -195.5t-221.5 -64.5q-25 0 -58.5 3t-42.5 6l6 149q10 -2 43 -3t50 -1q71 0 101.5 35.5t69.5 116.5l39 83l-423 943z" />
<glyph unicode="&#x424;" horiz-adv-x="1600" d="M84 723q0 240 168.5 395t420.5 155h29v107l-163 29v126h523v-126l-163 -29v-107h26q252 0 421.5 -154t169.5 -394q0 -242 -169.5 -396.5t-421.5 -154.5h-26v-98l163 -29v-126h-523v126l163 29v98h-29q-253 0 -421 153.5t-168 395.5zM279 723q0 -183 102.5 -289 t291.5 -106h29v790h-29q-189 0 -291.5 -107t-102.5 -288zM899 328h28q186 0 289.5 107t103.5 290q0 180 -103.5 286.5t-289.5 106.5h-28v-790z" />
<glyph unicode="&#x425;" horiz-adv-x="1404" d="M43 0v126l131 22l414 586l-404 573l-131 22v127h472v-127l-117 -13l291 -437l294 437l-117 13v127h475v-127l-131 -22l-404 -573l413 -586l132 -22v-126h-471v126l115 13l-302 448l-303 -448l117 -13v-126h-474zM43 0z" />
<glyph unicode="&#x426;" horiz-adv-x="1594" d="M77 0v126l163 28v1147l-163 28v127h163h197h163v-127l-163 -28v-1147h708v1147l-163 28v127h523v-127l-163 -28v-1147h190v-505h-195v351h-1260z" />
<glyph unicode="&#x427;" horiz-adv-x="1526" d="M59 1329v127h523v-127l-163 -28v-305q0 -165 69 -228.5t222 -63.5q104 0 200 14t195 41v542l-163 28v127h163h361v-127l-163 -28v-1147l163 -28v-126h-524v126l163 28v449q-95 -29 -184 -42t-211 -13q-240 0 -364 105t-124 343v305z" />
<glyph unicode="&#x428;" horiz-adv-x="2037" d="M77 0v126l163 28v1147l-163 28v127h360h163v-127l-163 -28v-1147h492v1147l-163 28v127h522v-127l-163 -28v-1147h490v1147l-163 28v127h163h197h163v-127l-163 -28v-1147l163 -28v-126h-1898z" />
<glyph unicode="&#x429;" horiz-adv-x="2044" d="M77 0v126l163 28v1147l-163 28v127h163h197h163v-127l-163 -28v-1147h492v1147l-163 28v127h163h359v-127l-163 -28v-1147h490v1147l-163 28v127h163h360v-127l-163 -28v-1146h180l-20 -506h-175v351h-1720z" />
<glyph unicode="&#x42a;" horiz-adv-x="1740" d="M62 1135v321h729h163v-127l-163 -28v-441h359q234 0 362.5 -115t128.5 -311q0 -197 -129 -315.5t-362 -118.5h-719v126l163 28v1147h-349l-14 -166h-169zM791 154h359q148 0 221 80t73 202q0 118 -73 193.5t-221 75.5h-359v-551z" />
<glyph unicode="&#x42b;" horiz-adv-x="1913" d="M87 0v126l163 28v1147l-163 28v127h163h197v-596h359q234 0 362.5 -115t128.5 -311q0 -197 -129 -315.5t-362 -118.5h-719zM447 154h359q148 0 221 80t73 202q0 118 -73 193.5t-221 75.5h-359v-551zM447 1301v155h163v-127zM1329 0v126l163 28v1147l-163 28v127h523v-127 l-163 -28v-1147l163 -28v-126h-523z" />
<glyph unicode="&#x42c;" horiz-adv-x="1358" d="M70 0v126l163 28v1147l-163 28v127h163h197v-596h359q234 0 362.5 -115t128.5 -311q0 -197 -129 -315.5t-362 -118.5h-719zM430 154h359q148 0 221 80t73 202q0 118 -73 193.5t-221 75.5h-359v-551zM430 1301v155h163v-127z" />
<glyph unicode="&#x42d;" horiz-adv-x="1257" d="M83 188v259h138l37 -206q43 -45 124 -76t181 -31q194 0 303.5 142.5t120.5 368.5l-2 5h-554v154h555l2 5q-10 228 -122.5 371t-322.5 143q-98 0 -168 -30t-117 -77l-37 -206h-138v259q61 79 187 143.5t293 64.5q288 0 458.5 -208t170.5 -530v-21q0 -321 -174 -529.5 t-455 -208.5q-167 0 -293 64t-187 144z" />
<glyph unicode="&#x42e;" horiz-adv-x="1994" d="M47 0v126l163 28v1147l-163 28v127h523v-127l-163 -28v-515h214q15 298 189.5 492.5t443.5 194.5q290 0 472.5 -211t182.5 -528v-21q0 -318 -182.5 -528t-472.5 -210q-263 0 -435.5 184.5t-195.5 472.5h-216v-478l163 -28v-126h-523zM817 713q0 -256 115.5 -416.5 t321.5 -160.5q218 0 338 160t120 417v23q0 254 -121.5 414.5t-336.5 160.5q-206 0 -321.5 -161t-115.5 -414v-23z" />
<glyph unicode="&#x42f;" horiz-adv-x="1384" d="M56 34l28 139q17 -5 30.5 -7.5t30.5 -2.5q41 0 71.5 24t58.5 69l206 356q-156 51 -238 153.5t-82 252.5q0 208 137 323t378 115h630v-127l-163 -28v-1147l163 -28v-126h-361v570h-295l-219 -403q-49 -85 -112 -130t-138 -45q-42 0 -69.5 10t-55.5 32zM358 1020 q0 -131 82 -212.5t235 -81.5h270v575h-269q-156 0 -237 -75t-81 -206zM782 0v126l163 28v-154h-163z" />
<glyph unicode="&#x430;" horiz-adv-x="1128" d="M104 0zM104 294q0 154 124.5 237.5t341.5 83.5h203v126q0 95 -60 150.5t-167 55.5q-74 0 -130.5 -19t-91.5 -52l-21 -114h-152v210q74 59 179 94.5t228 35.5q184 0 298 -94t114 -269v-521q0 -21 0.5 -41t2.5 -40l80 -11v-126h-258q-9 44 -14 79t-7 70 q-57 -73 -142.5 -121.5t-182.5 -48.5q-169 0 -257 82.5t-88 232.5zM301 290q0 -71 44 -108.5t133 -37.5q98 0 179 47t116 113v178h-210q-121 0 -191.5 -56t-70.5 -136z" />
<glyph unicode="&#x431;" horiz-adv-x="1166" d="M106 508v140q0 320 134 510t360 235q126 23 182.5 55t56.5 105h152l2 -6q3 -176 -83 -231t-273 -87q-137 -23 -233.5 -105.5t-118.5 -241.5l4 -5q59 63 148.5 103t190.5 40q206 0 326 -137.5t120 -352.5v-22q0 -233 -130 -381t-354 -148t-354 148t-130 381zM303 508 q0 -163 72 -269t215 -106q141 0 214 106t73 269v22q0 144 -73.5 240t-215.5 96q-141 0 -213 -96t-72 -240v-22z" />
<glyph unicode="&#x432;" horiz-adv-x="1271" d="M97 0v126l163 28v773l-163 28v127h163h426q214 0 332 -74.5t118 -223.5q0 -76 -46 -135.5t-130 -90.5q101 -25 158 -93.5t57 -156.5q0 -152 -110.5 -230t-309.5 -78h-658zM457 152h298q110 0 166 41.5t56 119.5q0 77 -56 119t-166 42h-298v-322zM457 625h230 q125 0 188.5 37t63.5 112q0 77 -63.5 116t-189.5 39h-229v-304z" />
<glyph unicode="&#x433;" horiz-adv-x="1075" d="M72 0v126l163 28v773l-163 28v127h851v-2h32v-277h-128l-14 123h-381v-772l163 -28v-126h-523z" />
<glyph unicode="&#x434;" horiz-adv-x="1304" d="M66 154h85q83 96 127 200.5t59 320.5l10 253l-157 27v127h870h163v-127l-163 -28v-773h144l-20 -472h-177v318h-745v-318h-177zM378 154h485v753h-320l-9 -232q-11 -180 -51.5 -307t-104.5 -214z" />
<glyph unicode="&#x435;" horiz-adv-x="1101" d="M90 0zM90 520v44q0 231 137.5 384.5t325.5 153.5q218 0 330.5 -132t112.5 -352v-123h-702l-3 -5q3 -156 79 -256.5t213 -100.5q100 0 175.5 28.5t130.5 78.5l77 -128q-58 -56 -153.5 -94.5t-229.5 -38.5q-226 0 -359.5 150.5t-133.5 390.5zM298 654l2 -5h499v26 q0 116 -62 194t-184 78q-99 0 -169 -83.5t-86 -209.5z" />
<glyph unicode="&#x436;" horiz-adv-x="1728" d="M39 0v126l154 22l281 418l-181 272q-29 43 -61.5 67t-73.5 24q-21 0 -27 -1t-49 -8l-28 134q37 24 67 35.5t77 11.5q75 0 137.5 -45t112.5 -128l187 -303h119v302l-163 28v127h163h360v-127l-163 -28v-302h129l187 303q49 83 111.5 128t139.5 45q46 0 76.5 -12t66.5 -35 l-27 -134q-43 7 -49.5 8t-26.5 1q-42 0 -75 -24t-60 -67l-187 -280l277 -410l153 -22v-126h-302l-281 459h-132v-305l163 -28v-126h-523v126l163 28v305h-133l-280 -459h-302z" />
<glyph unicode="&#x437;" horiz-adv-x="1048" d="M89 314l2 6h187q0 -76 66 -132t170 -56q107 0 166 49.5t59 123.5q0 87 -51.5 127t-160.5 40h-188v160h188q104 0 148.5 39.5t44.5 114.5q0 68 -51 115t-155 47q-93 0 -156 -49t-63 -119h-187l-2 6q-6 139 113 226.5t295 87.5q190 0 297 -81.5t107 -232.5q0 -73 -44 -134 t-123 -96q91 -32 139 -95.5t48 -155.5q0 -152 -116.5 -238t-307.5 -86q-177 0 -303.5 85.5t-121.5 247.5z" />
<glyph unicode="&#x438;" horiz-adv-x="1396" d="M97 0v126l163 28v773l-163 28v127h359h163v-127l-163 -28v-611l6 -2l477 768h197h163v-127l-163 -28v-773l163 -28v-126h-523v126l163 28v612l-6 2l-477 -768h-359z" />
<glyph unicode="&#x439;" horiz-adv-x="1396" d="M97 0v126l163 28v773l-163 28v127h359h163v-127l-163 -28v-611l6 -2l477 768h197h163v-127l-163 -28v-773l163 -28v-126h-523v126l163 28v612l-6 2l-477 -768h-359zM97 0zM414 1536l2 6h150q0 -65 34.5 -106.5t108.5 -41.5q72 0 107 41.5t35 106.5h151l2 -6 q4 -116 -77 -189t-218 -73q-138 0 -219 73t-76 189z" />
<glyph unicode="&#x43a;" horiz-adv-x="1264" d="M97 0v126l163 28v773l-163 28v127h523v-127l-163 -28v-302h104l226 303q61 85 119.5 129t131.5 44q46 0 76 -11.5t68 -35.5l-28 -134q-43 7 -49.5 8t-26.5 1q-37 0 -72.5 -27t-62.5 -64l-209 -271l341 -416l139 -25v-126h-263l-366 459h-128v-305l163 -28v-126h-523z" />
<glyph unicode="&#x43b;" horiz-adv-x="1316" d="M69 0l3 168l41 1q106 0 147.5 103t41.5 348v307l-163 28v127h924h163v-127l-163 -28v-773l163 -28v-126h-523v126l163 28v772h-367v-306q0 -320 -84.5 -470t-289.5 -150h-56z" />
<glyph unicode="&#x43c;" horiz-adv-x="1724" d="M97 0v126l163 28v773l-163 28v127h163h254l352 -824h6l353 824h247h163v-127l-163 -28v-773l163 -28v-126h-523v126l163 28v597l-6 2l-332 -753h-136l-338 769l-6 -2v-613l163 -28v-126h-523z" />
<glyph unicode="&#x43d;" horiz-adv-x="1395" d="M97 0v126l163 28v773l-163 28v127h523v-127l-163 -28v-313h481v313l-163 28v127h163h198h163v-127l-163 -28v-773l163 -28v-126h-524v126l163 28v306h-481v-306l163 -28v-126h-523z" />
<glyph unicode="&#x43e;" horiz-adv-x="1149" d="M90 0zM90 529v22q0 240 130 395.5t353 155.5q224 0 354.5 -155t130.5 -396v-22q0 -242 -130 -396t-353 -154q-225 0 -355 154.5t-130 395.5zM287 529q0 -172 72.5 -284t215.5 -112q140 0 213 112t73 284v22q0 170 -73 283t-215 113t-214 -113t-72 -283v-22z" />
<glyph unicode="&#x43f;" horiz-adv-x="1396" d="M97 0v126l163 28v773l-163 28v127h1202v-127l-163 -28v-773l163 -28v-126h-523v126l163 28v772h-482v-772l163 -28v-126h-523z" />
<glyph unicode="&#x440;" horiz-adv-x="1240" d="M65 0zM65 -289l163 28v1188l-163 28v127h332l18 -132q54 74 131.5 113t179.5 39q201 0 312.5 -159.5t111.5 -421.5v-21q0 -234 -112 -377.5t-309 -143.5q-100 0 -175.5 33.5t-128.5 99.5v-373l163 -28v-127h-523v127zM425 273q37 -67 96.5 -103.5t146.5 -36.5 q140 0 212 102t72 265v21q0 185 -72 303t-214 118q-84 0 -144 -38t-97 -104v-527z" />
<glyph unicode="&#x441;" horiz-adv-x="1104" d="M90 520v42q0 231 125 385.5t360 154.5q130 0 233.5 -43t171.5 -118l9 -240h-157l-43 170q-35 34 -90 55t-124 21q-155 0 -221.5 -111.5t-66.5 -273.5v-42q0 -166 66 -276.5t222 -110.5q98 0 172.5 60.5t74.5 148.5h177l2 -6q5 -140 -124.5 -248.5t-301.5 -108.5 q-236 0 -360.5 154t-124.5 387z" />
<glyph unicode="&#x442;" horiz-adv-x="1186" d="M78 760v322h1024v-322h-169l-15 169h-232v-775l163 -28v-126h-523v126l163 28v775h-228l-15 -169h-168z" />
<glyph unicode="&#x443;" horiz-adv-x="1162" d="M35 0zM35 955v127h437v-127l-122 -20l187 -534l36 -138h6l225 672l-123 20v127h436v-127l-97 -15l-412 -1106q-41 -109 -118 -190t-207 -81q-23 0 -60 5.5t-57 10.5l20 155q-6 1 35.5 -2t52.5 -3q63 0 102 54.5t68 125.5l47 112l-357 918z" />
<glyph unicode="&#x444;" horiz-adv-x="1471" d="M91 500v21q0 263 101.5 422t291.5 159q40 0 76 -7t68 -19v329l-163 28v127h360v-490q34 15 74 23.5t87 8.5q189 0 291.5 -159t102.5 -422v-21q0 -236 -102.5 -378.5t-289.5 -142.5q-47 0 -88 8t-75 22v-270l163 -28v-127h-523v127l163 28v266q-32 -12 -68.5 -19t-77.5 -7 q-187 0 -289 142.5t-102 378.5zM288 500q0 -167 57.5 -267t186.5 -100q28 0 52 3.5t44 10.5v786q-20 6 -43.5 10t-50.5 4q-130 0 -188 -118t-58 -308v-21zM825 147q20 -7 45.5 -10.5t57.5 -3.5q129 0 191.5 101t62.5 266v21q0 188 -63 307t-193 119q-30 0 -55 -4.5 t-46 -12.5v-783z" />
<glyph unicode="&#x445;" horiz-adv-x="1192" d="M62 0v126l116 23l319 398l-309 385l-116 23v127h424v-127l-98 -12l202 -260l203 261l-97 11v127h427v-127l-116 -23l-309 -385l318 -398l117 -23v-126h-424v126l96 11l-212 272l-212 -272l97 -11v-126h-426zM62 0z" />
<glyph unicode="&#x446;" horiz-adv-x="1362" d="M70 0v126l163 28v773l-163 28v127h360h163v-127l-163 -28v-773h482v773l-163 28v127h163h197v-928h133l-19 -475h-176v321h-977zM1109 927v155h163v-127z" />
<glyph unicode="&#x447;" horiz-adv-x="1355" d="M65 957v126h360h163v-126l-163 -28v-164q0 -130 55.5 -191t165.5 -61q66 0 126 7.5t119 22.5v384l-163 28v127h523v-127l-163 -28v-773l163 -28v-126h-523v126l163 28v232q-58 -15 -118 -22t-127 -7q-196 0 -307 103t-111 305v164z" />
<glyph unicode="&#x448;" horiz-adv-x="1872" d="M97 0v126l163 28v773l-163 28v127h360h163v-127l-163 -28v-773h380v928h197v-928h381v773l-163 28v127h360h163v-127l-163 -28v-773l163 -28v-126h-1678z" />
<glyph unicode="&#x449;" horiz-adv-x="1873" d="M85 0v126l163 28v773l-163 28v127h163h197h163v-127l-163 -28v-773h380v928h197v-928h381v773l-163 28v127h523v-127l-163 -28v-772h174l-20 -476h-175v321h-1494z" />
<glyph unicode="&#x44a;" horiz-adv-x="1420" d="M31 761v321h617h163v-127l-163 -28v-217h268q192 0 299 -97.5t107 -253.5q0 -157 -107.5 -258t-298.5 -101h-628v126l163 28v773h-237l-14 -166h-169zM648 154h268q107 0 157.5 56.5t50.5 141.5q0 82 -51 143t-157 61h-268v-402z" />
<glyph unicode="&#x44b;" horiz-adv-x="1732" d="M97 0v126l163 28v773l-163 28v127h163h197v-372h268q192 0 299 -97.5t107 -253.5q0 -157 -107.5 -258t-298.5 -101h-628zM457 154h268q107 0 157.5 56.5t50.5 141.5q0 82 -51 143t-157 61h-268v-402zM457 927v155h163v-127zM1153 0v126l163 28v773l-163 28v127h360v-928 l163 -28v-126h-523z" />
<glyph unicode="&#x44c;" horiz-adv-x="1212" d="M97 0v126l163 28v773l-163 28v127h163h197v-372h268q192 0 299 -97.5t107 -253.5q0 -157 -107.5 -258t-298.5 -101h-628zM457 154h268q107 0 157.5 56.5t50.5 141.5q0 82 -51 143t-157 61h-268v-402zM457 927v155h163v-127z" />
<glyph unicode="&#x44d;" horiz-adv-x="1089" d="M97 336l2 6h178q0 -88 74 -148.5t173 -60.5q144 0 210.5 96t70.5 240l-2 5h-400v154h399l2 5q-8 134 -75.5 224t-204.5 90q-70 0 -125 -21t-90 -55l-42 -170h-158l10 240q67 75 170.5 118t234.5 43q234 0 359.5 -154.5t125.5 -385.5v-42q0 -233 -125 -387t-360 -154 q-173 0 -303 108.5t-124 248.5z" />
<glyph unicode="&#x44e;" horiz-adv-x="1766" d="M69 0v126l163 28v773l-163 28v127h360v-457h265q20 212 147.5 344.5t332.5 132.5q224 0 354.5 -155t130.5 -396v-22q0 -242 -130 -396t-353 -154q-211 0 -339 136.5t-144 355.5h-264v-317l163 -28v-126h-523zM888 529q0 -172 72.5 -284t215.5 -112q140 0 213 112t73 284 v22q0 170 -73 283t-215 113t-214 -113t-72 -283v-22z" />
<glyph unicode="&#x44f;" horiz-adv-x="1302" d="M65 0v126l142 21l185 302q-103 37 -158.5 117t-55.5 185q0 146 111 238.5t304 92.5h457h163v-127l-163 -28v-773l163 -28v-126h-523v126l163 28v266h-267l-256 -420h-265zM376 749q0 -72 49.5 -123t147.5 -51h280v354h-260q-107 0 -162 -53.5t-55 -126.5z" />
<glyph unicode="&#x450;" horiz-adv-x="1101" d="M90 0zM90 520v44q0 231 137.5 384.5t325.5 153.5q218 0 330.5 -132t112.5 -352v-123h-702l-3 -5q3 -156 79 -256.5t213 -100.5q100 0 175.5 28.5t130.5 78.5l77 -128q-58 -56 -153.5 -94.5t-229.5 -38.5q-226 0 -359.5 150.5t-133.5 390.5zM233 1495l3 6h230l175 -266 h-159zM298 654l2 -5h499v26q0 116 -62 194t-184 78q-99 0 -169 -83.5t-86 -209.5z" />
<glyph unicode="&#x451;" horiz-adv-x="1101" d="M90 0zM90 520v44q0 231 137.5 384.5t325.5 153.5q218 0 330.5 -132t112.5 -352v-123h-702l-3 -5q3 -156 79 -256.5t213 -100.5q100 0 175.5 28.5t130.5 78.5l77 -128q-58 -56 -153.5 -94.5t-229.5 -38.5q-226 0 -359.5 150.5t-133.5 390.5zM193 1280v200h218v-200h-218z M298 654l2 -5h499v26q0 116 -62 194t-184 78q-99 0 -169 -83.5t-86 -209.5zM663 1280v200h218v-200h-218z" />
<glyph unicode="&#x452;" horiz-adv-x="1298" d="M31 1180v113h194v112l-163 28v127h360v-267h214v-113h-214v-242q56 78 137 121t180 43q174 0 270 -104t96 -320v-767q0 -167 -85.5 -257.5t-239.5 -90.5q-32 0 -58.5 4.5t-54.5 13.5l15 150q13 -5 47 -9t51 -4q60 0 94 51.5t34 141.5v769q0 134 -57.5 198t-171.5 64 q-81 0 -147.5 -38.5t-109.5 -104.5v-645l163 -28v-126h-523v126l163 28v1026h-194z" />
<glyph unicode="&#x453;" horiz-adv-x="1075" d="M72 0v126l163 28v773l-163 28v127h851v-2h32v-277h-128l-14 123h-381v-772l163 -28v-126h-523zM72 0zM449 1249l184 266h230l2 -6l-269 -260h-147z" />
<glyph unicode="&#x454;" horiz-adv-x="1118" d="M114 520v42q0 231 125 385.5t360 154.5q130 0 233.5 -43t171.5 -118l9 -240h-157l-43 170q-35 34 -90 55t-124 21q-141 0 -208.5 -93.5t-72.5 -231.5l2 -5h364v-154h-364l-2 -5q5 -141 72 -233t209 -92q98 0 172.5 60.5t74.5 148.5h177l2 -6q5 -140 -124.5 -248.5 t-301.5 -108.5q-236 0 -360.5 154t-124.5 387z" />
<glyph unicode="&#x455;" horiz-adv-x="1044" d="M118 0zM118 784q0 132 112.5 225t292.5 93q123 0 221 -32t163 -89l10 -239h-148l-32 130q-36 34 -90.5 54.5t-123.5 20.5q-105 0 -156 -46t-51 -111q0 -64 45 -101t183 -66q205 -44 305 -119.5t100 -202.5q0 -144 -116.5 -233t-304.5 -89q-123 0 -221 28.5t-175 82.5 l-1 247h148l37 -145q34 -31 92.5 -45t119.5 -14q105 0 164.5 42.5t59.5 111.5q0 65 -49.5 107t-187.5 73q-197 43 -297 117t-100 200z" />
<glyph unicode="&#x456;" horiz-adv-x="673" d="M89 0v126l163 28v773l-163 28v127h360v-928l163 -28v-126h-523zM89 0zM252 1359v201h197v-201h-197z" />
<glyph unicode="&#x457;" horiz-adv-x="672" d="M-16 1279v200h218v-200h-218zM0 0zM90 0v126l163 28v773l-163 28v127h360v-928l163 -28v-126h-523zM454 1279v200h218v-200h-218z" />
<glyph unicode="&#x458;" horiz-adv-x="571" d="M-13 -419l13 155q14 -5 41 -8.5t44 -3.5q65 0 103.5 44t38.5 143v1016l-163 28v127h360v-1171q0 -167 -86 -257.5t-239 -90.5q-32 0 -58 4.5t-54 13.5zM0 0zM221 1363v197h197v-197h-197z" />
<glyph unicode="&#x459;" horiz-adv-x="1786" d="M65 0l3 158l41 1q106 0 152.5 109t46.5 352v307l-163 28v127h1038v-127l-163 -28v-256h268q192 0 299 -92.5t107 -239.5q0 -148 -107.5 -243.5t-298.5 -95.5h-628v126l163 28v772h-318v-306q0 -318 -89 -469t-295 -151h-56zM1020 152h268q106 0 157 56t51 133 q0 73 -50.5 124.5t-157.5 51.5h-268v-365z" />
<glyph unicode="&#x45a;" horiz-adv-x="1894" d="M97 0v126l163 28v773l-163 28v127h523v-127l-163 -28v-253h481v253l-163 28v127h361h163v-127l-163 -28v-257h268q192 0 299 -92t107 -239q0 -148 -107.5 -243.5t-298.5 -95.5h-629v126l163 28v367h-481v-367l163 -28v-126h-523zM1136 152h268q106 0 157 56t51 133 q0 73 -50.5 124.5t-157.5 51.5h-268v-365z" />
<glyph unicode="&#x45b;" horiz-adv-x="1322" d="M49 1162v155h176v88l-163 28v127h360v-243h268v-155h-268v-224q56 78 137 121t180 43q174 0 270 -104t96 -320v-524l163 -28v-126h-523v126l163 28v526q0 134 -57.5 198t-171.5 64q-81 0 -147.5 -38.5t-109.5 -104.5v-645l163 -28v-126h-523v126l163 28v1008h-176z" />
<glyph unicode="&#x45c;" horiz-adv-x="1264" d="M97 0v126l163 28v773l-163 28v127h523v-127l-163 -28v-302h104l226 303q61 85 119.5 129t131.5 44q46 0 76 -11.5t68 -35.5l-28 -134q-43 7 -49.5 8t-26.5 1q-37 0 -72.5 -27t-62.5 -64l-209 -271l341 -416l139 -25v-126h-263l-366 459h-128v-305l163 -28v-126h-523z M97 0zM571 1231l184 266h230l2 -6l-269 -260h-147z" />
<glyph unicode="&#x45d;" horiz-adv-x="1396" d="M97 0v126l163 28v773l-163 28v127h359h163v-127l-163 -28v-611l6 -2l477 768h197h163v-127l-163 -28v-773l163 -28v-126h-523v126l163 28v612l-6 2l-477 -768h-359zM97 0zM395 1494l3 6h230l175 -266h-159z" />
<glyph unicode="&#x45e;" horiz-adv-x="1162" d="M35 0zM35 955v127h437v-127l-122 -20l187 -534l36 -138h6l225 672l-123 20v127h436v-127l-97 -15l-412 -1106q-41 -109 -118 -190t-207 -81q-23 0 -60 5.5t-57 10.5l20 155q-6 1 35.5 -2t52.5 -3q63 0 102 54.5t68 125.5l47 112l-357 918zM274 1536l2 6h150 q0 -65 34.5 -106.5t108.5 -41.5q72 0 107 41.5t35 106.5h151l2 -6q4 -116 -77 -189t-218 -73q-138 0 -219 73t-76 189z" />
<glyph unicode="&#x45f;" horiz-adv-x="1397" d="M98 0v126l163 28v773l-163 28v127h360h163v-127l-163 -28v-773h482v773l-163 28v127h163h197h163v-127l-163 -28v-773l163 -28v-126h-500v-356h-197v356h-505z" />
<glyph unicode="&#x460;" horiz-adv-x="1763" d="M144 391v1065h197v-1065q0 -126 55.5 -192t146.5 -66q108 0 174.5 65.5t66.5 192.5v1065h204v-1065q0 -126 61 -192t161 -66q99 0 160 66t61 192v1065h197v-1065q0 -201 -115.5 -306.5t-302.5 -105.5q-109 0 -194 43.5t-132 129.5q-51 -86 -139.5 -129.5t-201.5 -43.5 q-180 0 -289.5 105.5t-109.5 306.5z" />
<glyph unicode="&#x461;" horiz-adv-x="1605" d="M150 352v730h197v-730q0 -108 44 -163.5t118 -55.5q90 0 146 56t56 163v730h198v-730q0 -108 49.5 -163.5t132.5 -55.5q81 0 131.5 56t50.5 163v730h197v-730q0 -182 -105 -277.5t-274 -95.5q-94 0 -167 36t-116 107q-47 -71 -124.5 -107t-174.5 -36q-162 0 -260.5 95.5 t-98.5 277.5z" />
<glyph unicode="&#x462;" horiz-adv-x="1358" d="M20 1015v155h213v131l-163 28v127h360v-286h231v-155h-231v-155h359q234 0 362.5 -115t128.5 -311q0 -197 -129 -315.5t-362 -118.5h-719v126l163 28v861h-213zM430 154h359q148 0 221 80t73 202q0 118 -73 193.5t-221 75.5h-359v-551zM430 1301v155h163v-127z" />
<glyph unicode="&#x463;" horiz-adv-x="1204" d="M75 1082v154h191v169l-163 28v127h360v-324h321v-154h-321v-334h268q192 0 299 -102.5t107 -267.5t-107.5 -271.5t-298.5 -106.5h-628v126l163 28v928h-191zM463 154h268q107 0 157.5 62t50.5 155q0 90 -51 156.5t-157 66.5h-268v-440z" />
<glyph unicode="&#x464;" horiz-adv-x="1804" d="M57 0v126l163 28v1147l-163 28v127h163h197h163v-127l-163 -28v-467h195q27 284 202 464t442 180q166 0 292 -64.5t189 -144.5v-259h-139l-37 206q-48 47 -118 77t-167 30q-205 0 -324.5 -135t-137.5 -348l3 -6h543v-155h-547l-3 -5q6 -235 124.5 -387.5t321.5 -152.5 q99 0 180 31t125 76l37 206h139v-259q-63 -81 -189 -144.5t-292 -63.5q-274 0 -454.5 197.5t-192.5 501.5h-192v-525l163 -28v-126h-523z" />
<glyph unicode="&#x465;" horiz-adv-x="1646" d="M88 0v126l163 28v773l-163 28v127h163h197v-466h215q14 211 138 348.5t345 137.5q130 0 233.5 -43t171.5 -118l9 -240h-157l-43 170q-35 34 -90 55t-124 21q-141 0 -208.5 -93.5t-72.5 -232.5l2 -5h360v-154h-360l-2 -5q5 -140 72 -232t209 -92q98 0 172.5 60.5 t74.5 148.5h177l2 -6q5 -140 -124.5 -248.5t-301.5 -108.5q-221 0 -344.5 135.5t-138.5 347.5h-215v-308l163 -28v-126h-523z" />
<glyph unicode="&#x466;" horiz-adv-x="1427" d="M52 0v126l104 15l474 1315h168l465 -1315l104 -15v-126h-418v126l113 19l-105 312h-155v-457h-196v457h-142l-108 -312l113 -19v-126h-417zM521 621h380l-185 544h-6z" />
<glyph unicode="&#x467;" horiz-adv-x="1203" d="M60 0v126l70 13l384 943h169l386 -943l72 -13v-126h-216l-119 294h-106v-294h-196v294h-113l-116 -294h-215zM452 449h292l-126 312l-18 68h-6l-18 -68z" />
<glyph unicode="&#x468;" horiz-adv-x="1935" d="M40 0v126l163 28v1147l-163 28v127h163h197h163v-127l-163 -28v-679h478l301 834h168l465 -1315l104 -15v-126h-418v126l113 19l-105 312h-155v-457h-196v457h-142l-108 -312l113 -19v-126h-417v126l104 15l114 317h-419v-304l163 -28v-126h-523zM1070 621h380l-185 544 h-6z" />
<glyph unicode="&#x469;" horiz-adv-x="1760" d="M42 0v126l163 28v773l-163 28v127h163h197v-633h404l258 633h169l386 -943l72 -13v-126h-216l-119 294h-106v-294h-196v294h-113l-116 -294h-215v126l70 13l63 154h-341v-139l163 -28v-126h-523zM1002 449h292l-126 312l-18 68h-6l-18 -68z" />
<glyph unicode="&#x46a;" horiz-adv-x="1895" d="M55 0v126l163 28v217q0 234 123.5 338.5t363.5 104.5h37l-301 494l-144 21v127h1316v-127l-143 -21l-301 -494h22q239 0 363.5 -104.5t124.5 -338.5v-217l163 -28v-126h-523v126l163 28v217q0 162 -69 225t-222 63h-116l-25 -42v-463l163 -28v-126h-523v126l163 28v478 l-17 27h-131q-153 0 -221.5 -63t-68.5 -225v-217l163 -28v-126h-523zM666 1301l284 -487h10l284 487h-578z" />
<glyph unicode="&#x46b;" horiz-adv-x="1600" d="M68 0v126l124 28v8q0 226 106.5 330t311.5 111l-197 331l-142 21v127h1072v-127l-141 -21l-197 -331q197 -10 301 -115t104 -326v-8l124 -28v-126h-321v162q0 162 -59.5 225t-191.5 63h-48l-11 -19v-277l163 -28v-126h-523v126l163 28v287l-5 9h-61q-133 0 -192 -62.5 t-59 -225.5v-162h-321zM632 926l175 -319l176 319h-351z" />
<glyph unicode="&#x46c;" horiz-adv-x="2438" d="M56 0v126l163 28v1147l-163 28v127h523v-127l-163 -28v-486h891l-300 493l-144 21v127h1316v-127l-143 -21l-301 -494h22q239 0 363.5 -104.5t124.5 -338.5v-217l163 -28v-126h-523v126l163 28v217q0 162 -69 225t-222 63h-116l-25 -42v-463l163 -28v-126h-523v126 l163 28v478l-17 27h-131q-153 0 -221.5 -63t-68.5 -225v-217l163 -28v-126h-523v126l163 28v217q0 92 19.5 164t58.5 125h-446v-506l163 -28v-126h-523zM1232 1301l284 -487h10l284 487h-578z" />
<glyph unicode="&#x46d;" horiz-adv-x="2188" d="M18 0v126l163 28v773l-163 28v127h360v-477h764l-196 329l-142 21v127h1072v-127l-141 -21l-197 -331q197 -10 301 -115t104 -326v-8l124 -28v-126h-321v162q0 162 -59.5 225t-191.5 63h-48l-11 -19v-277l163 -28v-126h-523v126l163 28v287l-5 9h-61q-133 0 -192 -62.5 t-59 -225.5v-162h-321v126l124 28v8q0 92 18 163.5t54 124.5h-419v-296l163 -28v-126h-523zM1165 926l175 -319l176 319h-351z" />
<glyph unicode="&#x46e;" horiz-adv-x="1053" d="M42 1065l1 241q67 75 170.5 117.5t233.5 42.5q209 0 343 -111t134 -293q0 -103 -65 -185t-179 -126q129 -41 198 -129t69 -215q0 -200 -132.5 -313.5t-344.5 -113.5h-49q-76 0 -110.5 -29.5t-34.5 -82.5q0 -70 46.5 -112.5t112.5 -72.5l-79 -127q-111 47 -189 129 t-78 193q0 129 89.5 193t250.5 64h41q130 0 204.5 74.5t74.5 193.5q0 133 -82 200t-240 67h-143v155h143q154 0 227 63.5t73 177.5q0 104 -72 174.5t-208 70.5q-77 0 -136.5 -20.5t-97.5 -55.5l-13 -170h-158zM214 1886v20h166l146 -148l147 148h170v-18l-257 -245h-119z " />
<glyph unicode="&#x46f;" horiz-adv-x="947" d="M31 951q63 66 161.5 103t222.5 37q189 0 308 -88t119 -231q0 -74 -52.5 -136t-144.5 -99q106 -33 162.5 -94.5t56.5 -147.5q0 -150 -120.5 -232.5t-314.5 -82.5h-49q-75 0 -110 -29.5t-35 -82.5q0 -70 47 -112.5t113 -72.5l-80 -127q-111 47 -188.5 129t-78.5 193 q0 129 89.5 193t250.5 64h41q112 0 175 41.5t63 114.5q0 81 -72 122t-210 41h-142v155h142q132 0 196 45.5t64 121.5q0 67 -58 113.5t-172 47.5q-69 0 -123.5 -15.5t-89.5 -40.5l-14 -148h-156zM102 1543v20h166l146 -148l147 148h170v-18l-257 -245h-119z" />
<glyph unicode="&#x470;" horiz-adv-x="1665" d="M55 0zM55 1329v127h163h196v-531q0 -170 82 -275t218 -125l6 1v775l-163 28v127h360h163v-127l-163 -28v-776l6 -2q144 19 230.5 124t86.5 278v531h360v-127l-163 -28v-376q0 -245 -143 -393.5t-377 -172.5v-205l163 -28v-126h-523v126l163 28v206q-228 24 -365 172 t-137 393v376z" />
<glyph unicode="&#x471;" horiz-adv-x="1577" d="M-1 1042q40 28 92.5 44t105.5 16q97 0 149 -55.5t52 -178.5v-274q0 -204 82 -313.5t222 -130.5l6 2v929h197v-933l6 -2q183 20 271 141t88 280q-3 125 -35.5 253t-88.5 262h206q51 -106 83 -234t32 -281q0 -241 -135.5 -402.5t-426.5 -182.5v-456h-197v460 q-243 27 -375 178t-132 432v225q0 57 -20 79t-54 22q-20 0 -45.5 -7.5t-38.5 -13.5zM0 0z" />
<glyph unicode="&#x472;" horiz-adv-x="1403" d="M79 717v21q0 317 176 528t458 211q290 0 472.5 -211t182.5 -528v-21q0 -318 -182.5 -528t-472.5 -210q-282 0 -458 210t-176 528zM282 801l2 -5h878l2 5q-10 227 -129 370.5t-322 143.5q-194 0 -308 -143.5t-123 -370.5zM284 636q13 -222 126 -359t303 -137 q201 0 318.5 136.5t131.5 359.5l-2 5h-875z" />
<glyph unicode="&#x473;" horiz-adv-x="1186" d="M104 529v22q0 240 130 395.5t353 155.5q224 0 354.5 -155t130.5 -396v-22q0 -242 -130 -396t-353 -154q-225 0 -355 154.5t-130 395.5zM308 464q7 -146 78.5 -238.5t202.5 -92.5q128 0 199 92.5t79 238.5l-2 5h-555zM309 629l2 -5h553l2 5q-11 139 -82.5 228.5 t-196.5 89.5q-126 0 -196.5 -89.5t-81.5 -228.5z" />
<glyph unicode="&#x474;" horiz-adv-x="1387" d="M57 1329v127h430v-127l-116 -20l298 -927l33 -121h6l33 121l253 805q49 156 114.5 222.5t173.5 66.5l50 -1l-1 -169h-12q-50 0 -80 -31.5t-58 -111.5l-392 -1163h-169l-461 1314z" />
<glyph unicode="&#x475;" horiz-adv-x="1164" d="M65 955v127h417v-127l-118 -20l190 -616l18 -77h6l19 77l149 535q41 127 107 187t148 60q34 0 59 -5t50 -20l-22 -151q-5 3 -16 5.5t-24 2.5q-32 0 -61.5 -26t-42.5 -68l-296 -839h-149l-331 940z" />
<glyph unicode="&#x476;" horiz-adv-x="1387" d="M57 0zM57 1329v127h430v-127l-116 -20l298 -927l33 -121h6l33 121l253 805q49 156 114.5 222.5t173.5 66.5l50 -1l-1 -169h-12q-50 0 -80 -31.5t-58 -111.5l-392 -1163h-169l-461 1314zM225 1804l3 6h228l241 -261l-2 -5h-171zM569 1805l2 5h211l184 -266h-157z" />
<glyph unicode="&#x477;" horiz-adv-x="1164" d="M65 0zM65 955v127h417v-127l-118 -20l190 -616l18 -77h6l19 77l149 535q41 127 107 187t148 60q34 0 59 -5t50 -20l-22 -151q-5 3 -16 5.5t-24 2.5q-32 0 -61.5 -26t-42.5 -68l-296 -839h-149l-331 940zM123 1545l3 6h228l241 -261l-2 -5h-171zM467 1546l2 5h211 l184 -266h-157z" />
<glyph unicode="&#x478;" horiz-adv-x="2607" d="M79 0zM79 717v21q0 317 176 528t458 211q290 0 472.5 -211t182.5 -528v-21q0 -318 -182.5 -528t-472.5 -210q-282 0 -458 210t-176 528zM276 717q0 -256 115.5 -416.5t321.5 -160.5q218 0 338 160t120 417v23q0 254 -121.5 414.5t-336.5 160.5q-206 0 -321.5 -161 t-115.5 -414v-23zM1480 955v127h437v-127l-122 -20l187 -534l36 -138h6l225 672l-123 20v127h436v-127l-97 -15l-412 -1106q-41 -109 -118 -190t-207 -81q-23 0 -60 5.5t-57 10.5l20 155q-6 1 35.5 -2t52.5 -3q63 0 102 54.5t68 125.5l47 112l-357 918z" />
<glyph unicode="&#x479;" horiz-adv-x="2311" d="M90 0zM90 529v22q0 240 130 395.5t353 155.5q224 0 354.5 -155t130.5 -396v-22q0 -242 -130 -396t-353 -154q-225 0 -355 154.5t-130 395.5zM287 529q0 -172 72.5 -284t215.5 -112q140 0 213 112t73 284v22q0 170 -73 283t-215 113t-214 -113t-72 -283v-22zM1184 955v127 h437v-127l-122 -20l187 -534l36 -138h6l225 672l-123 20v127h436v-127l-97 -15l-412 -1106q-41 -109 -118 -190t-207 -81q-23 0 -60 5.5t-57 10.5l20 155q-6 1 35.5 -2t52.5 -3q63 0 102 54.5t68 125.5l47 112l-357 918z" />
<glyph unicode="&#x47a;" horiz-adv-x="1445" d="M79 717v21q0 317 176 528t458 211q290 0 472.5 -211t182.5 -528v-21q0 -318 -182.5 -528t-472.5 -210q-282 0 -458 210t-176 528zM276 717q0 -256 115.5 -416.5t321.5 -160.5q218 0 338 160t120 417v23q0 254 -121.5 414.5t-336.5 160.5q-206 0 -321.5 -161t-115.5 -414 v-23zM617 -141v398h197v-398h-197zM617 1200v389h197v-389h-197z" />
<glyph unicode="&#x47b;" horiz-adv-x="1166" d="M104 529v22q0 240 130 395.5t353 155.5q224 0 354.5 -155t130.5 -396v-22q0 -242 -130 -396t-353 -154q-225 0 -355 154.5t-130 395.5zM301 529q0 -172 72.5 -284t215.5 -112q140 0 213 112t73 284v22q0 170 -73 283t-215 113t-214 -113t-72 -283v-22zM457 -118v369h197 v-369h-197zM457 836v370h197v-370h-197z" />
<glyph unicode="&#x47c;" horiz-adv-x="1742" d="M136 429v576q0 218 109 333t284 111l6 -2v-146q-91 0 -146.5 -76t-55.5 -220v-576q0 -145 55.5 -220.5t146.5 -75.5q108 0 174.5 65.5t66.5 192.5v432h198v-432q0 -126 66 -192t174 -66q91 0 147 75.5t56 220.5v576q0 144 -56 220t-147 76v146l6 2q174 4 284 -111 t110 -333v-576q0 -219 -110.5 -334.5t-289.5 -115.5q-114 0 -201.5 42.5t-137.5 127.5q-51 -85 -139 -127.5t-201 -42.5q-180 0 -289.5 115.5t-109.5 334.5zM556 1626v36q0 108 62 163t176 55q72 0 218.5 -62t259.5 -62h45v-129h-47q-131 0 -280.5 61.5t-191.5 61.5 q-50 0 -78.5 -27t-28.5 -79v-18h-135zM751 1384l58 115l-1 140h188v-123l-165 -198z" />
<glyph unicode="&#x47d;" horiz-adv-x="1532" d="M114 390v291q0 199 98 304t255 101l6 -3v-146q-74 0 -118 -65.5t-44 -190.5v-291q0 -127 44 -192t118 -65q90 0 146 56t56 163v234h197v-234q0 -108 55 -163.5t146 -55.5q73 0 118 65.5t45 191.5v291q0 125 -45 190.5t-118 65.5v146l6 3q157 4 255.5 -101t98.5 -304v-291 q0 -201 -99 -306t-261 -105q-100 0 -177.5 36t-122.5 108q-47 -72 -124.5 -108t-175.5 -36q-162 0 -260.5 105t-98.5 306zM486 1267v36q0 108 62 163t176 55q72 0 218.5 -62t259.5 -62h45v-129h-47q-131 0 -280.5 61.5t-191.5 61.5q-50 0 -79 -27t-29 -79v-18h-134z M681 1025l58 115l-1 140h188v-123l-165 -198z" />
<glyph unicode="&#x47e;" horiz-adv-x="1763" d="M144 391q0 -201 109.5 -306.5t289.5 -105.5q113 0 201.5 43.5t139.5 129.5q47 -86 132 -129.5t194 -43.5q187 0 302.5 105.5t115.5 306.5v1065h-197v-1065q0 -126 -61 -192t-160 -66q-100 0 -161 66t-61 192v1065h-204v-1065q0 -127 -66.5 -192.5t-174.5 -65.5 q-91 0 -146.5 66t-55.5 192v1065h-197v-1065zM466 1688v109h821l2 -109h-332v-126h-178v126h-313z" />
<glyph unicode="&#x47f;" horiz-adv-x="1564" d="M150 352q0 -182 98.5 -277.5t260.5 -95.5q97 0 174.5 36t124.5 107q43 -71 116 -107t167 -36q169 0 274 95.5t105 277.5v730h-197v-730q0 -107 -50.5 -163t-131.5 -56q-83 0 -132.5 55.5t-49.5 163.5v730h-198v-730q0 -107 -56 -163t-146 -56q-74 0 -118 55.5t-44 163.5 v730h-197v-730zM403 1348v109h821l3 -109h-333v-128h-178v128h-313z" />
<glyph unicode="&#x480;" horiz-adv-x="1267" d="M114 598v259q0 269 155.5 444.5t402.5 175.5t392.5 -131.5t141.5 -348.5l-2 -6h-189q0 153 -89.5 242t-253.5 89q-165 0 -263 -133t-98 -330v-261q0 -199 98 -332t263 -133h114v-516h-196v368q-215 29 -345.5 198t-130.5 415z" />
<glyph unicode="&#x481;" horiz-adv-x="1058" d="M104 520v42q0 227 127.5 383.5t346.5 156.5q182 0 301 -112t115 -275l-2 -6h-178q0 98 -68.5 168t-167.5 70q-137 0 -207 -115t-70 -270v-42q0 -159 69 -273t208 -114h107v-516h-197v370q-181 31 -282.5 180.5t-101.5 352.5z" />
<glyph unicode="&#x482;" horiz-adv-x="1138" d="M39 569l70 124l293 -171l203 364l-290 171l72 126l291 -171l186 330h170l-228 -407l293 -171l-76 -124l-288 170l-204 -363l289 -172l-72 -125l-291 170l-181 -320h-173l225 398z" />
<glyph unicode="&#x483;" horiz-adv-x="1007" d="M156 1189v235h545l-1 108l175 -1v-217h-544v-126z" />
<glyph unicode="&#x484;" horiz-adv-x="1042" d="M137 1303v130h44q113 0 259 62t219 62q113 0 175.5 -55t62.5 -163v-36h-134v18q0 52 -29.5 79t-78.5 27q-43 0 -192.5 -62t-279.5 -62h-46z" />
<glyph unicode="&#x485;" horiz-adv-x="496" d="M126 1500v123h187l-1 -140l59 -116l-81 -66z" />
<glyph unicode="&#x486;" horiz-adv-x="491" d="M126 1367l58 116l-1 140h188v-123l-165 -199z" />
<glyph unicode="&#x488;" horiz-adv-x="2028" d="M49 493q-5 78 51.5 130t152.5 52t152.5 -51.5t52.5 -130.5l-2 -6h-104q0 44 -24 72.5t-75 28.5q-50 0 -73.5 -29t-23.5 -72h-105zM215 -26q-5 78 51.5 130t152.5 52t153 -51.5t53 -130.5l-2 -6h-105q0 44 -24 72.5t-75 28.5q-50 0 -73 -29t-23 -72h-106zM225 996 q-5 79 51.5 130.5t153.5 51.5q96 0 152.5 -51.5t52.5 -130.5l-2 -6h-104q0 43 -24.5 72t-74.5 29t-73.5 -29t-23.5 -72h-106zM798 1273q-5 79 51 130.5t153 51.5q96 0 152.5 -51.5t52.5 -130.5l-2 -6h-104q0 43 -24.5 72t-74.5 29t-73.5 -29t-23.5 -72h-105zM803 -310 q-5 80 51 131t153 51q96 0 152.5 -51t52.5 -131l-2 -6h-104q0 44 -24.5 72.5t-74.5 28.5t-73.5 -28.5t-23.5 -72.5h-105zM1379 -26q-5 78 51.5 130t152.5 52t152.5 -51.5t52.5 -130.5l-2 -6h-104q0 44 -24 72.5t-75 28.5q-50 0 -73.5 -29t-23.5 -72h-105zM1389 996 q-5 78 51.5 130t152.5 52t153 -51.5t53 -130.5l-2 -6h-105q0 44 -24 72.5t-75 28.5q-50 0 -73 -29t-23 -72h-106zM1576 493q-5 78 51.5 130t152.5 52t152.5 -51.5t52.5 -130.5l-2 -6h-104q0 44 -24 72.5t-75 28.5q-50 0 -73.5 -29t-23.5 -72h-105z" />
<glyph unicode="&#x489;" horiz-adv-x="1964" d="M49 545v98l346 -71v-139l-13 -12zM244 -80l294 200l97 -99l-2 -17l-320 -153zM330 1188l65 69l198 -299l-98 -98l-17 2zM869 -413l70 353h137l11 -14l-122 -339h-96zM869 1140l122 338h96l-70 -352h-136zM1319 1002l2 16l321 153l68 -68q-37 -23 -294 -200zM1360 62 l97 99l17 -2l149 -325l-66 -71zM1559 492v139l13 12l333 -124v-98z" />
<glyph unicode="&#x48a;" horiz-adv-x="1574" d="M77 0v126l163 28v1147l-163 28v127h163h197h163v-127l-163 -28v-839l6 -2l700 749v92l-163 28v127h163h197h163v-127l-163 -28v-1147l163 -28v-126h-523v126l163 28v812l-6 2l-700 -750v-64l163 -28v-126h-523zM77 0zM488 1862l2 6h150q0 -65 34.5 -106.5t108.5 -41.5 q72 0 107 41.5t35 106.5h151l2 -6q4 -116 -77 -189t-218 -73q-138 0 -219 73t-76 189zM1408 -305q47 72 71 147t24 159v152h197v-149q0 -98 -49 -205t-132 -178z" />
<glyph unicode="&#x48b;" horiz-adv-x="1396" d="M97 0v126l163 28v773l-163 28v127h359h163v-127l-163 -28v-611l6 -2l477 768h197h163v-127l-163 -28v-773l163 -28v-126h-523v126l163 28v612l-6 2l-477 -768h-359zM97 0zM414 1536l2 6h150q0 -65 34.5 -106.5t108.5 -41.5q72 0 107 41.5t35 106.5h151l2 -6 q4 -116 -77 -189t-218 -73q-138 0 -219 73t-76 189zM1204 -305q47 72 71 147t24 159v152h197v-149q0 -98 -49 -205t-132 -178z" />
<glyph unicode="&#x48c;" horiz-adv-x="1358" d="M20 1015v155h213v131l-163 28v127h360v-286h231v-155h-231v-155h359q234 0 362.5 -115t128.5 -311q0 -197 -129 -315.5t-362 -118.5h-719v126l163 28v861h-213zM430 154h359q148 0 221 80t73 202q0 118 -73 193.5t-221 75.5h-359v-551zM430 1301v155h163v-127z" />
<glyph unicode="&#x48d;" horiz-adv-x="1198" d="M39 1301v155h221v39l-163 29v126h360v-194h292v-155h-292v-553h269q192 0 298.5 -102.5t106.5 -267.5t-107.5 -271.5t-297.5 -106.5h-629v126l163 28v1147h-221zM457 154h269q106 0 156.5 62.5t50.5 154.5q0 90 -51 156.5t-156 66.5h-269v-440z" />
<glyph unicode="&#x48e;" horiz-adv-x="1301" d="M71 0v126l163 28v1147l-163 28v127h163h506q233 0 362.5 -120t129.5 -316q0 -198 -129.5 -317t-362.5 -119h-309v-430l163 -28v-126h-523zM431 738h309q148 0 221.5 79.5t73.5 200.5t-73.5 202t-221.5 81h-309v-563zM754 896l116 104l373 -406l-115 -104z" />
<glyph unicode="&#x48f;" horiz-adv-x="1261" d="M65 -289l163 28v1188l-163 28v127h332l18 -132q54 74 131.5 113t179.5 39q201 0 312.5 -159.5t111.5 -421.5v-21q0 -234 -112 -377.5t-309 -143.5q-100 0 -175.5 33.5t-128.5 99.5v-373l163 -28v-127h-523v127zM425 273q37 -67 96.5 -103.5t146.5 -36.5q140 0 212 102 t72 265v21q0 185 -72 303t-214 118q-84 0 -144 -38t-97 -104v-527zM674 304l116 105l337 -374l-116 -105z" />
<glyph unicode="&#x490;" horiz-adv-x="1207" d="M60 0v126l163 28v1147l-163 28v127h871l27 334h158v-489h-696v-1147l163 -28v-126h-523z" />
<glyph unicode="&#x491;" horiz-adv-x="1073" d="M62 0v126l163 28v773l-163 28v127h163h535l39 201h129v-357h-506v-772l163 -28v-126h-523z" />
<glyph unicode="&#x492;" horiz-adv-x="1216" d="M47 674v155h193v472l-163 28v127h1056v-322h-169l-15 167h-512v-472h251v-155h-251v-520l163 -28v-126h-523v126l163 28v520h-193z" />
<glyph unicode="&#x493;" horiz-adv-x="1075" d="M72 0v126l163 28v-154h-163zM72 955v127h883v-279h-128l-13 123h-382v-294h290v-154h-290v-324l163 -28v-126h-360v478h-153v154h153v295z" />
<glyph unicode="&#x494;" horiz-adv-x="1240" d="M77 0v126l163 28v1147l-163 28v127h1056v-322h-169l-15 167h-512v-468h121q284 0 442 -153.5t158 -424.5q0 -263 -121.5 -403t-348.5 -136l-6 2l-2 142q151 0 216 102t65 293q-2 202 -102 307.5t-301 105.5h-121v-514l163 -28v-126h-523z" />
<glyph unicode="&#x495;" horiz-adv-x="1147" d="M62 0v126l163 28v773l-163 28v127h163h688v-2h32v-277h-128l-14 123h-381v-280h128q226 0 368.5 -128t142.5 -348q-2 -139 -99 -279t-288 -175l-51 149q129 35 185 112.5t56 192.5q-2 147 -88 229t-226 82h-128v-327l163 -28v-126h-523z" />
<glyph unicode="&#x496;" horiz-adv-x="2041" d="M62 0zM62 1423q32 21 69 32.5t86 11.5q83 0 146.5 -40t133.5 -153l290 -474h142v501l-163 28v127h359h163v-127l-163 -28v-501h154l290 474q69 113 132 153t148 40q48 0 85 -11.5t69 -32.5l-29 -138q-21 4 -42.5 7t-42.5 3q-48 0 -82 -25.5t-73 -84.5l-279 -433l382 -605 l146 -21v-126h-461v126l78 13l-300 495h-175v-480l163 -28v-126h-522v126l163 28v480h-182l-301 -495l79 -13v-126h-462v126l146 21l388 614l-266 424q-39 59 -73 84.5t-81 25.5q-22 0 -43.5 -3t-42.5 -7zM1786 108h197v-467h-197v467z" />
<glyph unicode="&#x497;" horiz-adv-x="1728" d="M39 0v126l154 22l281 418l-181 272q-29 43 -61.5 67t-73.5 24q-21 0 -27 -1t-49 -8l-28 134q37 24 67 35.5t77 11.5q75 0 137.5 -45t112.5 -128l187 -303h119v302l-163 28v127h163h360v-127l-163 -28v-302h129l187 303q49 83 111.5 128t139.5 45q46 0 76.5 -12t66.5 -35 l-27 -134q-43 7 -49.5 8t-26.5 1q-42 0 -75 -24t-60 -67l-187 -280l277 -410l153 -22v-126h-302l-281 459h-132v-305l163 -28v-126h-523v126l163 28v305h-133l-280 -459h-302zM39 0zM1469 108h197v-467h-197v467z" />
<glyph unicode="&#x498;" horiz-adv-x="1222" d="M71 0zM76 398l2 6h188q0 -114 88 -192.5t227 -78.5q159 0 249.5 74.5t90.5 194.5q0 133 -82 197.5t-242 64.5h-164v156h164q154 0 228 65.5t74 180.5q0 113 -83.5 184.5t-253.5 71.5q-98 0 -169 -30.5t-116 -76.5l-38 -205h-138v258q62 80 188 144.5t292 64.5 q239 0 377 -108t138 -307q0 -101 -63 -184t-173 -131q125 -42 191.5 -129t66.5 -212q0 -200 -148.5 -313.5t-388.5 -113.5q-209 0 -359.5 107t-145.5 312zM509 99h197v-467h-197v467z" />
<glyph unicode="&#x499;" horiz-adv-x="1048" d="M84 0zM89 314l2 6h187q0 -76 66 -132t170 -56q107 0 166 49.5t59 123.5q0 87 -51.5 127t-160.5 40h-188v160h188q104 0 148.5 39.5t44.5 114.5q0 68 -51 115t-155 47q-93 0 -156 -49t-63 -119h-187l-2 6q-6 139 113 226.5t295 87.5q190 0 297 -81.5t107 -232.5 q0 -73 -44 -134t-123 -96q91 -32 139 -95.5t48 -155.5q0 -152 -116.5 -238t-307.5 -86q-177 0 -303.5 85.5t-121.5 247.5zM424 99h197v-467h-197v467z" />
<glyph unicode="&#x49a;" horiz-adv-x="1452" d="M71 0v126l163 28v1147l-163 28v127h523v-127l-163 -28v-489h151l407 503l-109 14v127h462v-127l-137 -25l-445 -552l486 -601l137 -25v-126h-478v126l111 14l-415 517h-170v-503l163 -28v-126h-523zM71 0zM1186 108h197v-467h-197v467z" />
<glyph unicode="&#x49b;" horiz-adv-x="1264" d="M97 0v126l163 28v773l-163 28v127h523v-127l-163 -28v-302h104l226 303q61 85 119.5 129t131.5 44q46 0 76 -11.5t68 -35.5l-28 -134q-43 7 -49.5 8t-26.5 1q-37 0 -72.5 -27t-62.5 -64l-209 -271l341 -416l139 -25v-126h-263l-366 459h-128v-305l163 -28v-126h-523z M97 0zM1017 108h197v-467h-197v467z" />
<glyph unicode="&#x49c;" horiz-adv-x="1470" d="M70 0v126l163 28v1147l-163 28v127h360h163v-127l-163 -28v-501h97v267h157v-267h65l238 474q57 117 119 155t151 38q48 0 85 -11.5t70 -32.5l-29 -138q-21 4 -42.5 7t-43.5 3q-49 0 -80.5 -24.5t-64.5 -85.5l-234 -435l346 -604l138 -20v-126h-299l-330 634h-89v-219 h-157v219h-97v-480l163 -28v-126h-523z" />
<glyph unicode="&#x49d;" horiz-adv-x="1368" d="M90 0v126l163 28v773l-163 28v127h360h163v-127l-163 -28v-302h94v211h157v-211h24l167 303q50 85 108 129t133 44q46 0 76 -11.5t68 -35.5l-28 -134q-43 7 -49.5 8t-26.5 1q-41 0 -68.5 -22.5t-56.5 -68.5l-162 -263l280 -429l120 -20v-126h-272l-269 459h-44v-191h-157 v191h-94v-305l163 -28v-126h-523z" />
<glyph unicode="&#x49e;" horiz-adv-x="1472" d="M37 1017v155h217v129l-163 28v127h523v-127l-163 -28v-129h227v-155h-227v-205h151l407 503l-109 14v127h462v-127l-137 -25l-445 -552l486 -601l137 -25v-126h-478v126l111 14l-415 517h-170v-503l163 -28v-126h-523v126l163 28v863h-217z" />
<glyph unicode="&#x49f;" horiz-adv-x="1265" d="M39 1158v155h206v92l-163 28v127h360v-247h238v-155h-238v-502h126l231 286l-99 13v127h453v-127l-132 -26l-285 -340l347 -439l123 -24v-126h-449v126l101 13l-287 360h-129v-345l163 -28v-126h-523v126l163 28v1004h-206z" />
<glyph unicode="&#x4a0;" horiz-adv-x="1787" d="M20 1135v321h773h163v-127l-163 -28v-501h159l329 474q81 112 141 152.5t139 40.5q47 0 79.5 -11.5t68.5 -33.5l-29 -139q-27 5 -47.5 8.5t-40.5 3.5q-47 0 -79.5 -25t-75.5 -85l-313 -436l484 -598l137 -25v-126h-478v126l111 14l-397 494h-188v-480l163 -28v-126h-523 v126l163 28v1147h-393l-15 -166h-168z" />
<glyph unicode="&#x4a1;" horiz-adv-x="1564" d="M82 761v321h698h163v-127l-163 -28v-302h104l226 303q61 85 119.5 129t131.5 44q46 0 76 -11.5t68 -35.5l-28 -134q-43 7 -49.5 8t-26.5 1q-37 0 -72.5 -27t-62.5 -64l-209 -271l341 -416l139 -25v-126h-263l-366 459h-128v-305l163 -28v-126h-523v126l163 28v772h-318 l-14 -165h-169z" />
<glyph unicode="&#x4a2;" horiz-adv-x="1573" d="M71 0v126l163 28v1147l-163 28v127h523v-127l-163 -28v-503h706v503l-163 28v127h163h197h163v-127l-163 -28v-1147l163 -28v-126h-523v126l163 28v489h-706v-489l163 -28v-126h-523zM71 0zM1300 108h197v-467h-197v467z" />
<glyph unicode="&#x4a3;" horiz-adv-x="1395" d="M97 0v126l163 28v773l-163 28v127h523v-127l-163 -28v-313h481v313l-163 28v127h163h198h163v-127l-163 -28v-773l163 -28v-126h-524v126l163 28v306h-481v-306l163 -28v-126h-523zM97 0zM1102 108h197v-467h-197v467z" />
<glyph unicode="&#x4a4;" horiz-adv-x="2045" d="M48 0v126l163 28v1147l-163 28v127h163h197h163v-127l-163 -28v-503h706v503l-163 28v127h1027v-321h-168l-15 166h-452l-6 4l-26 -4v-1147l163 -28v-126h-523v126l163 28v489h-706v-489l163 -28v-126h-523z" />
<glyph unicode="&#x4a5;" horiz-adv-x="1586" d="M85 0v126l163 28v773l-163 28v127h163h197h163v-127l-163 -28v-313h481v313l-163 28v127h163h608v-321h-169l-15 165h-226v-772l163 -28v-126h-524v126l163 28v306h-481v-306l163 -28v-126h-523z" />
<glyph unicode="&#x4a6;" horiz-adv-x="2127" d="M77 0v126l163 28v1147l-163 28v127h1428v-127l-163 -28v-468h56q284 0 442 -153.5t158 -424.5q0 -263 -121.5 -403t-348.5 -136l-6 2l-2 142q151 0 216 102t65 293q-2 202 -102 307.5t-301 105.5h-56v-514l163 -28v-126h-523v126l163 28v1147h-708v-1147l163 -28v-126 h-523z" />
<glyph unicode="&#x4a7;" horiz-adv-x="1909" d="M85 0v126l163 28v773l-163 28v127h163h876h163v-127l-163 -28v-280h80q235 0 383 -128.5t148 -348.5q-2 -138 -99 -278.5t-288 -175.5l-51 149q128 34 184.5 112.5t56.5 192.5q-2 147 -93 229.5t-241 82.5h-80v-328l163 -28v-126h-523v126l163 28v772h-482v-772l163 -28 v-126h-523z" />
<glyph unicode="&#x4a8;" horiz-adv-x="1541" d="M106 679v161q0 273 125.5 453.5t322.5 175.5l6 -2l1 -152q-119 0 -188.5 -133.5t-69.5 -339.5v-163q0 -236 113.5 -387.5t303.5 -151.5q33 0 64.5 3.5t62.5 10.5q-122 97 -187.5 237t-65.5 309v222q0 237 114 394.5t297 157.5t297 -154t114 -398v-243 q0 -158 -56.5 -292.5t-159.5 -229.5q51 -14 108 -20.5t120 -6.5v-160q-111 0 -210.5 18.5t-185.5 55.5q-70 -32 -148.5 -48.5t-163.5 -16.5q-273 0 -443.5 199.5t-170.5 500.5zM791 698q0 -153 58.5 -271t169.5 -186h6q92 67 143 182t51 256v246q0 174 -57.5 281.5 t-156.5 107.5q-97 0 -155.5 -110.5t-58.5 -278.5v-227z" />
<glyph unicode="&#x4a9;" horiz-adv-x="1278" d="M112 570v57q0 205 97 338.5t250 128.5l6 -2v-151q-72 0 -114 -87.5t-42 -224.5v-59q0 -188 80 -309t216 -121q23 0 44.5 2.5t41.5 8.5q-93 79 -142 187t-49 235v103q0 190 86 308.5t233 118.5q145 0 232.5 -127t87.5 -321v-105q0 -111 -33 -208.5t-93 -172.5 q39 -11 83 -16t93 -5v-160q-90 0 -170.5 14t-150.5 43q-58 -33 -124 -49.5t-139 -16.5q-219 0 -356 168t-137 423zM697 571q0 -102 37 -183t108 -131h6q44 49 69 125.5t25 167.5v108q0 124 -32.5 203.5t-87.5 74.5h-6q-57 5 -88 -66.5t-31 -191.5v-107z" />
<glyph unicode="&#x4aa;" horiz-adv-x="1321" d="M71 0zM71 717v21q0 320 179 529.5t469 209.5q166 0 292 -64.5t189 -144.5v-259h-139l-37 206q-48 47 -118 77t-167 30q-227 0 -349 -164.5t-122 -417.5v-23q0 -253 119.5 -418.5t331.5 -165.5q99 0 180 31t125 76l37 206h139v-259q-63 -81 -189 -144.5t-292 -63.5 q-284 0 -466 210t-182 528zM620 99h197v-467h-197v467z" />
<glyph unicode="&#x4ab;" horiz-adv-x="1104" d="M90 0zM90 520v42q0 231 125 385.5t360 154.5q130 0 233.5 -43t171.5 -118l9 -240h-157l-43 170q-35 34 -90 55t-124 21q-155 0 -221.5 -111.5t-66.5 -273.5v-42q0 -166 66 -276.5t222 -110.5q98 0 172.5 60.5t74.5 148.5h177l2 -6q5 -140 -124.5 -248.5t-301.5 -108.5 q-236 0 -360.5 154t-124.5 387zM429 98h197v-467h-197v467z" />
<glyph unicode="&#x4ac;" horiz-adv-x="1284" d="M37 0zM37 1134v322h1210v-322h-168l-15 167h-323v-1147l163 -28v-126h-523v126l163 28v1147h-324l-14 -167h-169zM707 108h197v-467h-197v467z" />
<glyph unicode="&#x4ad;" horiz-adv-x="1186" d="M78 0zM78 760v322h1024v-322h-169l-15 169h-232v-775l163 -28v-126h-523v126l163 28v775h-228l-15 -169h-168zM652 108h197v-467h-197v467z" />
<glyph unicode="&#x4ae;" horiz-adv-x="1416" d="M55 0zM55 1329v127h500v-127l-157 -19l305 -594l305 594l-156 19v127h500v-127l-123 -19l-432 -798v-358l163 -28v-126h-522v126l163 28v373l-424 783z" />
<glyph unicode="&#x4af;" horiz-adv-x="1086" d="M20 0zM20 1068q25 11 64.5 18.5t70.5 7.5q72 0 108 -28t64 -113l208 -634l17 -84h6l21 84l201 615l-135 21v127h418v-127l-86 -14l-324 -881v-476h-197v467l-287 813q-14 39 -30.5 50.5t-49.5 11.5q-9 0 -15 -1l-36 -6z" />
<glyph unicode="&#x4b0;" horiz-adv-x="1416" d="M55 1329v127h500v-127l-157 -19l305 -594l305 594l-156 19v127h500v-127l-123 -19l-341 -629h138v-155h-222l-7 -14v-358l163 -28v-126h-522v126l163 28v372h-216v155h132l-340 629z" />
<glyph unicode="&#x4b1;" horiz-adv-x="1086" d="M20 1068q25 11 64.5 18.5t70.5 7.5q72 0 108 -28t64 -113l208 -634l17 -84h6l21 84l201 615l-135 21v127h418v-127l-86 -14l-294 -799h196v-155h-226v-403h-197v403h-218v155h186l-255 722q-14 39 -30.5 50.5t-49.5 11.5q-9 0 -15 -1l-36 -6z" />
<glyph unicode="&#x4b2;" horiz-adv-x="1404" d="M43 0v126l131 22l414 586l-404 573l-131 22v127h472v-127l-117 -13l291 -437l294 437l-117 13v127h475v-127l-131 -22l-404 -573l413 -586l132 -22v-126h-471v126l115 13l-302 448l-303 -448l117 -13v-126h-474zM43 0zM1164 108h197v-467h-197v467z" />
<glyph unicode="&#x4b3;" horiz-adv-x="1192" d="M62 0v126l116 23l319 398l-309 385l-116 23v127h424v-127l-98 -12l202 -260l203 261l-97 11v127h427v-127l-116 -23l-309 -385l318 -398l117 -23v-126h-424v126l96 11l-212 272l-212 -272l97 -11v-126h-426zM62 0zM946 108h197v-467h-197v467z" />
<glyph unicode="&#x4b4;" horiz-adv-x="1817" d="M77 1134v322h954v-322h-169l-15 167h-158v-1147h708v1147l-163 28v127h523v-127l-163 -28v-1147h190v-505h-195v351h-1260v126l163 28v1147h-232l-14 -167h-169z" />
<glyph unicode="&#x4b5;" horiz-adv-x="1574" d="M51 761v321h935v-321h-168l-15 167h-167v-774h512v928h360v-127l-163 -28v-773h133l-20 -475h-175v321h-1007v126l163 28v774h-204l-15 -167h-169z" />
<glyph unicode="&#x4b6;" horiz-adv-x="1526" d="M59 0zM59 1329v127h523v-127l-163 -28v-305q0 -165 69 -228.5t222 -63.5q104 0 200 14t195 41v542l-163 28v127h163h361v-127l-163 -28v-1147l163 -28v-126h-524v126l163 28v449q-95 -29 -184 -42t-211 -13q-240 0 -364 105t-124 343v305zM1269 108h197v-467h-197v467z " />
<glyph unicode="&#x4b7;" horiz-adv-x="1355" d="M65 0zM65 957v126h360h163v-126l-163 -28v-164q0 -130 55.5 -191t165.5 -61q66 0 126 7.5t119 22.5v384l-163 28v127h523v-127l-163 -28v-773l163 -28v-126h-523v126l163 28v232q-58 -15 -118 -22t-127 -7q-196 0 -307 103t-111 305v164zM1054 108h197v-467h-197v467z " />
<glyph unicode="&#x4b8;" horiz-adv-x="1527" d="M59 1329v127h523v-127l-163 -28v-305q0 -165 69 -228.5t222 -63.5q104 0 200 14t195 41v542l-163 28v127h163h361v-127l-163 -28v-1147l163 -28v-126h-524v126l163 28v449q-95 -29 -184 -42t-211 -13q-240 0 -364 105t-124 343v305zM640 316v701h158v-701h-158z" />
<glyph unicode="&#x4b9;" horiz-adv-x="1352" d="M91 957v126h360h163v-126l-163 -28v-164q0 -130 55.5 -191t165.5 -61q66 0 126 7.5t119 22.5v384l-163 28v127h523v-127l-163 -28v-773l163 -28v-126h-523v126l163 28v232q-58 -15 -118 -22t-127 -7q-196 0 -307 103t-111 305v164zM606 226v567h158v-567h-158z" />
<glyph unicode="&#x4ba;" horiz-adv-x="1537" d="M58 0v127l163 28v1147l-163 28v126h163h198h163v-126l-163 -28v-449q96 27 184.5 41t210.5 14q239 0 363.5 -105.5t124.5 -342.5v-305l163 -28v-127h-523v127l163 28v305q0 164 -69.5 228t-221.5 64q-105 0 -201 -14.5t-194 -41.5v-541l163 -28v-127h-524z" />
<glyph unicode="&#x4bb;" horiz-adv-x="1322" d="M62 0v126l163 28v1251l-163 28v127h360v-622q56 78 137 121t180 43q174 0 270 -104t96 -320v-524l163 -28v-126h-523v126l163 28v526q0 134 -57.5 198t-171.5 64q-81 0 -147.5 -38.5t-109.5 -104.5v-645l163 -28v-126h-523zM62 0z" />
<glyph unicode="&#x4bc;" horiz-adv-x="1539" d="M65 1076l2 5h150q0 -93 40 -154t124 -81v4q0 271 156.5 448t385.5 177q264 0 402.5 -177.5t138.5 -488.5v-109h-886v-96q0 -211 104 -342t317 -131q108 0 185 23t150 61l49 -139q-50 -36 -146 -67.5t-238 -31.5q-291 0 -454.5 172.5t-163.5 454.5v102q-158 20 -239 118 t-77 252zM578 835h689v32q0 206 -81 329.5t-263 123.5q-161 0 -253 -134.5t-92 -335.5v-15z" />
<glyph unicode="&#x4bd;" horiz-adv-x="1311" d="M10 867h157q0 -59 16.5 -103t50.5 -71q37 182 164 295.5t286 113.5q218 0 330.5 -132t112.5 -352v-123h-702l-3 -5q3 -156 79 -256.5t213 -100.5q100 0 175.5 28.5t130.5 78.5l77 -128q-58 -56 -153.5 -94.5t-229.5 -38.5q-226 0 -359.5 150.5t-133.5 390.5v17 q-105 34 -158 118.5t-53 211.5zM429 654l2 -5h499v26q0 116 -62 194t-184 78q-99 0 -169 -83.5t-86 -209.5z" />
<glyph unicode="&#x4be;" horiz-adv-x="1539" d="M61 0zM65 1076l2 5h150q0 -93 40 -154t124 -81v4q0 271 156.5 448t385.5 177q264 0 402.5 -177.5t138.5 -488.5v-109h-886v-96q0 -211 104 -342t317 -131q108 0 185 23t150 61l49 -139q-50 -36 -146 -67.5t-238 -31.5q-291 0 -454.5 172.5t-163.5 454.5v102 q-158 20 -239 118t-77 252zM578 835h689v32q0 206 -81 329.5t-263 123.5q-161 0 -253 -134.5t-92 -335.5v-15zM882 103h197v-467h-197v467z" />
<glyph unicode="&#x4bf;" horiz-adv-x="1311" d="M10 0zM10 867h157q0 -59 16.5 -103t50.5 -71q37 182 164 295.5t286 113.5q218 0 330.5 -132t112.5 -352v-123h-702l-3 -5q3 -156 79 -256.5t213 -100.5q100 0 175.5 28.5t130.5 78.5l77 -128q-58 -56 -153.5 -94.5t-229.5 -38.5q-226 0 -359.5 150.5t-133.5 390.5v17 q-105 34 -158 118.5t-53 211.5zM429 654l2 -5h499v26q0 116 -62 194t-184 78q-99 0 -169 -83.5t-86 -209.5zM615 105h197v-467h-197v467z" />
<glyph unicode="&#x4c0;" horiz-adv-x="662" d="M70 0v126l163 28v1147l-163 28v127h523v-127l-163 -28v-1147l163 -28v-126h-523zM70 0z" />
<glyph unicode="&#x4c1;" horiz-adv-x="2041" d="M62 0zM62 1423q32 21 69 32.5t86 11.5q83 0 146.5 -40t133.5 -153l290 -474h142v501l-163 28v127h359h163v-127l-163 -28v-501h154l290 474q69 113 132 153t148 40q48 0 85 -11.5t69 -32.5l-29 -138q-21 4 -42.5 7t-42.5 3q-48 0 -82 -25.5t-73 -84.5l-279 -433l382 -605 l146 -21v-126h-461v126l78 13l-300 495h-175v-480l163 -28v-126h-522v126l163 28v480h-182l-301 -495l79 -13v-126h-462v126l146 21l388 614l-266 424q-39 59 -73 84.5t-81 25.5q-22 0 -43.5 -3t-42.5 -7zM728 1860l2 6h150q0 -65 34.5 -106.5t108.5 -41.5q72 0 107 41.5 t35 106.5h151l2 -6q4 -116 -77 -189t-218 -73q-138 0 -219 73t-76 189z" />
<glyph unicode="&#x4c2;" horiz-adv-x="1728" d="M39 0v126l154 22l281 418l-181 272q-29 43 -61.5 67t-73.5 24q-21 0 -27 -1t-49 -8l-28 134q37 24 67 35.5t77 11.5q75 0 137.5 -45t112.5 -128l187 -303h119v302l-163 28v127h163h360v-127l-163 -28v-302h129l187 303q49 83 111.5 128t139.5 45q46 0 76.5 -12t66.5 -35 l-27 -134q-43 7 -49.5 8t-26.5 1q-42 0 -75 -24t-60 -67l-187 -280l277 -410l153 -22v-126h-302l-281 459h-132v-305l163 -28v-126h-523v126l163 28v305h-133l-280 -459h-302zM39 0zM552 1536l2 6h150q0 -65 34.5 -106.5t108.5 -41.5q72 0 107 41.5t35 106.5h151l2 -6 q4 -116 -77 -189t-218 -73q-138 0 -219 73t-76 189z" />
<glyph unicode="&#x4c3;" horiz-adv-x="1426" d="M70 0v126l163 28v1147l-163 28v127h523v-127l-163 -28v-471h127l521 626h253v-127l-154 -27l-399 -476q246 -23 381.5 -173.5t135.5 -400.5q0 -263 -122 -403t-349 -136l-6 2l-2 142q151 0 216.5 101.5t65.5 293.5q-2 202 -102 307t-302 105h-264v-510l163 -28v-126h-523 z" />
<glyph unicode="&#x4c4;" horiz-adv-x="1278" d="M90 0v126l163 28v773l-163 28v127h523v-127l-163 -28v-302h84l348 457h262v-127l-148 -26l-257 -315q188 -28 298 -139.5t110 -298.5q-2 -133 -98.5 -266.5t-286.5 -167.5l-52 150q128 32 184.5 104.5t56.5 179.5q-2 144 -90.5 213.5t-243.5 69.5h-167v-305l163 -28v-126 h-523z" />
<glyph unicode="&#x4c5;" horiz-adv-x="1512" d="M57 0v154h40q135 0 190.5 137.5t70.5 478.5l24 532l-156 27v127h1215v-127l-163 -28v-1147l163 -28v-126h-523v126l163 28v1147h-503l-24 -531q-19 -410 -114.5 -590t-330.5 -180h-52zM57 0zM1346 -305q47 72 71 147t24 159v152h197v-149q0 -98 -49 -205t-132 -178z" />
<glyph unicode="&#x4c6;" horiz-adv-x="1316" d="M69 0l3 168l41 1q106 0 147.5 103t41.5 348v307l-163 28v127h924h163v-127l-163 -28v-773l163 -28v-126h-523v126l163 28v772h-367v-306q0 -320 -84.5 -470t-289.5 -150h-56zM69 0zM1131 -305q47 72 71 147t24 159v152h197v-149q0 -98 -49 -205t-132 -178z" />
<glyph unicode="&#x4c7;" horiz-adv-x="1563" d="M77 0v126l163 28v1147l-163 28v127h360h163v-127l-163 -28v-503h706v503l-163 28v127h523v-127l-163 -28v-1390q0 -167 -86 -257.5t-240 -90.5q-31 0 -57.5 4.5t-54.5 13.5l14 150q13 -5 47 -9t51 -4q60 0 94.5 51.5t34.5 141.5v732h-706v-489l163 -28v-126h-523z" />
<glyph unicode="&#x4c8;" horiz-adv-x="1368" d="M90 0v126l163 28v773l-163 28v127h360h163v-127l-163 -28v-313h481v313l-163 28v127h163h361v-127l-163 -28v-1016q0 -167 -86.5 -257.5t-240.5 -90.5q-31 0 -57.5 4.5t-54.5 13.5l15 150q13 -5 46.5 -9t50.5 -4q61 0 95 51.5t34 141.5v549h-481v-306l163 -28v-126h-523z " />
<glyph unicode="&#x4c9;" horiz-adv-x="1573" d="M71 0v126l163 28v1147l-163 28v127h523v-127l-163 -28v-503h706v503l-163 28v127h163h197h163v-127l-163 -28v-1147l163 -28v-126h-523v126l163 28v489h-706v-489l163 -28v-126h-523zM71 0zM1402 -305q47 72 71 147t24 159v152h197v-149q0 -98 -49 -205t-132 -178z" />
<glyph unicode="&#x4ca;" horiz-adv-x="1395" d="M97 0v126l163 28v773l-163 28v127h523v-127l-163 -28v-313h481v313l-163 28v127h163h198h163v-127l-163 -28v-773l163 -28v-126h-524v126l163 28v306h-481v-306l163 -28v-126h-523zM97 0zM1204 -305q47 72 71 147t24 159v152h197v-149q0 -98 -49 -205t-132 -178z" />
<glyph unicode="&#x4cb;" horiz-adv-x="1526" d="M59 0zM59 1329v127h523v-127l-163 -28v-305q0 -165 69 -228.5t222 -63.5q104 0 200 14t195 41v542l-163 28v127h163h361v-127l-163 -28v-1147l163 -28v-126h-524v126l163 28v449q-95 -29 -184 -42t-211 -13q-240 0 -364 105t-124 343v305zM942 108h197v-467h-197v467z " />
<glyph unicode="&#x4cc;" horiz-adv-x="1355" d="M65 0zM65 957v126h360h163v-126l-163 -28v-164q0 -130 55.5 -191t165.5 -61q66 0 126 7.5t119 22.5v384l-163 28v127h523v-127l-163 -28v-773l163 -28v-126h-523v126l163 28v232q-58 -15 -118 -22t-127 -7q-196 0 -307 103t-111 305v164zM763 108h197v-467h-197v467z" />
<glyph unicode="&#x4cd;" horiz-adv-x="1905" d="M71 0v126l163 28v1147l-163 28v127h163h252l464 -1183h6l463 1183h416v-127l-163 -28v-1147l163 -28v-126h-523v126l163 28v422l19 590l-5 1l-471 -1167h-131l-471 1166l-5 -1l20 -589v-422l163 -28v-126h-523zM71 0zM1740 -305q47 72 71 147t24 159v152h197v-149 q0 -98 -49 -205t-132 -178z" />
<glyph unicode="&#x4ce;" horiz-adv-x="1724" d="M97 0v126l163 28v773l-163 28v127h163h254l352 -824h6l353 824h247h163v-127l-163 -28v-773l163 -28v-126h-523v126l163 28v597l-6 2l-332 -753h-136l-338 769l-6 -2v-613l163 -28v-126h-523zM97 0zM1540 -305q47 72 71 147t24 159v152h197v-149q0 -98 -49 -205 t-132 -178z" />
<glyph unicode="&#x4cf;" horiz-adv-x="662" d="M70 0v126l163 28v1147l-163 28v127h523v-127l-163 -28v-1147l163 -28v-126h-523zM70 0z" />
<glyph unicode="&#x4d0;" d="M55 0v126l108 15l509 1315h169l500 -1315l107 -15v-126h-418v126l110 19l-96 268h-583l-99 -268l110 -19v-126h-417zM55 0zM454 1861l2 6h150q0 -65 34.5 -106.5t108.5 -41.5q72 0 107 41.5t35 106.5h151l2 -6q4 -116 -77 -189t-218 -73q-138 0 -219 73t-76 189zM522 578 h462l-226 625h-6z" />
<glyph unicode="&#x4d1;" horiz-adv-x="1128" d="M104 0zM104 294q0 154 124.5 237.5t341.5 83.5h203v126q0 95 -60 150.5t-167 55.5q-74 0 -130.5 -19t-91.5 -52l-21 -114h-152v210q74 59 179 94.5t228 35.5q184 0 298 -94t114 -269v-521q0 -21 0.5 -41t2.5 -40l80 -11v-126h-258q-9 44 -14 79t-7 70 q-57 -73 -142.5 -121.5t-182.5 -48.5q-169 0 -257 82.5t-88 232.5zM252 1537l2 6h150q0 -65 34.5 -106.5t108.5 -41.5q72 0 107 41.5t35 106.5h151l2 -6q4 -116 -77 -189t-218 -73q-138 0 -219 73t-76 189zM301 290q0 -71 44 -108.5t133 -37.5q98 0 179 47t116 113v178h-210 q-121 0 -191.5 -56t-70.5 -136z" />
<glyph unicode="&#x4d2;" d="M55 0v126l108 15l509 1315h169l500 -1315l107 -15v-126h-418v126l110 19l-96 268h-583l-99 -268l110 -19v-126h-417zM55 0zM395 1604v200h218v-200h-218zM522 578h462l-226 625h-6zM865 1604v200h218v-200h-218z" />
<glyph unicode="&#x4d3;" horiz-adv-x="1128" d="M104 0zM104 294q0 154 124.5 237.5t341.5 83.5h203v126q0 95 -60 150.5t-167 55.5q-74 0 -130.5 -19t-91.5 -52l-21 -114h-152v210q74 59 179 94.5t228 35.5q184 0 298 -94t114 -269v-521q0 -21 0.5 -41t2.5 -40l80 -11v-126h-258q-9 44 -14 79t-7 70 q-57 -73 -142.5 -121.5t-182.5 -48.5q-169 0 -257 82.5t-88 232.5zM193 1280v200h218v-200h-218zM301 290q0 -71 44 -108.5t133 -37.5q98 0 179 47t116 113v178h-210q-121 0 -191.5 -56t-70.5 -136zM663 1280v200h218v-200h-218z" />
<glyph unicode="&#x4d4;" horiz-adv-x="2096" d="M51 0v126l141 20l793 1310h967v-322h-168l-15 167h-508l20 -466h590v-155h-584l22 -526h522l16 167h167v-321h-1058v126l156 27l-8 197h-556l-121 -210l82 -14v-126h-458zM51 0zM651 529h446l-31 710l-5 2z" />
<glyph unicode="&#x4d5;" horiz-adv-x="1795" d="M97 0zM97 304q0 158 114.5 244.5t334.5 86.5h229v85q0 106 -51.5 166.5t-149.5 60.5q-103 0 -164 -55t-61 -133l-188 18l-2 6q-5 138 110 228.5t305 90.5q115 0 202 -40.5t137 -117.5q64 75 151.5 116.5t189.5 41.5q214 0 329.5 -130t115.5 -358v-119h-710l-2 -5 q1 -159 79.5 -258t233.5 -99q104 0 170 27.5t144 78.5l68 -138q-55 -45 -149 -83.5t-233 -38.5q-135 0 -239 48.5t-170 137.5q-56 -79 -168 -132.5t-271 -53.5q-170 0 -262.5 87t-92.5 238zM294 300q0 -74 50 -120.5t147 -46.5q76 0 158.5 43t125.5 100v217h-227 q-120 0 -187 -56t-67 -137zM991 645l2 -5h509v31q0 122 -60 199t-188 77q-114 0 -183 -84.5t-80 -217.5z" />
<glyph unicode="&#x4d6;" horiz-adv-x="1306" d="M71 0v126l163 28v1147l-163 28v127h1118v-350h-169l-16 195h-573v-471h557v-155h-557v-521h585l16 195h168v-349h-1129zM71 0zM348 1862l2 6h150q0 -65 34.5 -106.5t108.5 -41.5q72 0 107 41.5t35 106.5h151l2 -6q4 -116 -77 -189t-218 -73q-138 0 -219 73t-76 189z" />
<glyph unicode="&#x4d7;" horiz-adv-x="1101" d="M90 0zM90 520v44q0 231 137.5 384.5t325.5 153.5q218 0 330.5 -132t112.5 -352v-123h-702l-3 -5q3 -156 79 -256.5t213 -100.5q100 0 175.5 28.5t130.5 78.5l77 -128q-58 -56 -153.5 -94.5t-229.5 -38.5q-226 0 -359.5 150.5t-133.5 390.5zM252 1537l2 6h150 q0 -65 34.5 -106.5t108.5 -41.5q72 0 107 41.5t35 106.5h151l2 -6q4 -116 -77 -189t-218 -73q-138 0 -219 73t-76 189zM298 654l2 -5h499v26q0 116 -62 194t-184 78q-99 0 -169 -83.5t-86 -209.5z" />
<glyph unicode="&#x4d8;" horiz-adv-x="1402" d="M78 644v110h1006v54q0 227 -115 370.5t-347 143.5q-114 0 -195 -23.5t-160 -60.5l-49 139q52 35 153 67.5t251 32.5q310 0 484.5 -184.5t174.5 -484.5v-163q0 -290 -169 -478t-413 -188q-304 0 -462.5 176.5t-158.5 488.5zM275 586q0 -208 99 -330.5t325 -122.5 q172 0 274.5 137.5t109.5 348.5h-808v-33z" />
<glyph unicode="&#x4d9;" horiz-adv-x="1115" d="M103 0zM103 464v123h701l3 5q-3 155 -78.5 256t-212.5 101q-101 0 -176 -29.5t-130 -78.5l-77 129q58 56 153 94.5t230 38.5q225 0 359 -151t134 -390v-44q0 -232 -137.5 -385t-324.5 -152q-220 0 -332 131t-112 352zM300 407q0 -117 62 -194.5t185 -77.5q97 0 167 82.5 t86 209.5l-2 5h-498v-25z" />
<glyph unicode="&#x4da;" horiz-adv-x="1402" d="M78 0zM78 644v110h1006v54q0 227 -115 370.5t-347 143.5q-114 0 -195 -23.5t-160 -60.5l-49 139q52 35 153 67.5t251 32.5q310 0 484.5 -184.5t174.5 -484.5v-163q0 -290 -169 -478t-413 -188q-304 0 -462.5 176.5t-158.5 488.5zM275 586q0 -208 99 -330.5t325 -122.5 q172 0 274.5 137.5t109.5 348.5h-808v-33zM313 1600v200h218v-200h-218zM783 1600v200h218v-200h-218z" />
<glyph unicode="&#x4db;" horiz-adv-x="1115" d="M103 0zM103 464v123h701l3 5q-3 155 -78.5 256t-212.5 101q-101 0 -176 -29.5t-130 -78.5l-77 129q58 56 153 94.5t230 38.5q225 0 359 -151t134 -390v-44q0 -232 -137.5 -385t-324.5 -152q-220 0 -332 131t-112 352zM195 1284v200h218v-200h-218zM300 407 q0 -117 62 -194.5t185 -77.5q97 0 167 82.5t86 209.5l-2 5h-498v-25zM665 1284v200h218v-200h-218z" />
<glyph unicode="&#x4dc;" horiz-adv-x="2041" d="M62 0zM62 1423q32 21 69 32.5t86 11.5q83 0 146.5 -40t133.5 -153l290 -474h142v501l-163 28v127h359h163v-127l-163 -28v-501h154l290 474q69 113 132 153t148 40q48 0 85 -11.5t69 -32.5l-29 -138q-21 4 -42.5 7t-42.5 3q-48 0 -82 -25.5t-73 -84.5l-279 -433l382 -605 l146 -21v-126h-461v126l78 13l-300 495h-175v-480l163 -28v-126h-522v126l163 28v480h-182l-301 -495l79 -13v-126h-462v126l146 21l388 614l-266 424q-39 59 -73 84.5t-81 25.5q-22 0 -43.5 -3t-42.5 -7zM669 1603v200h218v-200h-218zM1139 1603v200h218v-200h-218z" />
<glyph unicode="&#x4dd;" horiz-adv-x="1728" d="M39 0v126l154 22l281 418l-181 272q-29 43 -61.5 67t-73.5 24q-21 0 -27 -1t-49 -8l-28 134q37 24 67 35.5t77 11.5q75 0 137.5 -45t112.5 -128l187 -303h119v302l-163 28v127h163h360v-127l-163 -28v-302h129l187 303q49 83 111.5 128t139.5 45q46 0 76.5 -12t66.5 -35 l-27 -134q-43 7 -49.5 8t-26.5 1q-42 0 -75 -24t-60 -67l-187 -280l277 -410l153 -22v-126h-302l-281 459h-132v-305l163 -28v-126h-523v126l163 28v305h-133l-280 -459h-302zM39 0zM493 1279v200h218v-200h-218zM963 1279v200h218v-200h-218z" />
<glyph unicode="&#x4de;" horiz-adv-x="1222" d="M71 0zM76 398l2 6h188q0 -114 88 -192.5t227 -78.5q159 0 249.5 74.5t90.5 194.5q0 133 -82 197.5t-242 64.5h-164v156h164q154 0 228 65.5t74 180.5q0 113 -83.5 184.5t-253.5 71.5q-98 0 -169 -30.5t-116 -76.5l-38 -205h-138v258q62 80 188 144.5t292 64.5 q239 0 377 -108t138 -307q0 -101 -63 -184t-173 -131q125 -42 191.5 -129t66.5 -212q0 -200 -148.5 -313.5t-388.5 -113.5q-209 0 -359.5 107t-145.5 312zM235 1604v200h218v-200h-218zM705 1604v200h218v-200h-218z" />
<glyph unicode="&#x4df;" horiz-adv-x="1048" d="M84 0zM89 314l2 6h187q0 -76 66 -132t170 -56q107 0 166 49.5t59 123.5q0 87 -51.5 127t-160.5 40h-188v160h188q104 0 148.5 39.5t44.5 114.5q0 68 -51 115t-155 47q-93 0 -156 -49t-63 -119h-187l-2 6q-6 139 113 226.5t295 87.5q190 0 297 -81.5t107 -232.5 q0 -73 -44 -134t-123 -96q91 -32 139 -95.5t48 -155.5q0 -152 -116.5 -238t-307.5 -86q-177 0 -303.5 85.5t-121.5 247.5zM156 1282v200h218v-200h-218zM626 1282v200h218v-200h-218z" />
<glyph unicode="&#x4e0;" horiz-adv-x="1124" d="M83 398l2 6h189q0 -114 76 -192.5t197 -78.5q138 0 218 74.5t80 194.5q0 153 -81 224.5t-240 71.5h-147v154l377 444l-2 5h-448l-14 -167h-169v322h869l1 -120l-410 -491q220 -13 340.5 -126.5t120.5 -312.5q0 -200 -137.5 -313.5t-357.5 -113.5q-192 0 -330.5 107 t-133.5 312z" />
<glyph unicode="&#x4e1;" horiz-adv-x="1129" d="M81 23l2 6h189q0 -112 76 -190.5t197 -78.5q138 0 218 74.5t80 192.5q0 154 -81 225t-241 71h-148v154l358 444l-3 5h-426l-14 -166h-169v322h869l1 -120l-396 -493q213 -16 330 -129t117 -309q0 -198 -137.5 -312t-357.5 -114q-192 0 -330.5 107.5t-133.5 310.5z" />
<glyph unicode="&#x4e2;" horiz-adv-x="1574" d="M77 0v126l163 28v1147l-163 28v127h163h197h163v-127l-163 -28v-839l6 -2l700 749v92l-163 28v127h163h197h163v-127l-163 -28v-1147l163 -28v-126h-523v126l163 28v812l-6 2l-700 -750v-64l163 -28v-126h-523zM77 0zM428 1650v146h721v-146h-721z" />
<glyph unicode="&#x4e3;" horiz-adv-x="1396" d="M97 0v126l163 28v773l-163 28v127h359h163v-127l-163 -28v-611l6 -2l477 768h197h163v-127l-163 -28v-773l163 -28v-126h-523v126l163 28v612l-6 2l-477 -768h-359zM97 0zM354 1324v146h721v-146h-721z" />
<glyph unicode="&#x4e4;" horiz-adv-x="1574" d="M77 0v126l163 28v1147l-163 28v127h163h197h163v-127l-163 -28v-839l6 -2l700 749v92l-163 28v127h163h197h163v-127l-163 -28v-1147l163 -28v-126h-523v126l163 28v812l-6 2l-700 -750v-64l163 -28v-126h-523zM77 0zM429 1605v200h218v-200h-218zM899 1605v200h218v-200 h-218z" />
<glyph unicode="&#x4e5;" horiz-adv-x="1396" d="M97 0v126l163 28v773l-163 28v127h359h163v-127l-163 -28v-611l6 -2l477 768h197h163v-127l-163 -28v-773l163 -28v-126h-523v126l163 28v612l-6 2l-477 -768h-359zM97 0zM355 1279v200h218v-200h-218zM825 1279v200h218v-200h-218z" />
<glyph unicode="&#x4e6;" horiz-adv-x="1445" d="M79 0zM79 717v21q0 317 176 528t458 211q290 0 472.5 -211t182.5 -528v-21q0 -318 -182.5 -528t-472.5 -210q-282 0 -458 210t-176 528zM276 717q0 -256 115.5 -416.5t321.5 -160.5q218 0 338 160t120 417v23q0 254 -121.5 414.5t-336.5 160.5q-206 0 -321.5 -161 t-115.5 -414v-23zM357 1604v200h218v-200h-218zM827 1604v200h218v-200h-218z" />
<glyph unicode="&#x4e7;" horiz-adv-x="1149" d="M90 0zM90 529v22q0 240 130 395.5t353 155.5q224 0 354.5 -155t130.5 -396v-22q0 -242 -130 -396t-353 -154q-225 0 -355 154.5t-130 395.5zM211 1280v200h218v-200h-218zM287 529q0 -172 72.5 -284t215.5 -112q140 0 213 112t73 284v22q0 170 -73 283t-215 113 t-214 -113t-72 -283v-22zM681 1280v200h218v-200h-218z" />
<glyph unicode="&#x4e8;" horiz-adv-x="1403" d="M79 0zM79 717v21q0 317 176 528t458 211q290 0 472.5 -211t182.5 -528v-21q0 -318 -182.5 -528t-472.5 -210q-282 0 -458 210t-176 528zM282 801l2 -5h878l2 5q-10 227 -129 370.5t-322 143.5q-194 0 -308 -143.5t-123 -370.5zM284 636q13 -222 126 -359t303 -137 q201 0 318.5 136.5t131.5 359.5l-2 5h-875z" />
<glyph unicode="&#x4e9;" horiz-adv-x="1186" d="M104 0zM104 529v22q0 240 130 395.5t353 155.5q224 0 354.5 -155t130.5 -396v-22q0 -242 -130 -396t-353 -154q-225 0 -355 154.5t-130 395.5zM308 464q7 -146 78.5 -238.5t202.5 -92.5q128 0 199 92.5t79 238.5l-2 5h-555zM309 629l2 -5h553l2 5q-11 139 -82.5 228.5 t-196.5 89.5q-126 0 -196.5 -89.5t-81.5 -228.5z" />
</font>
</defs>
</svg>
